<?xml version="1.0" encoding="UTF-8"?>
<!DOCTYPE svg PUBLIC "-//W3C//DTD SVG 1.1//EN" "http://www.w3.org/Graphics/SVG/1.1/DTD/svg11.dtd">
<!-- Creator: CorelDRAW X6 -->
<svg xmlns="http://www.w3.org/2000/svg" xml:space="preserve" width="109.834mm" height="121.634mm" version="1.1" style="shape-rendering:geometricPrecision; text-rendering:geometricPrecision; image-rendering:optimizeQuality; fill-rule:evenodd; clip-rule:evenodd"
viewBox="0 0 7765 8599"
 xmlns:xlink="http://www.w3.org/1999/xlink">
 <defs>
  <style type="text/css">
   <![CDATA[
    .fil0 {fill:#2B2A29}
   ]]>
  </style>
 </defs>
 <g id="Layer_x0020_1">
  <metadata id="CorelCorpID_0Corel-Layer"/>
  <g id="_191936928">
   <path class="fil0" d="M2591 8269c-13,-42 251,-523 710,-426 46,8 130,41 163,66 92,67 314,310 293,397 -5,17 -105,88 -126,105 -96,67 -217,108 -363,108 -192,5 -631,-75 -677,-250zm1124 -263c83,-63 88,-126 117,-147 58,13 37,151 33,188 -4,34 -21,167 -50,176l-50 -109c-17,-25 -54,-71 -50,-108zm-1220 125c-21,-75 -34,-205 -9,-293 30,0 42,38 72,76 37,41 50,37 87,66 0,30 -37,67 -58,88 -21,21 -55,59 -92,63zm601 -827c21,71 0,29 34,54 -21,42 -184,71 -184,0 -4,-63 50,-121 100,-79 25,20 21,16 50,25zm-1972 455l0 -201c247,13 289,13 539,-54 59,-17 101,-33 151,-50l205 -96c16,-13 46,-29 62,-38 9,-4 343,-41 364,-37 12,62 -9,138 -46,167 -46,42 -113,42 -188,37 -117,0 -96,-4 -180,51 -104,66 -259,154 -384,183 -30,9 -67,13 -96,21 -92,21 -322,34 -427,17l0 0zm-384 -928c33,92 79,143 130,222 16,25 25,54 41,79 17,30 9,-12 38,76 42,129 142,338 96,467 -33,80 17,84 -150,59 -213,-33 -523,-92 -677,-242 -222,-222 -67,-439 167,-552 63,-33 276,-113 355,-109l0 0zm2315 619c-4,54 -30,113 29,142 4,0 42,-17 50,-46 8,-38 -12,-13 -8,-50 8,-55 108,-100 117,-117 21,-42 -55,-46 -75,-55 -5,-71 0,-91 20,-142 13,-25 38,-96 51,-108 20,4 75,75 96,92 33,42 62,67 96,100 67,71 347,347 355,422 8,42 -80,255 -134,255 -25,-9 -63,-46 -92,-63 -37,-25 -58,-37 -96,-58 -221,-117 -464,-101 -664,41 -17,13 -29,30 -46,38 -34,21 -100,8 -130,-12 -217,-126 117,-669 305,-665 -4,55 -58,134 -37,172 25,41 117,41 163,54l0 0zm29 -251c-13,-25 -4,-33 21,-33 0,16 -4,29 -21,33zm-944 -113c8,30 16,84 -21,92 -17,-12 -21,-29 -17,-54 0,-29 8,-38 38,-38zm994 13c-4,-25 -4,-59 -4,-84 4,-29 12,-41 38,-46 4,46 4,113 -34,130zm-175 -50c-9,-25 -5,-30 20,-34 -4,17 0,30 -20,34zm-832 -84c71,0 263,159 276,217 -33,30 -134,55 -188,46 -17,-96 -96,-229 -88,-263zm811 -142c16,21 8,8 12,50 0,21 4,34 0,59 -25,8 -50,0 -83,12 -17,4 -21,126 -21,151 -9,75 -25,75 -67,113 -33,25 -67,50 -100,79 -30,25 -76,71 -105,75 -8,-21 -12,-63 -16,-88 -9,-25 -21,-54 -34,-75 -67,-125 -226,-234 -347,-296 -12,-34 -4,-297 4,-347 105,-9 402,96 539,125 63,13 134,13 193,29 12,30 25,80 25,113l0 0zm-1630 96l42 4c54,-79 59,-66 113,-71 4,-50 4,-66 63,-62 12,21 29,62 66,67 38,-34 13,-67 30,-101 29,9 12,4 29,21 46,46 42,-21 109,9 71,33 296,183 325,229 -20,50 -75,34 -41,138 29,105 21,100 -30,134 -175,109 -363,175 -572,209 -359,54 -368,-34 -443,-305 -46,-167 -58,-121 -96,-197 -13,-25 -25,-41 -38,-66 -75,-134 -104,-122 159,-117 63,4 201,12 247,41 25,17 21,42 37,67l0 0zm1684 -225l75 -5 0 147c-16,12 -42,16 -62,16 -9,-37 -17,-121 -13,-158zm-1625 -222c58,-4 67,38 83,84 17,37 34,96 30,142 -30,16 -17,0 -38,25 -13,17 -4,21 -33,21 -30,-30 -97,-180 -42,-272zm626 25c17,4 92,34 105,42l12 196c-20,17 -29,13 -29,42 -4,25 0,42 -8,67 -29,-8 -34,-42 -42,-67 -17,-50 -46,-238 -38,-280zm-463 -75c25,17 87,196 87,255 -33,4 -33,-4 -50,-34 -12,-20 -25,-37 -29,-58 -12,-33 -25,-113 -21,-142 9,-38 -8,29 4,-13 0,0 5,-4 5,-4 0,0 0,-4 4,-4zm873 -46l288 34c71,12 217,20 272,50l-9 142c-66,33 -292,8 -367,-9 -109,-25 -184,-96 -184,-217zm610 226c-4,-50 0,-109 17,-142 62,-17 183,0 305,-38 50,-17 117,-58 163,-92 4,-8 16,-17 20,-21 59,-37 42,80 34,105 -67,46 -163,87 -247,117 -46,16 -242,75 -292,71zm-999 -322c46,-4 243,21 284,33 5,38 17,126 0,159 -66,34 -259,-50 -296,-75 -4,-46 -4,-79 12,-117zm-250 -92c25,-4 150,54 167,67l4 104c-33,0 -163,-121 -171,-171zm-193 -894c126,8 314,146 418,209 138,79 268,142 443,192 276,84 531,42 781,-88 34,-16 67,-37 101,-54 29,-21 71,-58 100,-63l54 355c5,34 9,59 17,88 8,34 4,59 8,92 0,17 13,80 17,88 8,25 13,0 17,37 0,9 0,42 0,55 -63,50 -130,100 -205,129 -67,30 -192,63 -288,55 -17,-30 -55,-209 -71,-239 -9,13 -9,34 -4,51 8,66 16,104 8,179 -67,17 -326,-4 -389,-21 -104,-25 -204,-92 -200,-213l75 -33 -21 -8c-4,0 -12,-5 -21,-5 -37,-8 -79,-33 -83,-79 29,0 58,0 87,-4 13,0 26,0 38,-4 25,-5 25,4 29,-13 -37,-17 -133,-8 -184,-17 -33,-8 -154,-33 -171,-33 0,42 21,50 54,58 80,25 122,-12 92,88 -108,0 -167,-54 -171,-17 0,9 -4,17 17,34 29,17 75,29 108,37 38,5 80,-4 63,88 -79,34 -226,34 -271,-33 -51,-63 -63,-238 -88,-263 -9,54 0,125 0,183 0,38 8,67 -34,67 -25,0 -54,-12 -66,-29 -122,-100 -180,-384 -209,-543 -13,-59 -55,-284 -51,-326l0 0zm-254 -63c50,0 142,21 175,38 4,54 29,129 21,171 -42,0 -192,-113 -196,-209zm2874 -41c-21,-26 -29,-51 -12,-97 8,-25 29,-71 62,-41 50,50 34,138 -50,138zm1538 25c-5,0 -5,0 -5,4l-150 50c-25,8 -33,21 -58,4 8,-8 -9,-12 46,-21 79,-17 121,-42 158,-50 34,-4 355,-146 389,-175 113,-113 317,-42 246,41 -25,34 -54,38 -83,59 -21,129 46,401 29,560 -17,142 -46,104 -146,150 -34,17 -71,34 -71,79l29 422c21,155 50,740 33,874 -20,12 -37,21 -66,29l-71 8c-34,-4 -13,-497 -9,-560 0,-150 34,-672 -88,-772 -33,-26 -71,-5 -112,4 -310,62 -844,142 -1095,217 -67,21 -142,50 -205,79 -71,34 -79,138 -87,209 -21,163 -17,389 0,552l41 535c-4,0 -4,4 -4,4 -4,16 -83,12 -96,0 -58,-42 -50,-644 -67,-752 -12,-84 -12,-167 -16,-255 -5,-318 29,-326 -205,-347 -50,-4 -80,-4 -126,-17l-325 -87c-17,-30 -109,-623 -105,-677 79,-9 706,188 735,246 9,21 13,222 17,263 0,46 4,84 13,126l21 88c8,29 -5,12 16,25 67,-42 -8,-402 21,-481 34,0 38,-4 42,75 4,121 -25,218 17,330 21,0 16,5 33,-12 4,-9 8,-21 13,-29 21,-67 -13,-163 0,-255 8,-109 108,-113 200,-142 464,-155 886,-259 1354,-385 58,-16 163,-29 205,-50 29,-12 41,-12 37,-50 -88,-75 -459,84 -505,84l0 0zm-1676 -213c-16,20 -58,41 -83,45 -101,34 -42,-121 37,-125 25,0 63,46 46,80zm568 497c9,-21 13,-21 34,-30 230,-100 397,-183 652,-288 54,-21 112,-46 175,-71l347 -154c25,-13 54,-26 79,-46 38,-25 34,-34 59,-63 12,0 29,4 37,8 17,4 21,9 34,21 0,75 -4,71 -117,138 -167,100 -334,171 -518,247 -121,50 -247,96 -376,133 -92,25 -326,101 -406,105zm-885 -1107c184,225 296,396 -13,576 -50,29 -159,96 -225,92 -25,-46 -122,-309 -113,-359 71,16 142,58 230,50 4,-29 4,-25 -17,-38 -29,-25 -88,-54 -125,-67 -80,-21 -193,5 -72,-83 51,-34 260,-176 335,-171l0 0zm1742 183c79,-4 180,21 267,5 63,-13 46,-26 67,-72 17,-41 96,-83 100,-16l-8 100c0,46 0,84 -4,134 -25,4 -171,-29 -192,-38 4,-37 58,-29 62,-92 -58,4 -292,67 -292,-21zm188 -71c4,-4 4,-4 4,-4 0,0 4,-4 4,-4 42,-13 46,8 46,8 0,0 -4,25 -41,9 -9,-5 -9,-5 -13,-9zm-4086 222c4,-4 -17,-17 25,-4 0,8 4,4 -4,12 -9,13 4,0 -13,8 0,17 -29,88 -67,97 -138,25 -309,-46 -351,-147 -37,-92 17,-192 55,-259 37,-62 96,-142 142,-196 46,-25 200,117 242,146 25,17 79,46 50,71 -29,17 -188,4 -238,42 4,8 -4,4 13,17l71 21c41,12 66,8 112,12 0,67 -96,125 -100,201 34,-5 34,-13 63,-21zm1947 455c-4,-8 0,4 -9,-17l-12 -41c4,-30 4,-9 8,-17l88 -17c63,-4 171,-67 238,-67 21,51 29,96 105,92 58,-4 112,-41 167,-37 4,83 16,171 104,175 105,4 172,-117 71,-250 -71,-92 -62,-9 -192,-92l-92 -55c8,-92 42,-154 -37,-275 -30,-46 -126,-151 -126,-218 88,-12 418,71 518,96 80,21 159,42 247,63 79,21 167,42 250,63 71,21 151,50 226,75 159,46 760,146 777,154 0,30 -25,30 -79,51l-280 125c-121,54 -242,104 -368,159 -217,92 -430,192 -639,292 -54,25 -42,25 -79,55 -13,8 -711,-234 -840,-285 -29,-8 -38,-8 -46,-29zm2632 -330c-29,-29 -21,-46 -75,-75 -46,-25 -67,-17 -67,-79 0,-101 -13,-214 -4,-310 367,-4 656,105 743,-238 46,-167 -37,-108 230,-134 63,-8 230,-16 247,-87 4,-25 12,-71 16,-96l17 -96c4,-21 0,-26 34,-17 16,4 33,12 46,17 117,79 192,384 146,497 -63,171 -176,225 -217,284 -13,17 -5,42 -101,71 -108,29 -301,29 -418,12 -66,-8 -288,-50 -346,-8 -17,17 -13,13 -38,25 -25,13 -4,4 -50,54 -34,38 -130,172 -163,180l0 0zm-4805 -727c4,-29 25,-12 84,-46 192,-108 367,-447 472,-455 4,42 -8,37 -13,79 0,29 0,63 0,92 -12,113 -54,0 -75,117 -17,96 9,422 -121,439 -29,4 -196,-147 -284,-192 -17,-9 -54,-17 -63,-34l0 0zm5937 -489c-4,-25 0,-46 9,-71 112,-8 208,188 250,226 17,17 9,8 17,29 8,17 13,17 17,29 29,42 41,84 58,138 29,109 42,222 0,330 -37,109 -71,172 -142,247 -142,150 -271,225 -551,213 -255,-8 -301,-100 -485,-42 -42,13 -109,59 -138,63 -12,-222 405,-146 518,-126 134,30 167,46 301,5 242,-76 464,-322 447,-627 -8,-163 -109,-305 -242,-384l-59 -30 0 0zm-5419 497c4,-20 0,-16 21,-25l13 21c8,21 12,34 33,42 -4,-63 -12,-351 13,-422l4 -8c0,0 0,0 4,-4 4,8 13,288 17,325 12,209 146,310 347,335 83,8 213,-46 271,-80 226,-129 347,-359 430,-597 13,-38 34,-88 42,-130l25 -100c9,-21 4,-21 21,-29 42,75 -83,397 -129,484 -67,130 -151,264 -255,368 -146,142 -410,343 -631,176 -67,-51 -96,-101 -125,-184 -13,21 0,50 4,71 25,104 75,192 179,238 42,17 113,12 163,12 347,-20 619,-342 736,-622 37,-92 62,-159 92,-251 12,-37 25,-96 29,-133 4,-25 17,-147 21,-155 25,0 33,8 50,29 134,146 280,380 409,510 34,33 50,42 96,71 30,17 80,42 101,63 -4,25 -34,54 -46,66 -71,59 -121,30 -146,80 -38,92 -343,225 -343,225 -46,-91 -25,-451 -54,-497 -38,17 -30,67 -42,96 -25,46 -34,38 -38,101 0,83 17,175 29,255 21,121 -12,100 34,175 42,59 83,180 104,251 25,71 38,142 55,217 12,42 12,79 16,121 9,59 5,80 -25,117 -83,113 -175,184 -317,242 -109,46 -351,88 -485,59 -347,-75 -664,-272 -998,-410l-205 -75c0,-50 125,-171 154,-217 26,-38 46,-88 63,-129l151 -364c12,-17 16,-13 25,-25 0,0 83,-280 87,-293l0 0zm5060 -1073l-4 -25c12,0 16,-9 21,8 0,17 -9,13 -17,17zm221 -75c46,0 80,25 105,41 21,151 -75,564 -113,731 -8,38 -17,117 -38,138 -46,34 -246,42 -300,9l25 -159c16,17 12,4 12,67 -4,21 -4,42 0,62l54 21c9,-33 -4,-46 21,-54 38,-8 25,17 42,-33 4,-25 25,-88 38,-105 12,21 8,25 46,21 33,-71 67,-263 79,-355 13,-67 46,-263 42,-339 -4,-29 -8,-20 -13,-45l0 0zm-163 664c0,-50 55,-393 63,-522 4,-30 8,-159 17,-180 25,-4 25,4 46,8 -4,38 -17,42 -29,75 -26,84 -21,197 -26,285 0,66 -4,125 -8,192 0,29 -8,58 -12,88 -9,33 -13,54 -51,54l0 0zm-41 -639c-17,-13 -13,-21 -9,-59 4,-38 -4,-46 30,-54 0,37 -5,88 -21,113zm-907 1295c0,-29 63,-176 79,-226 42,-113 80,-251 105,-368 8,-41 21,-91 29,-133 50,-238 79,-606 96,-853 4,-71 21,-580 29,-601 5,-4 5,-13 42,0 100,33 309,159 397,213 80,50 71,38 67,159 -8,138 -25,271 -33,409 -5,67 -17,134 -26,201l-54 388c-8,46 -21,13 -21,84 -4,37 -8,62 -12,100 -17,167 -71,384 -130,535 -37,92 -54,54 -146,79 -50,9 -372,25 -422,13l0 0zm-1684 -2415c155,-29 410,-21 577,-21 192,4 384,8 572,29 226,17 293,21 527,71 50,13 192,38 213,84 75,150 0,886 -34,1090 -16,88 -16,180 -37,263 -38,155 -59,326 -109,494 -25,100 -117,376 -192,401 -67,25 -472,37 -560,33 -226,-13 -781,-146 -978,-213 -75,-29 -138,-54 -204,-96 -17,-13 -25,-25 -38,-34 -17,-16 -29,-16 -46,-33 -192,-180 4,-1136 75,-1404 46,-167 113,-409 184,-564 17,-37 34,-63 50,-100l0 0zm-1809 -334c105,-9 397,12 476,37 17,29 -12,63 30,67 8,4 4,4 16,0 67,-8 318,-167 447,-67 130,96 159,276 84,460 -159,376 -585,422 -673,301 -29,-42 -12,-80 -12,-130 -42,4 -17,4 -59,-4 -8,46 -33,100 -46,150 -16,63 -25,109 -33,172 -38,229 -8,472 96,676 25,42 54,88 75,126 21,37 0,54 -4,83 -8,51 17,38 46,55 4,41 -50,196 -67,234 -88,209 -200,413 -388,534 -51,30 -151,76 -218,84 -87,8 -150,-38 -204,-100 -51,-55 -76,-130 -76,-226 0,-46 5,-276 38,-284 17,-4 13,-4 38,0 21,4 41,4 58,-4 0,-21 17,-17 -33,-38 -42,-16 -105,-62 -138,-88l-142 -167c-251,-267 -665,-534 -836,-819 -12,-20 -17,-29 -29,-50 -8,-21 -21,-33 -34,-46 5,-200 46,-296 147,-409 46,-54 92,-88 138,-138 33,-29 46,-42 87,-8 113,87 88,25 59,229 -34,214 -59,297 21,498 92,8 192,-17 288,-5 63,9 163,59 188,109 -4,29 -25,59 -33,92 -34,109 16,205 87,276 38,42 92,79 159,100 63,17 176,17 192,-46 -138,0 -301,-12 -359,-184 -42,-108 -4,-117 25,-204 50,-134 -71,-122 -96,-159 -8,-29 75,-50 121,-71 88,-38 163,-88 222,-163 33,-42 41,-71 62,-130 42,0 105,25 146,13 5,-42 -62,-67 -112,-92l-138 -54c-67,8 4,79 12,87 21,25 9,80 -4,109 -121,230 -723,330 -752,221 -29,-104 -8,-509 113,-522 42,-4 79,-12 96,-42 -33,-25 -134,-16 -226,-83 -104,-75 -54,-180 -21,-209 105,-75 201,8 289,42 29,8 42,8 62,12 26,9 63,59 80,80 246,217 618,83 735,-305l0 0zm-1115 83c4,-21 0,-8 16,-25 13,-8 13,-8 25,-21 13,-16 25,-46 46,-50 9,17 13,63 -4,79 -12,21 -54,17 -83,17zm1019 -192c-21,130 -33,205 -121,309 -54,63 -184,142 -313,113 -122,-25 -180,-109 -230,-201 -55,-100 -55,-242 -34,-371 38,-289 268,-569 560,-351 121,92 159,351 138,501l0 0zm-1040 196c-9,21 -67,55 -92,84 -29,33 -29,83 -42,134 -54,8 -155,-126 -180,-205 -21,-63 -25,-100 -16,-180 12,-217 234,-459 367,-217 21,38 50,100 55,155 -38,-9 -55,-55 -109,-59 -104,-12 -117,125 -63,209 25,42 42,46 80,79zm209 -217c-13,-17 -46,-154 -63,-196 -25,-42 -29,-38 -17,-113 17,-155 105,-359 247,-422 100,-46 133,4 225,-13 63,-12 167,-54 226,-29 46,21 117,84 167,100 67,21 163,13 234,34 46,108 4,192 180,209 54,4 71,4 75,62 12,147 -67,301 109,268 46,-9 58,-25 117,-17 33,46 4,125 -26,176 -33,4 -45,-5 -66,-13 -84,-29 -280,-25 -385,-54 -75,-17 -75,-13 -87,-92 -38,-272 -205,-593 -510,-531 -209,42 -284,163 -355,347 -50,121 -55,255 -71,284l0 0zm121 -1358c71,4 200,71 263,109 13,8 29,12 42,21 62,37 196,133 238,196 17,25 29,63 71,50 58,-29 8,-321 217,-309 84,125 -62,384 9,418 96,4 204,-163 397,-159 -5,92 -88,159 -138,222 -9,12 -21,25 -25,37 -9,17 -13,38 -5,46 109,50 351,-146 531,-50 -13,79 -192,134 -276,159 -42,12 -46,37 -12,58 71,38 217,34 284,46 67,13 108,29 146,67 92,84 125,205 -50,226 -46,8 -151,8 -171,50 20,54 154,62 154,163 0,46 -42,62 -79,71 -29,8 -109,25 -138,21 -17,-63 12,-163 -21,-222 -42,-71 -134,-29 -209,-33 -8,-134 67,-309 -146,-322 -42,-4 -46,0 -63,-33 -21,-42 -29,-96 -54,-142 -59,-88 -163,-5 -305,-84 -134,-79 -63,-79 -313,-79 -117,0 -255,8 -356,33 -100,29 -33,46 -242,-100 -63,-46 -414,-297 -439,-343 0,-4 5,-4 5,-4l12 -12c8,0 21,-5 29,-9 234,-42 706,255 823,180 13,-88 -171,-184 -179,-272l0 0zm-96 -46c-4,105 150,176 150,263 -79,-4 -301,-96 -388,-125 -134,-42 -318,-67 -435,13 -4,96 359,250 451,321 38,30 113,92 113,147 -113,16 -167,0 -297,29 -71,12 -188,63 -196,129 -54,0 -21,21 -71,30 -8,37 -17,37 -17,83 147,-21 318,-267 548,-209 8,50 -130,101 -147,197l9 8c0,0 4,0 4,0 63,25 67,-8 113,-50 25,-25 71,-88 121,-88 0,25 -46,155 -59,180 -25,54 -50,108 -83,150 -84,9 -125,-96 -309,29 -213,147 -264,523 -80,711 34,29 113,71 121,83 -8,67 -171,197 -229,272 -88,117 -84,255 -25,397 62,159 702,752 852,911 63,62 50,54 -13,154 -12,21 -37,50 -54,71 -42,46 -276,272 -326,301 -83,42 -234,54 -129,142 12,163 -259,280 -213,472 12,46 37,80 71,105 96,79 179,142 309,163l33 8c4,4 4,4 4,4 -16,63 -108,151 -158,192 -21,17 -46,25 -67,46 -13,71 42,188 75,226 92,104 205,96 226,154 4,17 12,42 16,63 38,188 30,489 117,648 30,54 96,104 142,163 42,54 80,117 109,196 21,42 63,217 46,259l-42 -21c-12,-12 -21,-21 -33,-33 -25,-25 -46,-42 -71,-59 -130,-79 -121,-12 -147,-121 -25,-96 -121,-322 -213,-322 -29,34 -29,71 -33,117 -50,0 -79,-33 -130,-29 -50,59 -54,130 -29,213 29,88 138,188 55,184 -13,0 -26,0 -38,-4 -171,-34 -347,-46 -522,-25 -180,25 -364,67 -506,146 -104,59 -196,134 -251,238 -20,46 -29,75 -12,138 42,171 134,272 297,355 175,88 317,109 501,146 129,26 468,42 606,42 196,0 359,-54 530,-121 101,-38 393,-150 506,-146 -4,71 -63,188 -75,255 -13,83 4,225 25,296 50,167 175,284 305,355 250,134 530,159 810,84 84,-25 172,-63 234,-104 67,-51 113,-96 155,-172 129,-225 29,-576 -121,-748 -109,-121 -209,-221 -330,-330 -63,-58 -101,-92 -138,-192 -42,-113 -71,-108 -167,-163 -21,-200 -13,-175 100,-209 100,-29 196,-67 292,-112 63,-30 130,-55 134,-138 4,-92 -33,-159 -33,-243 37,0 325,67 346,84 21,79 13,242 13,338 0,59 0,117 0,172 4,58 21,108 25,154 50,13 100,4 150,13 13,4 34,4 42,12 17,42 17,472 17,560 4,343 313,96 317,96 9,-17 -41,-668 -41,-698 -9,-100 -17,-497 58,-584 50,-51 527,-172 644,-193 108,-21 208,-37 317,-54l305 -46c4,0 4,-8 17,4 12,25 37,468 42,535 12,188 12,380 8,572 0,80 -33,201 33,234 55,25 184,-33 234,-41 63,-17 59,-17 80,-67 62,-197 -4,-456 -34,-652 -37,-230 -113,-547 92,-698 63,-50 105,-50 109,-179 4,-134 -84,-427 -25,-527 16,-25 58,-33 79,-62 17,-30 17,-109 4,-138 -16,-30 -71,-46 -104,-55 12,-217 510,-83 664,-67 197,21 464,-133 573,-275 142,-180 204,-385 125,-660 -42,-142 -159,-272 -280,-351 -21,-17 -42,-30 -67,-42 -17,-8 -21,-13 -33,-21 -25,-13 -21,-4 -34,-21 -46,-79 117,-401 46,-493 -79,-100 -313,-117 -388,-192 -38,-38 -13,-209 -9,-259 9,-84 55,-167 -12,-230 -92,-88 -276,-121 -393,-196 -117,-71 -255,-134 -401,-180 -201,-63 -401,-96 -614,-113 -38,0 -100,-4 -134,-8 -75,-17 -861,-8 -1015,-4 -113,0 -84,8 -138,75 -17,17 -21,21 -29,42 -197,476 -305,1048 -326,1571 0,50 -13,392 8,426 59,113 339,242 451,284 280,100 640,171 974,192 12,29 -8,180 -25,201 -50,0 -944,-201 -1078,-234l-272 -59c-16,0 -29,-4 -46,-8l-29 -9c-12,-8 -4,0 -12,-8 4,-71 71,-113 87,-163 -21,-58 -154,-96 -209,-138 -263,-204 -313,-555 -676,-647 -34,-9 -30,-13 -46,-42 -51,-84 -80,-142 -117,-238 -30,-84 -51,-205 -51,-305 -4,-59 5,-289 26,-326 54,-4 100,171 593,-59 58,-29 100,-83 129,-133 117,-188 147,-502 -46,-669 -29,-25 -50,-33 -75,-54 -4,-50 9,-96 -12,-138 -21,-38 -50,-46 -50,-104 62,-30 125,-30 183,-80 151,-134 -158,-313 -326,-347 -25,-4 -41,0 -50,-21 9,-16 55,-29 76,-37 25,-17 50,-29 71,-42 58,-42 75,-96 12,-134 -109,-71 -297,-16 -414,-12 9,-96 101,-117 88,-230 -50,-38 -138,-38 -205,-21 -33,9 -62,17 -91,34 -26,12 -59,33 -88,37 0,-79 -4,-146 -25,-213 -17,-54 -50,-121 -109,-129 -113,-25 -217,142 -255,217 -150,-13 -497,-385 -647,-272l0 0z"/>
   <path class="fil0" d="M4250 2733c0,-138 133,-623 192,-706 121,-21 689,25 840,42 66,8 129,12 200,20l389 46c71,5 117,9 171,42 13,96 -25,472 -33,589 -13,134 -42,289 -59,414l-58 414c-9,45 -13,91 -17,137 -8,42 -21,88 -25,134 -38,242 -71,284 -339,288 -192,5 -647,-58 -835,-104 -38,-13 -84,-21 -126,-34 -108,-25 -254,-66 -342,-129 -84,-59 -63,-88 -59,-251 5,-196 21,-401 38,-589 17,-17 25,-12 38,-29 8,-8 16,-29 20,-38 42,-71 67,-83 92,-121 21,-37 13,9 42,-46 13,-29 17,-16 25,-33 13,-17 0,-17 17,-42l79 -100c21,-25 96,-117 101,-138 -113,12 -368,455 -385,468 -4,-9 -4,-4 -4,-17 -4,-17 4,-25 8,-42 67,-184 247,-380 376,-522 80,-88 25,-54 38,-92 21,-17 67,-42 71,-71 -71,4 -201,176 -251,234 -12,21 -33,46 -54,67 -96,121 13,17 -92,146 -25,34 -33,54 -58,63l0 0zm1608 1441c46,-71 80,-234 96,-326l59 -363c12,-59 16,-125 29,-184 38,-251 113,-940 100,-1174 -92,-42 -288,-75 -405,-92 -309,-42 -1182,-142 -1366,-79 4,46 4,33 -13,83l-54 163c-8,38 -17,42 -33,71 -117,230 -297,1433 -172,1663 21,42 92,50 146,67 109,29 218,58 335,88 117,33 225,50 346,79 226,50 544,84 773,67 80,-8 126,-8 159,-63l0 0z"/>
   <path class="fil0" d="M2934 2073c-9,16 -13,21 -13,50 201,100 280,-109 305,-259 4,-38 -4,-50 25,-71 138,-101 234,88 121,246 -29,38 -71,75 -108,101 -51,37 -117,62 -126,83 13,21 55,29 84,25 100,-12 171,-50 230,-129 129,-180 75,-447 -163,-418 -92,12 -130,25 -147,96 -16,58 -8,159 -37,200 -42,67 -109,55 -171,76z"/>
   <path class="fil0" d="M2161 1245c-159,71 -105,422 100,360 196,-63 67,-431 -100,-360z"/>
   <path class="fil0" d="M4922 4809c-25,34 -167,109 -121,-12 42,-109 159,-34 121,12zm-96 -146c-62,17 -46,13 -71,71 -8,34 -25,71 -25,117 8,138 209,84 259,13 54,-84 -8,-117 -71,-159 -33,-25 -46,-54 -92,-42z"/>
   <path class="fil0" d="M4596 5252c-50,84 -137,29 -96,-37 55,-84 142,-38 96,37zm-183 -134c41,26 62,-8 33,76 -67,184 100,188 180,121 100,-84 8,-272 -172,-226 -25,9 -37,9 -41,29z"/>
   <path class="fil0" d="M5265 4910c-46,41 -167,29 -121,-46 42,-63 121,-21 121,46zm-25 -155l-100 -4c-21,42 -71,108 -63,171 8,50 83,96 146,75 142,-37 163,-117 67,-175 -46,-29 -46,-4 -50,-67z"/>
   <path class="fil0" d="M4154 4575c41,-21 133,46 33,96 -105,55 -71,-75 -33,-96zm-17 -79c-105,50 -126,326 83,234 42,-21 113,-92 76,-150 -34,-46 -92,-113 -159,-84z"/>
   <path class="fil0" d="M4438 4667c112,0 108,113 37,151 -37,16 -79,-5 -75,-50 8,-46 25,-67 38,-101zm-109 -46c17,34 71,4 42,84 -13,37 -29,75 -13,117 71,159 326,-34 184,-171 -25,-21 -63,-38 -96,-42 -29,-9 -100,-13 -117,12z"/>
   <path class="fil0" d="M6556 4162c29,-17 33,-75 46,-121 17,-88 46,-393 37,-468 -37,8 -29,25 -37,62l-46 222c-13,58 -63,284 0,305l0 0z"/>
   <path class="fil0" d="M4475 3589c-58,5 -88,218 4,213 13,-16 17,-66 55,13 8,25 29,54 50,71 37,33 150,88 154,-4 -20,-13 -46,-17 -71,-29 -58,-34 -62,-76 -91,-101 -51,-46 -17,-25 -42,-50 -21,0 -34,8 -55,4l-4 -117z"/>
   <path class="fil0" d="M6447 4153c71,-75 105,-346 105,-472 -4,-29 0,-50 -17,-71 -50,50 -54,213 -67,301 -21,146 -67,167 -71,196 -4,34 21,46 50,46l0 0z"/>
   <path class="fil0" d="M6318 4112l0 54c33,-4 16,-8 50,-29 8,-30 25,-50 33,-80 25,-83 50,-230 4,-305 -12,9 -12,4 -20,42 -21,67 -71,267 -67,318z"/>
   <path class="fil0" d="M4463 2825l0 -13 -9 4c-29,17 -121,155 -142,197 -29,54 -96,175 -96,250 21,-12 50,-75 67,-104l180 -334z"/>
   <path class="fil0" d="M4354 3710c33,0 33,-16 46,-54 21,-58 54,-192 46,-251 -59,13 -117,226 -92,305z"/>
   <path class="fil0" d="M4291 3589c30,0 25,0 30,-25 25,-87 87,-259 87,-296 -29,8 -37,25 -58,58 -13,25 -21,50 -34,79 -8,26 -16,55 -25,84 0,17 -4,33 -4,50 -4,34 -4,38 4,50z"/>
   <path class="fil0" d="M4229 3447c33,4 25,-12 33,-46 34,-100 188,-351 167,-380 -25,8 -221,393 -200,426z"/>
  </g>
 </g>
</svg>
