<?xml version="1.0" encoding="UTF-8"?>
<!DOCTYPE svg PUBLIC "-//W3C//DTD SVG 1.1//EN" "http://www.w3.org/Graphics/SVG/1.1/DTD/svg11.dtd">
<!-- Creator: CorelDRAW X6 -->
<svg xmlns="http://www.w3.org/2000/svg" xml:space="preserve" width="109.866mm" height="121.662mm" version="1.1" style="shape-rendering:geometricPrecision; text-rendering:geometricPrecision; image-rendering:optimizeQuality; fill-rule:evenodd; clip-rule:evenodd"
viewBox="0 0 1859 2058"
 xmlns:xlink="http://www.w3.org/1999/xlink">
 <defs>
  <style type="text/css">
   <![CDATA[
    .fil0 {fill:#121212}
    .fil5 {fill:#5E5E5E}
    .fil3 {fill:gray}
    .fil4 {fill:#AAAAAA}
    .fil2 {fill:#CDCDCD}
    .fil1 {fill:white}
   ]]>
  </style>
 </defs>
 <g id="Layer_x0020_1">
  <metadata id="CorelCorpID_0Corel-Layer"/>
  <g id="_80836192">
   <path class="fil0" d="M620 1979c-3,-10 60,-125 170,-102 11,2 31,10 39,16 22,16 75,74 70,95 -1,4 -25,21 -30,25 -23,16 -52,26 -87,26 -46,1 -151,-18 -162,-60zm269 -63c20,-15 21,-30 28,-35 14,3 9,36 8,45 -1,8 -5,40 -12,42l-12 -26c-4,-6 -13,-17 -12,-26zm-292 30c-5,-18 -8,-49 -2,-70 7,0 10,9 17,18 9,10 12,9 21,16 0,7 -9,16 -14,21 -5,5 -13,14 -22,15zm144 -198c5,17 0,7 8,13 -5,10 -44,17 -44,0 -1,-15 12,-29 24,-19 6,5 5,4 12,6zm-472 109l0 -48c59,3 69,3 129,-13 14,-4 24,-8 36,-12l49 -23c4,-3 11,-7 15,-9 2,-1 82,-10 87,-9 3,15 -2,33 -11,40 -11,10 -27,10 -45,9 -28,0 -23,-1 -43,12 -25,16 -62,37 -92,44 -7,2 -16,3 -23,5 -22,5 -77,8 -102,4zm-92 -222c8,22 19,34 31,53 4,6 6,13 10,19 4,7 2,-3 9,18 10,31 34,81 23,112 -8,19 4,20 -36,14 -51,-8 -125,-22 -162,-58 -53,-53 -16,-105 40,-132 15,-8 66,-27 85,-26zm554 148c-1,13 -7,27 7,34 1,0 10,-4 12,-11 2,-9 -3,-3 -2,-12 2,-13 26,-24 28,-28 5,-10 -13,-11 -18,-13 -1,-17 0,-22 5,-34 3,-6 9,-23 12,-26 5,1 18,18 23,22 8,10 15,16 23,24 16,17 83,83 85,101 2,10 -19,61 -32,61 -6,-2 -15,-11 -22,-15 -9,-6 -14,-9 -23,-14 -53,-28 -111,-24 -159,10 -4,3 -7,7 -11,9 -8,5 -24,2 -31,-3 -52,-30 28,-160 73,-159 -1,13 -14,32 -9,41 6,10 28,10 39,13zm7 -60c-3,-6 -1,-8 5,-8 0,4 -1,7 -5,8zm-226 -27c2,7 4,20 -5,22 -4,-3 -5,-7 -4,-13 0,-7 2,-9 9,-9zm238 3c-1,-6 -1,-14 -1,-20 1,-7 3,-10 9,-11 1,11 1,27 -8,31zm-42 -12c-2,-6 -1,-7 5,-8 -1,4 0,7 -5,8zm-199 -20c17,0 63,38 66,52 -8,7 -32,13 -45,11 -4,-23 -23,-55 -21,-63zm194 -34c4,5 2,2 3,12 0,5 1,8 0,14 -6,2 -12,0 -20,3 -4,1 -5,30 -5,36 -2,18 -6,18 -16,27 -8,6 -16,12 -24,19 -7,6 -18,17 -25,18 -2,-5 -3,-15 -4,-21 -2,-6 -5,-13 -8,-18 -16,-30 -54,-56 -83,-71 -3,-8 -1,-71 1,-83 25,-2 96,23 129,30 15,3 32,3 46,7 3,7 6,19 6,27zm-390 23l10 1c13,-19 14,-16 27,-17 1,-12 1,-16 15,-15 3,5 7,15 16,16 9,-8 3,-16 7,-24 7,2 3,1 7,5 11,11 10,-5 26,2 17,8 71,44 78,55 -5,12 -18,8 -10,33 7,25 5,24 -7,32 -42,26 -87,42 -137,50 -86,13 -88,-8 -106,-73 -11,-40 -14,-29 -23,-47 -3,-6 -6,-10 -9,-16 -18,-32 -25,-29 38,-28 15,1 48,3 59,10 6,4 5,10 9,16zm403 -54l18 -1 0 35c-4,3 -10,4 -15,4 -2,-9 -4,-29 -3,-38zm-389 -53c14,-1 16,9 20,20 4,9 8,23 7,34 -7,4 -4,0 -9,6 -3,4 -1,5 -8,5 -7,-7 -23,-43 -10,-65zm150 6c4,1 22,8 25,10l3 47c-5,4 -7,3 -7,10 -1,6 0,10 -2,16 -7,-2 -8,-10 -10,-16 -4,-12 -11,-57 -9,-67zm-111 -18c6,4 21,47 21,61 -8,1 -8,-1 -12,-8 -3,-5 -6,-9 -7,-14 -3,-8 -6,-27 -5,-34 2,-9 -2,7 1,-3 0,0 1,-1 1,-1 0,0 0,-1 1,-1zm209 -11l69 8c17,3 52,5 65,12l-2 34c-16,8 -70,2 -88,-2 -26,-6 -44,-23 -44,-52zm146 54c-1,-12 0,-26 4,-34 15,-4 44,0 73,-9 12,-4 28,-14 39,-22 1,-2 4,-4 5,-5 14,-9 10,19 8,25 -16,11 -39,21 -59,28 -11,4 -58,18 -70,17zm-239 -77c11,-1 58,5 68,8 1,9 4,30 0,38 -16,8 -62,-12 -71,-18 -1,-11 -1,-19 3,-28zm-60 -22c6,-1 36,13 40,16l1 25c-8,0 -39,-29 -41,-41zm-46 -214c30,2 75,35 100,50 33,19 64,34 106,46 66,20 127,10 187,-21 8,-4 16,-9 24,-13 7,-5 17,-14 24,-15l13 85c1,8 2,14 4,21 2,8 1,14 2,22 0,4 3,19 4,21 2,6 3,0 4,9 0,2 0,10 0,13 -15,12 -31,24 -49,31 -16,7 -46,15 -69,13 -4,-7 -13,-50 -17,-57 -2,3 -2,8 -1,12 2,16 4,25 2,43 -16,4 -78,-1 -93,-5 -25,-6 -49,-22 -48,-51l18 -8 -5 -2c-1,0 -3,-1 -5,-1 -9,-2 -19,-8 -20,-19 7,0 14,0 21,-1 3,0 6,0 9,-1 6,-1 6,1 7,-3 -9,-4 -32,-2 -44,-4 -8,-2 -37,-8 -41,-8 0,10 5,12 13,14 19,6 29,-3 22,21 -26,0 -40,-13 -41,-4 0,2 -1,4 4,8 7,4 18,7 26,9 9,1 19,-1 15,21 -19,8 -54,8 -65,-8 -12,-15 -15,-57 -21,-63 -2,13 0,30 0,44 0,9 2,16 -8,16 -6,0 -13,-3 -16,-7 -29,-24 -43,-92 -50,-130 -3,-14 -13,-68 -12,-78zm-61 -15c12,0 34,5 42,9 1,13 7,31 5,41 -10,0 -46,-27 -47,-50zm688 -10c-5,-6 -7,-12 -3,-23 2,-6 7,-17 15,-10 12,12 8,33 -12,33zm368 6c-1,0 -1,0 -1,1l-36 12c-6,2 -8,5 -14,1 2,-2 -2,-3 11,-5 19,-4 29,-10 38,-12 8,-1 85,-35 93,-42 27,-27 76,-10 59,10 -6,8 -13,9 -20,14 -5,31 11,96 7,134 -4,34 -11,25 -35,36 -8,4 -17,8 -17,19l7 101c5,37 12,177 8,209 -5,3 -9,5 -16,7l-17 2c-8,-1 -3,-119 -2,-134 0,-36 8,-161 -21,-185 -8,-6 -17,-1 -27,1 -74,15 -202,34 -262,52 -16,5 -34,12 -49,19 -17,8 -19,33 -21,50 -5,39 -4,93 0,132l10 128c-1,0 -1,1 -1,1 -1,4 -20,3 -23,0 -14,-10 -12,-154 -16,-180 -3,-20 -3,-40 -4,-61 -1,-76 7,-78 -49,-83 -12,-1 -19,-1 -30,-4l-78 -21c-4,-7 -26,-149 -25,-162 19,-2 169,45 176,59 2,5 3,53 4,63 0,11 1,20 3,30l5 21c2,7 -1,3 4,6 16,-10 -2,-96 5,-115 8,0 9,-1 10,18 1,29 -6,52 4,79 5,0 4,1 8,-3 1,-2 2,-5 3,-7 5,-16 -3,-39 0,-61 2,-26 26,-27 48,-34 111,-37 212,-62 324,-92 14,-4 39,-7 49,-12 7,-3 10,-3 9,-12 -21,-18 -110,20 -121,20zm-401 -51c-4,5 -14,10 -20,11 -24,8 -10,-29 9,-30 6,0 15,11 11,19zm136 119c2,-5 3,-5 8,-7 55,-24 95,-44 156,-69 13,-5 27,-11 42,-17l83 -37c6,-3 13,-6 19,-11 9,-6 8,-8 14,-15 3,0 7,1 9,2 4,1 5,2 8,5 0,18 -1,17 -28,33 -40,24 -80,41 -124,59 -29,12 -59,23 -90,32 -22,6 -78,24 -97,25zm-212 -265c44,54 71,95 -3,138 -12,7 -38,23 -54,22 -6,-11 -29,-74 -27,-86 17,4 34,14 55,12 1,-7 1,-6 -4,-9 -7,-6 -21,-13 -30,-16 -19,-5 -46,1 -17,-20 12,-8 62,-42 80,-41zm417 44c19,-1 43,5 64,1 15,-3 11,-6 16,-17 4,-10 23,-20 24,-4l-2 24c0,11 0,20 -1,32 -6,1 -41,-7 -46,-9 1,-9 14,-7 15,-22 -14,1 -70,16 -70,-5zm45 -17c1,-1 1,-1 1,-1 0,0 1,-1 1,-1 10,-3 11,2 11,2 0,0 -1,6 -10,2 -2,-1 -2,-1 -3,-2zm-978 53c1,-1 -4,-4 6,-1 0,2 1,1 -1,3 -2,3 1,0 -3,2 0,4 -7,21 -16,23 -33,6 -74,-11 -84,-35 -9,-22 4,-46 13,-62 9,-15 23,-34 34,-47 11,-6 48,28 58,35 6,4 19,11 12,17 -7,4 -45,1 -57,10 1,2 -1,1 3,4l17 5c10,3 16,2 27,3 0,16 -23,30 -24,48 8,-1 8,-3 15,-5zm466 109c-1,-2 0,1 -2,-4l-3 -10c1,-7 1,-2 2,-4l21 -4c15,-1 41,-16 57,-16 5,12 7,23 25,22 14,-1 27,-10 40,-9 1,20 4,41 25,42 25,1 41,-28 17,-60 -17,-22 -15,-2 -46,-22l-22 -13c2,-22 10,-37 -9,-66 -7,-11 -30,-36 -30,-52 21,-3 100,17 124,23 19,5 38,10 59,15 19,5 40,10 60,15 17,5 36,12 54,18 38,11 182,35 186,37 0,7 -6,7 -19,12l-67 30c-29,13 -58,25 -88,38 -52,22 -103,46 -153,70 -13,6 -10,6 -19,13 -3,2 -170,-56 -201,-68 -7,-2 -9,-2 -11,-7zm630 -79c-7,-7 -5,-11 -18,-18 -11,-6 -16,-4 -16,-19 0,-24 -3,-51 -1,-74 88,-1 157,25 178,-57 11,-40 -9,-26 55,-32 15,-2 55,-4 59,-21 1,-6 3,-17 4,-23l4 -23c1,-5 0,-6 8,-4 4,1 8,3 11,4 28,19 46,92 35,119 -15,41 -42,54 -52,68 -3,4 -1,10 -24,17 -26,7 -72,7 -100,3 -16,-2 -69,-12 -83,-2 -4,4 -3,3 -9,6 -6,3 -1,1 -12,13 -8,9 -31,41 -39,43zm-1150 -174c1,-7 6,-3 20,-11 46,-26 88,-107 113,-109 1,10 -2,9 -3,19 0,7 0,15 0,22 -3,27 -13,0 -18,28 -4,23 2,101 -29,105 -7,1 -47,-35 -68,-46 -4,-2 -13,-4 -15,-8zm1421 -117c-1,-6 0,-11 2,-17 27,-2 50,45 60,54 4,4 2,2 4,7 2,4 3,4 4,7 7,10 10,20 14,33 7,26 10,53 0,79 -9,26 -17,41 -34,59 -34,36 -65,54 -132,51 -61,-2 -72,-24 -116,-10 -10,3 -26,14 -33,15 -3,-53 97,-35 124,-30 32,7 40,11 72,1 58,-18 111,-77 107,-150 -2,-39 -26,-73 -58,-92l-14 -7zm-1297 119c1,-5 0,-4 5,-6l3 5c2,5 3,8 8,10 -1,-15 -3,-84 3,-101l1 -2c0,0 0,0 1,-1 1,2 3,69 4,78 3,50 35,74 83,80 20,2 51,-11 65,-19 54,-31 83,-86 103,-143 3,-9 8,-21 10,-31l6 -24c2,-5 1,-5 5,-7 10,18 -20,95 -31,116 -16,31 -36,63 -61,88 -35,34 -98,82 -151,42 -16,-12 -23,-24 -30,-44 -3,5 0,12 1,17 6,25 18,46 43,57 10,4 27,3 39,3 83,-5 148,-82 176,-149 9,-22 15,-38 22,-60 3,-9 6,-23 7,-32 1,-6 4,-35 5,-37 6,0 8,2 12,7 32,35 67,91 98,122 8,8 12,10 23,17 7,4 19,10 24,15 -1,6 -8,13 -11,16 -17,14 -29,7 -35,19 -9,22 -82,54 -82,54 -11,-22 -6,-108 -13,-119 -9,4 -7,16 -10,23 -6,11 -8,9 -9,24 0,20 4,42 7,61 5,29 -3,24 8,42 10,14 20,43 25,60 6,17 9,34 13,52 3,10 3,19 4,29 2,14 1,19 -6,28 -20,27 -42,44 -76,58 -26,11 -84,21 -116,14 -83,-18 -159,-65 -239,-98l-49 -18c0,-12 30,-41 37,-52 6,-9 11,-21 15,-31l36 -87c3,-4 4,-3 6,-6 0,0 20,-67 21,-70zm1211 -257l-1 -6c3,0 4,-2 5,2 0,4 -2,3 -4,4zm53 -18c11,0 19,6 25,10 5,36 -18,135 -27,175 -2,9 -4,28 -9,33 -11,8 -59,10 -72,2l6 -38c4,4 3,1 3,16 -1,5 -1,10 0,15l13 5c2,-8 -1,-11 5,-13 9,-2 6,4 10,-8 1,-6 6,-21 9,-25 3,5 2,6 11,5 8,-17 16,-63 19,-85 3,-16 11,-63 10,-81 -1,-7 -2,-5 -3,-11zm-39 159c0,-12 13,-94 15,-125 1,-7 2,-38 4,-43 6,-1 6,1 11,2 -1,9 -4,10 -7,18 -6,20 -5,47 -6,68 0,16 -1,30 -2,46 0,7 -2,14 -3,21 -2,8 -3,13 -12,13zm-10 -153c-4,-3 -3,-5 -2,-14 1,-9 -1,-11 7,-13 0,9 -1,21 -5,27zm-217 310c0,-7 15,-42 19,-54 10,-27 19,-60 25,-88 2,-10 5,-22 7,-32 12,-57 19,-145 23,-204 1,-17 5,-139 7,-144 1,-1 1,-3 10,0 24,8 74,38 95,51 19,12 17,9 16,38 -2,33 -6,65 -8,98 -1,16 -4,32 -6,48l-13 93c-2,11 -5,3 -5,20 -1,9 -2,15 -3,24 -4,40 -17,92 -31,128 -9,22 -13,13 -35,19 -12,2 -89,6 -101,3zm-403 -578c37,-7 98,-5 138,-5 46,1 92,2 137,7 54,4 70,5 126,17 12,3 46,9 51,20 18,36 0,212 -8,261 -4,21 -4,43 -9,63 -9,37 -14,78 -26,118 -6,24 -28,90 -46,96 -16,6 -113,9 -134,8 -54,-3 -187,-35 -234,-51 -18,-7 -33,-13 -49,-23 -4,-3 -6,-6 -9,-8 -4,-4 -7,-4 -11,-8 -46,-43 1,-272 18,-336 11,-40 27,-98 44,-135 4,-9 8,-15 12,-24zm-433 -80c25,-2 95,3 114,9 4,7 -3,15 7,16 2,1 1,1 4,0 16,-2 76,-40 107,-16 31,23 38,66 20,110 -38,90 -140,101 -161,72 -7,-10 -3,-19 -3,-31 -10,1 -4,1 -14,-1 -2,11 -8,24 -11,36 -4,15 -6,26 -8,41 -9,55 -2,113 23,162 6,10 13,21 18,30 5,9 0,13 -1,20 -2,12 4,9 11,13 1,10 -12,47 -16,56 -21,50 -48,99 -93,128 -12,7 -36,18 -52,20 -21,2 -36,-9 -49,-24 -12,-13 -18,-31 -18,-54 0,-11 1,-66 9,-68 4,-1 3,-1 9,0 5,1 10,1 14,-1 0,-5 4,-4 -8,-9 -10,-4 -25,-15 -33,-21l-34 -40c-60,-64 -159,-128 -200,-196 -3,-5 -4,-7 -7,-12 -2,-5 -5,-8 -8,-11 1,-48 11,-71 35,-98 11,-13 22,-21 33,-33 8,-7 11,-10 21,-2 27,21 21,6 14,55 -8,51 -14,71 5,119 22,2 46,-4 69,-1 15,2 39,14 45,26 -1,7 -6,14 -8,22 -8,26 4,49 21,66 9,10 22,19 38,24 15,4 42,4 46,-11 -33,0 -72,-3 -86,-44 -10,-26 -1,-28 6,-49 12,-32 -17,-29 -23,-38 -2,-7 18,-12 29,-17 21,-9 39,-21 53,-39 8,-10 10,-17 15,-31 10,0 25,6 35,3 1,-10 -15,-16 -27,-22l-33 -13c-16,2 1,19 3,21 5,6 2,19 -1,26 -29,55 -173,79 -180,53 -7,-25 -2,-122 27,-125 10,-1 19,-3 23,-10 -8,-6 -32,-4 -54,-20 -25,-18 -13,-43 -5,-50 25,-18 48,2 69,10 7,2 10,2 15,3 6,2 15,14 19,19 59,52 148,20 176,-73zm-267 20c1,-5 0,-2 4,-6 3,-2 3,-2 6,-5 3,-4 6,-11 11,-12 2,4 3,15 -1,19 -3,5 -13,4 -20,4zm244 -46c-5,31 -8,49 -29,74 -13,15 -44,34 -75,27 -29,-6 -43,-26 -55,-48 -13,-24 -13,-58 -8,-89 9,-69 64,-136 134,-84 29,22 38,84 33,120zm-249 47c-2,5 -16,13 -22,20 -7,8 -7,20 -10,32 -13,2 -37,-30 -43,-49 -5,-15 -6,-24 -4,-43 3,-52 56,-110 88,-52 5,9 12,24 13,37 -9,-2 -13,-13 -26,-14 -25,-3 -28,30 -15,50 6,10 10,11 19,19zm50 -52c-3,-4 -11,-37 -15,-47 -6,-10 -7,-9 -4,-27 4,-37 25,-86 59,-101 24,-11 32,1 54,-3 15,-3 40,-13 54,-7 11,5 28,20 40,24 16,5 39,3 56,8 11,26 1,46 43,50 13,1 17,1 18,15 3,35 -16,72 26,64 11,-2 14,-6 28,-4 8,11 1,30 -6,42 -8,1 -11,-1 -16,-3 -20,-7 -67,-6 -92,-13 -18,-4 -18,-3 -21,-22 -9,-65 -49,-142 -122,-127 -50,10 -68,39 -85,83 -12,29 -13,61 -17,68zm29 -325c17,1 48,17 63,26 3,2 7,3 10,5 15,9 47,32 57,47 4,6 7,15 17,12 14,-7 2,-77 52,-74 20,30 -15,92 2,100 23,1 49,-39 95,-38 -1,22 -21,38 -33,53 -2,3 -5,6 -6,9 -2,4 -3,9 -1,11 26,12 84,-35 127,-12 -3,19 -46,32 -66,38 -10,3 -11,9 -3,14 17,9 52,8 68,11 16,3 26,7 35,16 22,20 30,49 -12,54 -11,2 -36,2 -41,12 5,13 37,15 37,39 0,11 -10,15 -19,17 -7,2 -26,6 -33,5 -4,-15 3,-39 -5,-53 -10,-17 -32,-7 -50,-8 -2,-32 16,-74 -35,-77 -10,-1 -11,0 -15,-8 -5,-10 -7,-23 -13,-34 -14,-21 -39,-1 -73,-20 -32,-19 -15,-19 -75,-19 -28,0 -61,2 -85,8 -24,7 -8,11 -58,-24 -15,-11 -99,-71 -105,-82 0,-1 1,-1 1,-1l3 -3c2,0 5,-1 7,-2 56,-10 169,61 197,43 3,-21 -41,-44 -43,-65zm-23 -11c-1,25 36,42 36,63 -19,-1 -72,-23 -93,-30 -32,-10 -76,-16 -104,3 -1,23 86,60 108,77 9,7 27,22 27,35 -27,4 -40,0 -71,7 -17,3 -45,15 -47,31 -13,0 -5,5 -17,7 -2,9 -4,9 -4,20 35,-5 76,-64 131,-50 2,12 -31,24 -35,47l2 2c0,0 1,0 1,0 15,6 16,-2 27,-12 6,-6 17,-21 29,-21 0,6 -11,37 -14,43 -6,13 -12,26 -20,36 -20,2 -30,-23 -74,7 -51,35 -63,125 -19,170 8,7 27,17 29,20 -2,16 -41,47 -55,65 -21,28 -20,61 -6,95 15,38 168,180 204,218 15,15 12,13 -3,37 -3,5 -9,12 -13,17 -10,11 -66,65 -78,72 -20,10 -56,13 -31,34 3,39 -62,67 -51,113 3,11 9,19 17,25 23,19 43,34 74,39l8 2c1,1 1,1 1,1 -4,15 -26,36 -38,46 -5,4 -11,6 -16,11 -3,17 10,45 18,54 22,25 49,23 54,37 1,4 3,10 4,15 9,45 7,117 28,155 7,13 23,25 34,39 10,13 19,28 26,47 5,10 15,52 11,62l-10 -5c-3,-3 -5,-5 -8,-8 -6,-6 -11,-10 -17,-14 -31,-19 -29,-3 -35,-29 -6,-23 -29,-77 -51,-77 -7,8 -7,17 -8,28 -12,0 -19,-8 -31,-7 -12,14 -13,31 -7,51 7,21 33,45 13,44 -3,0 -6,0 -9,-1 -41,-8 -83,-11 -125,-6 -43,6 -87,16 -121,35 -25,14 -47,32 -60,57 -5,11 -7,18 -3,33 10,41 32,65 71,85 42,21 76,26 120,35 31,6 112,10 145,10 47,0 86,-13 127,-29 24,-9 94,-36 121,-35 -1,17 -15,45 -18,61 -3,20 1,54 6,71 12,40 42,68 73,85 60,32 127,38 194,20 20,-6 41,-15 56,-25 16,-12 27,-23 37,-41 31,-54 7,-138 -29,-179 -26,-29 -50,-53 -79,-79 -15,-14 -24,-22 -33,-46 -10,-27 -17,-26 -40,-39 -5,-48 -3,-42 24,-50 24,-7 47,-16 70,-27 15,-7 31,-13 32,-33 1,-22 -8,-38 -8,-58 9,0 78,16 83,20 5,19 3,58 3,81 0,14 0,28 0,41 1,14 5,26 6,37 12,3 24,1 36,3 3,1 8,1 10,3 4,10 4,113 4,134 1,82 75,23 76,23 2,-4 -10,-160 -10,-167 -2,-24 -4,-119 14,-140 12,-12 126,-41 154,-46 26,-5 50,-9 76,-13l73 -11c1,0 1,-2 4,1 3,6 9,112 10,128 3,45 3,91 2,137 0,19 -8,48 8,56 13,6 44,-8 56,-10 15,-4 14,-4 19,-16 15,-47 -1,-109 -8,-156 -9,-55 -27,-131 22,-167 15,-12 25,-12 26,-43 1,-32 -20,-102 -6,-126 4,-6 14,-8 19,-15 4,-7 4,-26 1,-33 -4,-7 -17,-11 -25,-13 3,-52 122,-20 159,-16 47,5 111,-32 137,-66 34,-43 49,-92 30,-158 -10,-34 -38,-65 -67,-84 -5,-4 -10,-7 -16,-10 -4,-2 -5,-3 -8,-5 -6,-3 -5,-1 -8,-5 -11,-19 28,-96 11,-118 -19,-24 -75,-28 -93,-46 -9,-9 -3,-50 -2,-62 2,-20 13,-40 -3,-55 -22,-21 -66,-29 -94,-47 -28,-17 -61,-32 -96,-43 -48,-15 -96,-23 -147,-27 -9,0 -24,-1 -32,-2 -18,-4 -206,-2 -243,-1 -27,0 -20,2 -33,18 -4,4 -5,5 -7,10 -47,114 -73,251 -78,376 0,12 -3,94 2,102 14,27 81,58 108,68 67,24 153,41 233,46 3,7 -2,43 -6,48 -12,0 -226,-48 -258,-56l-65 -14c-4,0 -7,-1 -11,-2l-7 -2c-3,-2 -1,0 -3,-2 1,-17 17,-27 21,-39 -5,-14 -37,-23 -50,-33 -63,-49 -75,-133 -162,-155 -8,-2 -7,-3 -11,-10 -12,-20 -19,-34 -28,-57 -7,-20 -12,-49 -12,-73 -1,-14 1,-69 6,-78 13,-1 24,41 142,-14 14,-7 24,-20 31,-32 28,-45 35,-120 -11,-160 -7,-6 -12,-8 -18,-13 -1,-12 2,-23 -3,-33 -5,-9 -12,-11 -12,-25 15,-7 30,-7 44,-19 36,-32 -38,-75 -78,-83 -6,-1 -10,0 -12,-5 2,-4 13,-7 18,-9 6,-4 12,-7 17,-10 14,-10 18,-23 3,-32 -26,-17 -71,-4 -99,-3 2,-23 24,-28 21,-55 -12,-9 -33,-9 -49,-5 -8,2 -15,4 -22,8 -6,3 -14,8 -21,9 0,-19 -1,-35 -6,-51 -4,-13 -12,-29 -26,-31 -27,-6 -52,34 -61,52 -36,-3 -119,-92 -155,-65z"/>
   <path class="fil1" d="M702 496c15,-5 31,-2 41,-18 7,-10 5,-34 9,-48 4,-17 13,-20 35,-23 57,-7 70,57 39,100 -14,19 -31,28 -55,31 -7,1 -17,-1 -20,-6 2,-5 18,-11 30,-20 9,-6 19,-15 26,-24 27,-38 4,-83 -29,-59 -7,5 -5,8 -6,17 -6,36 -25,86 -73,62 0,-7 1,-8 3,-12zm-92 -124c-28,93 -117,125 -176,73 -4,-5 -13,-17 -19,-19 -5,-1 -8,-1 -15,-3 -21,-8 -44,-28 -69,-10 -8,7 -20,32 5,50 22,16 46,14 54,20 -4,7 -13,9 -23,10 -29,3 -34,100 -27,125 7,26 151,2 180,-53 3,-7 6,-20 1,-26 -2,-2 -19,-19 -3,-21l33 13c12,6 28,12 27,22 -10,3 -25,-3 -35,-3 -5,14 -7,21 -15,31 -14,18 -32,30 -53,39 -11,5 -31,10 -29,17 6,9 35,6 23,38 -7,21 -16,23 -6,49 14,41 53,44 86,44 -4,15 -31,15 -46,11 -16,-5 -29,-14 -38,-24 -17,-17 -29,-40 -21,-66 2,-8 7,-15 8,-22 -6,-12 -30,-24 -45,-26 -23,-3 -47,3 -69,1 -19,-48 -13,-68 -5,-119 7,-49 13,-34 -14,-55 -10,-8 -13,-5 -21,2 -11,12 -22,20 -33,33 -24,27 -34,50 -35,98 3,3 6,6 8,11 3,5 4,7 7,12 41,68 140,132 200,196l34 40c8,6 23,17 33,21 12,5 8,4 8,9 -4,2 -9,2 -14,1 -6,-1 -5,-1 -9,0 -8,2 -9,57 -9,68 0,23 6,41 18,54 13,15 28,26 49,24 16,-2 40,-13 52,-20 45,-29 72,-78 93,-128 4,-9 17,-46 16,-56 -7,-4 -13,-1 -11,-13 1,-7 6,-11 1,-20 -5,-9 -12,-20 -18,-30 -25,-49 -32,-107 -23,-162 2,-15 4,-26 8,-41 3,-12 9,-25 11,-36 10,2 4,2 14,1 0,12 -4,21 3,31 21,29 123,18 161,-72 18,-44 11,-87 -20,-110 -31,-24 -91,14 -107,16 -3,1 -2,1 -4,0 -10,-1 -3,-9 -7,-16 -19,-6 -89,-11 -114,-9z"/>
   <path class="fil1" d="M1071 859l1 28c5,1 8,-1 13,-1 6,6 -2,1 10,12 7,6 8,16 22,24 6,3 12,4 17,7 -1,22 -28,9 -37,1 -5,-4 -10,-11 -12,-17 -9,-19 -10,-7 -13,-3 -22,1 -15,-50 -1,-51zm-29 29c-6,-19 8,-70 22,-73 2,14 -6,46 -11,60 -3,9 -3,13 -11,13zm-15 -29c-2,-3 -2,-4 -1,-12 0,-4 1,-8 1,-12 2,-7 4,-14 6,-20 3,-7 5,-13 8,-19 5,-8 7,-12 14,-14 0,9 -15,50 -21,71 -1,6 0,6 -7,6zm-15 -34c-5,-8 42,-100 48,-102 5,7 -32,67 -40,91 -2,8 0,12 -8,11zm56 -149l-43 80c-4,7 -11,22 -16,25 0,-18 16,-47 23,-60 5,-10 27,-43 34,-47 2,-5 0,-2 4,-6 1,1 3,-3 2,4 -2,6 -2,2 -4,4zm-51 -22c6,-2 8,-7 14,-15 25,-31 -1,-6 22,-35 5,-5 10,-11 13,-16 12,-14 43,-55 60,-56 -1,7 -12,13 -17,17 -3,9 10,1 -9,22 -31,34 -74,81 -90,125 -1,4 -3,6 -2,10 0,3 0,2 1,4 4,-3 65,-109 92,-112 -1,5 -19,27 -24,33l-19 24c-4,6 -1,6 -4,10 -2,4 -3,1 -6,8 -7,13 -5,2 -10,11 -6,9 -12,12 -22,29 -1,2 -3,7 -5,9 -3,4 -5,3 -9,7 -4,45 -8,94 -9,141 -1,39 -6,46 14,60 21,15 56,25 82,31 10,3 21,5 30,8 45,11 154,26 200,25 64,-1 72,-11 81,-69 1,-11 4,-22 6,-32 1,-11 2,-22 4,-33l14 -99c4,-30 11,-67 14,-99 2,-28 11,-118 8,-141 -13,-8 -24,-9 -41,-10l-93 -11c-17,-2 -32,-3 -48,-5 -36,-4 -172,-15 -201,-10 -14,20 -46,136 -46,169z"/>
   <path class="fil1" d="M456 988c-2,-1 -1,1 -3,-2l-5 3c-1,3 -21,70 -21,70 -2,3 -3,2 -6,6l-36 87c-4,10 -9,22 -15,31 -7,11 -37,40 -37,52l49 18c80,33 156,80 239,98 32,7 90,-3 116,-14 34,-14 56,-31 76,-58 7,-9 8,-14 6,-28 -1,-10 -1,-19 -4,-29 -4,-18 -7,-35 -13,-52 -5,-17 -15,-46 -25,-60 -11,-18 -3,-13 -8,-42 -3,-19 -7,-41 -7,-61 1,-15 3,-13 9,-24 3,-7 1,-19 10,-23 7,11 2,97 13,119 0,0 73,-32 82,-54 6,-12 18,-5 35,-19 3,-3 10,-10 11,-16 -5,-5 -17,-11 -24,-15 -11,-7 -15,-9 -23,-17 -31,-31 -66,-87 -98,-122 -4,-5 -6,-7 -12,-7 -1,2 -4,31 -5,37 -1,9 -4,23 -7,32 -7,22 -13,38 -22,60 -28,67 -93,144 -176,149 -12,0 -29,1 -39,-3 -25,-11 -37,-32 -43,-57 -1,-5 -4,-12 -1,-17 7,20 14,32 30,44 53,40 116,-8 151,-42 25,-25 45,-57 61,-88 11,-21 41,-98 31,-116 -4,2 -3,2 -5,7l-6 24c-2,10 -7,22 -10,31 -20,57 -49,112 -103,143 -14,8 -45,21 -65,19 -48,-6 -80,-30 -83,-80 -1,-9 -3,-76 -4,-78 -1,1 -1,1 -1,1l-1 2c-6,17 -4,86 -3,101 -5,-2 -6,-5 -8,-10z"/>
   <path class="fil1" d="M1369 1245c0,3 0,2 2,3 11,0 100,-38 121,-20 1,9 -2,9 -9,12 -10,5 -35,8 -49,12 -112,30 -213,55 -324,92 -22,7 -46,8 -48,34 -3,22 5,45 0,61 -1,2 -2,5 -3,7 -4,4 -3,3 -8,3 -10,-27 -3,-50 -4,-79 -1,-19 -2,-18 -10,-18 -7,19 11,105 -5,115 -5,-3 -2,1 -4,-6l-5 -21c-2,-10 -3,-19 -3,-30 -1,-10 -2,-58 -4,-63 -7,-14 -157,-61 -176,-59 -1,13 21,155 25,162l78 21c11,3 18,3 30,4 56,5 48,7 49,83 1,21 1,41 4,61 4,26 2,170 16,180 3,3 22,4 23,0 0,0 0,-1 1,-1l-10 -128c-4,-39 -5,-93 0,-132 2,-17 4,-42 21,-50 15,-7 33,-14 49,-19 60,-18 188,-37 262,-52 10,-2 19,-7 27,-1 29,24 21,149 21,185 -1,15 -6,133 2,134l17 -2c7,-2 11,-4 16,-7 4,-32 -3,-172 -8,-209l-7 -101c0,-11 9,-15 17,-19 24,-11 31,-2 35,-36 4,-38 -12,-103 -7,-134 7,-5 14,-6 20,-14 17,-20 -32,-37 -59,-10 -8,7 -85,41 -93,42z"/>
   <path class="fil1" d="M769 1342c-60,31 -121,41 -187,21 -42,-12 -73,-27 -106,-46 -25,-15 -70,-48 -100,-50 -1,10 9,64 12,78 7,38 21,106 50,130 3,4 10,7 16,7 10,0 8,-7 8,-16 0,-14 -2,-31 0,-44 6,6 9,48 21,63 11,16 46,16 65,8 4,-22 -6,-20 -15,-21 -8,-2 -19,-5 -26,-9 -5,-4 -4,-6 -4,-8 1,-9 15,4 41,4 7,-24 -3,-15 -22,-21 -8,-2 -13,-4 -13,-14 4,0 33,6 41,8 12,2 35,0 44,4 -1,4 -1,2 -7,3 -3,1 -6,1 -9,1 -7,1 -14,1 -21,1 1,11 11,17 20,19 2,0 4,1 5,1l5 2 -18 8c-1,29 23,45 48,51 15,4 77,9 93,5 2,-18 0,-27 -2,-43 -1,-4 -1,-9 1,-12 4,7 13,50 17,57 23,2 53,-6 69,-13 18,-7 34,-19 49,-31 0,-3 0,-11 0,-13 -1,-9 -2,-3 -4,-9 -1,-2 -4,-17 -4,-21 -1,-8 0,-14 -2,-22 -2,-7 -3,-13 -4,-21l-13 -85c-7,1 -17,10 -24,15 -8,4 -16,9 -24,13z"/>
   <path class="fil1" d="M1524 990c-3,6 -6,10 -14,9 -1,-3 -1,-8 0,-12 1,-3 0,-1 2,-3 -1,-12 11,-60 16,-76 2,-9 2,-8 5,-10 11,18 5,53 -1,73 -2,7 -6,12 -8,19zm19 4c-7,0 -13,-3 -12,-11 1,-7 12,-12 17,-47 3,-21 4,-60 16,-72 4,5 3,10 4,17 0,30 -8,95 -25,113zm26 2c-15,-5 -3,-59 0,-73l11 -53c2,-9 0,-13 9,-15 2,18 -5,91 -9,112 -3,11 -4,25 -11,29zm-123 34c12,3 89,-1 101,-3 22,-6 26,3 35,-19 14,-36 27,-88 31,-128 1,-9 2,-15 3,-24 0,-17 3,-9 5,-20l13 -93c2,-16 5,-32 6,-48 2,-33 6,-65 8,-98 1,-29 3,-26 -16,-38 -21,-13 -71,-43 -95,-51 -9,-3 -9,-1 -10,0 -2,5 -6,127 -7,144 -4,59 -11,147 -23,204 -2,10 -5,22 -7,32 -6,28 -15,61 -25,88 -4,12 -19,47 -19,54z"/>
   <path class="fil1" d="M1056 1225c1,-5 4,-5 10,-7 43,-11 65,34 41,54 -19,16 -59,15 -43,-29 7,-20 2,-12 -8,-18zm198 -87c1,15 1,9 12,16 23,14 18,33 -16,42 -15,5 -33,-6 -35,-18 -2,-15 10,-31 15,-41l24 1zm-99 -22c11,-3 14,4 22,10 15,10 30,18 17,38 -12,17 -60,30 -62,-3 0,-11 4,-20 6,-28 6,-14 2,-13 17,-17zm-68 -3c34,33 -27,79 -44,41 -4,-10 0,-19 3,-28 7,-19 -6,-12 -10,-20 4,-6 21,-5 28,-3 8,1 17,5 23,10zm-97 -37c16,-7 30,9 38,20 9,14 -8,31 -18,36 -50,22 -45,-44 -20,-56zm-128 142l-5 3c-5,1 -10,1 -15,3 0,7 2,9 2,16 2,5 4,5 11,7 31,12 198,70 201,68 9,-7 6,-7 19,-13 50,-24 101,-48 153,-70 30,-13 59,-25 88,-38l67 -30c13,-5 19,-5 19,-12 -4,-2 -148,-26 -186,-37 -18,-6 -37,-13 -54,-18 -20,-5 -41,-10 -60,-15 -21,-5 -40,-10 -59,-15 -24,-6 -103,-26 -124,-23 0,16 23,41 30,52 19,29 11,44 9,66l22 13c31,20 29,0 46,22 24,32 8,61 -17,60 -21,-1 -24,-22 -25,-42 -13,-1 -26,8 -40,9 -18,1 -20,-10 -25,-22 -16,0 -42,15 -57,16z"/>
   <path class="fil1" d="M480 42c-15,-9 -46,-25 -63,-26 2,21 46,44 43,65 -28,18 -141,-53 -197,-43 -2,1 -5,2 -7,2l-3 3c0,0 -1,0 -1,1 6,11 90,71 105,82 50,35 34,31 58,24 24,-6 57,-8 85,-8 60,0 43,0 75,19 34,19 59,-1 73,20 6,11 8,24 13,34 4,8 5,7 15,8 51,3 33,45 35,77 18,1 40,-9 50,8 8,14 1,38 5,53 7,1 26,-3 33,-5 9,-2 19,-6 19,-17 0,-24 -32,-26 -37,-39 5,-10 30,-10 41,-12 42,-5 34,-34 12,-54 -9,-9 -19,-13 -35,-16 -16,-3 -51,-2 -68,-11 -8,-5 -7,-11 3,-14 20,-6 63,-19 66,-38 -43,-23 -101,24 -127,12 -2,-2 -1,-7 1,-11 1,-3 4,-6 6,-9 12,-15 32,-31 33,-53 -46,-1 -72,39 -95,38 -17,-8 18,-70 -2,-100 -50,-3 -38,67 -52,74 -10,3 -13,-6 -17,-12 -10,-15 -42,-38 -57,-47 -3,-2 -7,-3 -10,-5z"/>
   <path class="fil1" d="M1046 468c44,-15 253,9 327,19 28,4 75,12 97,22 3,56 -15,221 -24,281 -3,14 -4,30 -7,44l-14 87c-4,22 -12,61 -23,78 -8,13 -19,13 -38,15 -55,4 -131,-4 -185,-16 -29,-7 -55,-11 -83,-19 -28,-7 -54,-14 -80,-21 -13,-4 -30,-6 -35,-16 -30,-55 13,-343 41,-398 4,-7 6,-8 8,-17l13 -39c4,-12 4,-9 3,-20zm-3 -16c-4,9 -8,15 -12,24 -17,37 -33,95 -44,135 -17,64 -64,293 -18,336 4,4 7,4 11,8 3,2 5,5 9,8 16,10 31,16 49,23 47,16 180,48 234,51 21,1 118,-2 134,-8 18,-6 40,-72 46,-96 12,-40 17,-81 26,-118 5,-20 5,-42 9,-63 8,-49 26,-225 8,-261 -5,-11 -39,-17 -51,-20 -56,-12 -72,-13 -126,-17 -45,-5 -91,-6 -137,-7 -40,0 -101,-2 -138,5z"/>
   <path class="fil0" d="M1017 654c0,-33 32,-149 46,-169 29,-5 165,6 201,10 16,2 31,3 48,5l93 11c17,1 28,2 41,10 3,23 -6,113 -8,141 -3,32 -10,69 -14,99l-14 99c-2,11 -3,22 -4,33 -2,10 -5,21 -6,32 -9,58 -17,68 -81,69 -46,1 -155,-14 -200,-25 -9,-3 -20,-5 -30,-8 -26,-6 -61,-16 -82,-31 -20,-14 -15,-21 -14,-60 1,-47 5,-96 9,-141 4,-4 6,-3 9,-7 2,-2 4,-7 5,-9 10,-17 16,-20 22,-29 5,-9 3,2 10,-11 3,-7 4,-4 6,-8 3,-4 0,-4 4,-10l19 -24c5,-6 23,-28 24,-33 -27,3 -88,109 -92,112 -1,-2 -1,-1 -1,-4 -1,-4 1,-6 2,-10 16,-44 59,-91 90,-125 19,-21 6,-13 9,-22 5,-4 16,-10 17,-17 -17,1 -48,42 -60,56 -3,5 -8,11 -13,16 -23,29 3,4 -22,35 -6,8 -8,13 -14,15zm385 345c11,-17 19,-56 23,-78l14 -87c3,-14 4,-30 7,-44 9,-60 27,-225 24,-281 -22,-10 -69,-18 -97,-22 -74,-10 -283,-34 -327,-19 1,11 1,8 -3,20l-13 39c-2,9 -4,10 -8,17 -28,55 -71,343 -41,398 5,10 22,12 35,16 26,7 52,14 80,21 28,8 54,12 83,19 54,12 130,20 185,16 19,-2 30,-2 38,-15z"/>
   <path class="fil1" d="M313 1656c-4,-6 -3,-12 -9,-16 -11,-7 -44,-9 -59,-10 -63,-1 -56,-4 -38,28 3,6 6,10 9,16 9,18 12,7 23,47 18,65 20,86 106,73 50,-8 95,-24 137,-50 12,-8 14,-7 7,-32 -8,-25 5,-21 10,-33 -7,-11 -61,-47 -78,-55 -16,-7 -15,9 -26,-2 -4,-4 0,-3 -7,-5 -4,8 2,16 -7,24 -9,-1 -13,-11 -16,-16 -14,-1 -14,3 -15,15 -13,1 -14,-2 -27,17l-10 -1z"/>
   <path class="fil1" d="M177 1635c-19,-1 -70,18 -85,26 -56,27 -93,79 -40,132 37,36 111,50 162,58 40,6 28,5 36,-14 11,-31 -13,-81 -23,-112 -7,-21 -5,-11 -9,-18 -4,-6 -6,-13 -10,-19 -12,-19 -23,-31 -31,-53z"/>
   <path class="fil1" d="M620 1979c11,42 116,61 162,60 35,0 64,-10 87,-26 5,-4 29,-21 30,-25 5,-21 -48,-79 -70,-95 -8,-6 -28,-14 -39,-16 -110,-23 -173,92 -170,102z"/>
   <path class="fil1" d="M731 1783c-11,-3 -33,-3 -39,-13 -5,-9 8,-28 9,-41 -45,-1 -125,129 -73,159 7,5 23,8 31,3 4,-2 7,-6 11,-9 48,-34 106,-38 159,-10 9,5 14,8 23,14 7,4 16,13 22,15 13,0 34,-51 32,-61 -2,-18 -69,-84 -85,-101 -8,-8 -15,-14 -23,-24 -5,-4 -18,-21 -23,-22 -3,3 -9,20 -12,26 -5,12 -6,17 -5,34 5,2 23,3 18,13 -2,4 -26,15 -28,28 -1,9 4,3 2,12 -2,7 -11,11 -12,11 -14,-7 -8,-21 -7,-34z"/>
   <path class="fil1" d="M517 298c40,-17 71,71 24,86 -49,15 -62,-69 -24,-86zm70 48c5,-36 -4,-98 -33,-120 -70,-52 -125,15 -134,84 -5,31 -5,65 8,89 12,22 26,42 55,48 31,7 62,-12 75,-27 21,-25 24,-43 29,-74z"/>
   <path class="fil1" d="M388 341c4,-7 5,-39 17,-68 17,-44 35,-73 85,-83 73,-15 113,62 122,127 3,19 3,18 21,22 25,7 72,6 92,13 5,2 8,4 16,3 7,-12 14,-31 6,-42 -14,-2 -17,2 -28,4 -42,8 -23,-29 -26,-64 -1,-14 -5,-14 -18,-15 -42,-4 -32,-24 -43,-50 -17,-5 -40,-3 -56,-8 -12,-4 -29,-19 -40,-24 -14,-6 -39,4 -54,7 -22,4 -30,-8 -54,3 -34,15 -55,64 -59,101 -3,18 -2,17 4,27 4,10 12,43 15,47z"/>
   <path class="fil1" d="M686 1662c2,-6 11,-4 18,-4l-1 -25c0,-8 -3,-20 -6,-27 -14,-4 -31,-4 -46,-7 -33,-7 -104,-32 -129,-30 -2,12 -4,75 -1,83 29,15 67,41 83,71 3,5 6,12 8,18 1,6 2,16 4,21 7,-1 18,-12 25,-18 8,-7 16,-13 24,-19 10,-9 14,-9 16,-27 0,-6 1,-35 5,-36z"/>
   <path class="fil1" d="M269 1857c25,4 80,1 102,-4 7,-2 16,-3 23,-5 30,-7 67,-28 92,-44 20,-13 15,-12 43,-12 18,1 34,1 45,-9 9,-7 14,-25 11,-40 -5,-1 -85,8 -87,9 -4,2 -11,6 -15,9l-49 23c-12,4 -22,8 -36,12 -60,16 -70,16 -129,13l0 48z"/>
   <path class="fil1" d="M894 1051c-18,-1 -68,33 -80,41 -29,21 -2,15 17,20 9,3 23,10 30,16 5,3 5,2 4,9 -21,2 -38,-8 -55,-12 -2,12 21,75 27,86 16,1 42,-15 54,-22 74,-43 47,-84 3,-138z"/>
   <path class="fil1" d="M380 1135l1 -4 -3 0c-7,2 -7,4 -15,5 1,-18 24,-32 24,-48 -11,-1 -17,0 -27,-3l-17 -5c-4,-3 -2,-2 -3,-4 12,-9 50,-6 57,-10 7,-6 -6,-13 -12,-17 -10,-7 -47,-41 -58,-35 -11,13 -25,32 -34,47 -9,16 -22,40 -13,62 10,24 51,41 84,35 9,-2 16,-19 16,-23z"/>
   <path class="fil1" d="M1815 921c-1,-3 -2,-3 -4,-7 -2,-5 0,-3 -4,-7 -10,-9 -33,-56 -60,-54 -2,6 -3,11 -2,17l14 7c32,19 56,53 58,92 4,73 -49,132 -107,150 -32,10 -40,6 -72,-1 -27,-5 -127,-23 -124,30 7,-1 23,-12 33,-15 44,-14 55,8 116,10 67,3 98,-15 132,-51 17,-18 25,-33 34,-59 10,-26 7,-53 0,-79 -4,-13 -7,-23 -14,-33z"/>
   <path class="fil1" d="M338 393c-9,-8 -13,-9 -19,-19 -13,-20 -10,-53 15,-50 13,1 17,12 26,14 -1,-13 -8,-28 -13,-37 -32,-58 -85,0 -88,52 -2,19 -1,28 4,43 6,19 30,51 43,49 3,-12 3,-24 10,-32 6,-7 20,-15 22,-20z"/>
   <path class="fil1" d="M324 987c2,4 11,6 15,8 21,11 61,47 68,46 31,-4 25,-82 29,-105 5,-28 15,-1 18,-28 0,-7 0,-15 0,-22 1,-10 4,-9 3,-19 -25,2 -67,83 -113,109 -14,8 -19,4 -20,11z"/>
   <path class="fil1" d="M1106 1316c19,-1 75,-19 97,-25 31,-9 61,-20 90,-32 44,-18 84,-35 124,-59 27,-16 28,-15 28,-33 -3,-3 -4,-4 -8,-5 -2,-1 -6,-2 -9,-2 -6,7 -5,9 -14,15 -6,5 -13,8 -19,11l-83 37c-15,6 -29,12 -42,17 -61,25 -101,45 -156,69 -5,2 -6,2 -8,7z"/>
   <path class="fil0" d="M702 496c-2,4 -3,5 -3,12 48,24 67,-26 73,-62 1,-9 -1,-12 6,-17 33,-24 56,21 29,59 -7,9 -17,18 -26,24 -12,9 -28,15 -30,20 3,5 13,7 20,6 24,-3 41,-12 55,-31 31,-43 18,-107 -39,-100 -22,3 -31,6 -35,23 -4,14 -2,38 -9,48 -10,16 -26,13 -41,18z"/>
   <path class="fil1" d="M1737 724c-6,-4 -14,-10 -25,-10 1,6 2,4 3,11 1,18 -7,65 -10,81 -3,22 -11,68 -19,85 -9,1 -8,0 -11,-5 -3,4 -8,19 -9,25 -4,12 -1,6 -10,8 -6,2 -3,5 -5,13l-13 -5c-1,-5 -1,-10 0,-15 0,-15 1,-12 -3,-16l-6 38c13,8 61,6 72,-2 5,-5 7,-24 9,-33 9,-40 32,-139 27,-175z"/>
   <path class="fil1" d="M619 1578c18,4 72,10 88,2l2 -34c-13,-7 -48,-9 -65,-12l-69 -8c0,29 18,46 44,52z"/>
   <path class="fil0" d="M517 298c-38,17 -25,101 24,86 47,-15 16,-103 -24,-86z"/>
   <path class="fil1" d="M721 1580c12,1 59,-13 70,-17 20,-7 43,-17 59,-28 2,-6 6,-34 -8,-25 -1,1 -4,3 -5,5 -11,8 -27,18 -39,22 -29,9 -58,5 -73,9 -4,8 -5,22 -4,34z"/>
   <path class="fil1" d="M482 1503c-4,9 -4,17 -3,28 9,6 55,26 71,18 4,-8 1,-29 0,-38 -10,-3 -57,-9 -68,-8z"/>
   <path class="fil0" d="M1178 1151c-6,8 -40,26 -29,-3 10,-26 38,-8 29,3zm-23 -35c-15,4 -11,3 -17,17 -2,8 -6,17 -6,28 2,33 50,20 62,3 13,-20 -2,-28 -17,-38 -8,-6 -11,-13 -22,-10z"/>
   <path class="fil1" d="M1311 1095c0,21 56,6 70,5 -1,15 -14,13 -15,22 5,2 40,10 46,9 1,-12 1,-21 1,-32l2 -24c-1,-16 -20,-6 -24,4 -5,11 -1,14 -16,17 -21,4 -45,-2 -64,-1z"/>
   <path class="fil0" d="M1100 1257c-12,20 -33,7 -23,-9 13,-20 34,-9 23,9zm-44 -32c10,6 15,-2 8,18 -16,44 24,45 43,29 24,-20 2,-65 -41,-54 -6,2 -9,2 -10,7z"/>
   <path class="fil0" d="M1260 1175c-11,10 -40,7 -29,-11 10,-15 29,-5 29,11zm-6 -37l-24 -1c-5,10 -17,26 -15,41 2,12 20,23 35,18 34,-9 39,-28 16,-42 -11,-7 -11,-1 -12,-16z"/>
   <path class="fil0" d="M994 1095c10,-5 32,11 8,23 -25,13 -17,-18 -8,-23zm-4 -19c-25,12 -30,78 20,56 10,-5 27,-22 18,-36 -8,-11 -22,-27 -38,-20z"/>
   <path class="fil1" d="M575 1719c-3,-14 -49,-52 -66,-52 -2,8 17,40 21,63 13,2 37,-4 45,-11z"/>
   <path class="fil0" d="M1062 1117c27,0 26,27 9,36 -9,4 -19,-1 -18,-12 2,-11 6,-16 9,-24zm-26 -11c4,8 17,1 10,20 -3,9 -7,18 -3,28 17,38 78,-8 44,-41 -6,-5 -15,-9 -23,-10 -7,-2 -24,-3 -28,3z"/>
   <path class="fil0" d="M1569 996c7,-4 8,-18 11,-29 4,-21 11,-94 9,-112 -9,2 -7,6 -9,15l-11 53c-3,14 -15,68 0,73z"/>
   <path class="fil0" d="M1071 859c-14,1 -21,52 1,51 3,-4 4,-16 13,3 2,6 7,13 12,17 9,8 36,21 37,-1 -5,-3 -11,-4 -17,-7 -14,-8 -15,-18 -22,-24 -12,-11 -4,-6 -10,-12 -5,0 -8,2 -13,1l-1 -28z"/>
   <path class="fil0" d="M1543 994c17,-18 25,-83 25,-113 -1,-7 0,-12 -4,-17 -12,12 -13,51 -16,72 -5,35 -16,40 -17,47 -1,8 5,11 12,11z"/>
   <path class="fil1" d="M889 1916c-1,9 8,20 12,26l12 26c7,-2 11,-34 12,-42 1,-9 6,-42 -8,-45 -7,5 -8,20 -28,35z"/>
   <path class="fil1" d="M597 1946c9,-1 17,-10 22,-15 5,-5 14,-14 14,-21 -9,-7 -12,-6 -21,-16 -7,-9 -10,-18 -17,-18 -6,21 -3,52 2,70z"/>
   <path class="fil1" d="M498 1622c0,-7 2,-6 7,-10l-3 -47c-3,-2 -21,-9 -25,-10 -2,10 5,55 9,67 2,6 3,14 10,16 2,-6 1,-10 2,-16z"/>
   <path class="fil0" d="M1512 984l0 13c8,-1 4,-2 12,-7 2,-7 6,-12 8,-19 6,-20 12,-55 1,-73 -3,2 -3,1 -5,10 -5,16 -17,64 -16,76z"/>
   <path class="fil1" d="M327 1549c-13,22 3,58 10,65 7,0 5,-1 8,-5 5,-6 2,-2 9,-6 1,-11 -3,-25 -7,-34 -4,-11 -6,-21 -20,-20z"/>
   <path class="fil1" d="M357 1261c-8,-4 -30,-9 -42,-9 1,23 37,50 47,50 2,-10 -4,-28 -5,-41z"/>
   <path class="fil2" d="M1673 873c9,0 10,-5 12,-13 1,-7 3,-14 3,-21 1,-16 2,-30 2,-46 1,-21 0,-48 6,-68 3,-8 6,-9 7,-18 -5,-1 -5,-3 -11,-2 -2,5 -3,36 -4,43 -2,31 -15,113 -15,125z"/>
   <path class="fil1" d="M741 1748c-7,-2 -6,-1 -12,-6 -12,-10 -25,4 -24,19 0,17 39,10 44,0 -8,-6 -3,4 -8,-13z"/>
   <path class="fil0" d="M1068 676l0 -3 -2 1c-7,4 -29,37 -34,47 -7,13 -23,42 -23,60 5,-3 12,-18 16,-25l43 -80z"/>
   <path class="fil0" d="M1042 888c8,0 8,-4 11,-13 5,-14 13,-46 11,-60 -14,3 -28,54 -22,73z"/>
   <path class="fil1" d="M1062 1117c-3,8 -7,13 -9,24 -1,11 9,16 18,12 17,-9 18,-36 -9,-36z"/>
   <path class="fil0" d="M1027 859c7,0 6,0 7,-6 6,-21 21,-62 21,-71 -7,2 -9,6 -14,14 -3,6 -5,12 -8,19 -2,6 -4,13 -6,20 0,4 -1,8 -1,12 -1,8 -1,9 1,12z"/>
   <path class="fil1" d="M462 1497c-4,-3 -34,-17 -40,-16 2,12 33,41 41,41l-1 -25z"/>
   <path class="fil1" d="M970 1197c4,-8 -5,-19 -11,-19 -19,1 -33,38 -9,30 6,-1 16,-6 20,-11z"/>
   <path class="fil0" d="M1012 825c8,1 6,-3 8,-11 8,-24 45,-84 40,-91 -6,2 -53,94 -48,102z"/>
   <path class="fil1" d="M364 1539c-3,10 1,-6 -1,3 -1,7 2,26 5,34 1,5 4,9 7,14 4,7 4,9 12,8 0,-14 -15,-57 -21,-61 -1,0 -1,1 -1,1 0,0 -1,1 -1,1z"/>
   <path class="fil1" d="M1178 1151c9,-11 -19,-29 -29,-3 -11,29 23,11 29,3z"/>
   <path class="fil1" d="M1003 1242c20,0 24,-21 12,-33 -8,-7 -13,4 -15,10 -4,11 -2,17 3,23z"/>
   <path class="fil1" d="M1100 1257c11,-18 -10,-29 -23,-9 -10,16 11,29 23,9z"/>
   <path class="fil1" d="M1260 1175c0,-16 -19,-26 -29,-11 -11,18 18,21 29,11z"/>
   <path class="fil1" d="M994 1095c-9,5 -17,36 8,23 24,-12 2,-28 -8,-23z"/>
   <polygon class="fil1" points="721,1638 732,1635 732,1603 718,1603 "/>
   <path class="fil1" d="M343 392c7,0 17,1 20,-4 4,-4 3,-15 1,-19 -5,1 -8,8 -11,12 -3,3 -3,3 -6,5 -4,4 -3,1 -4,6z"/>
   <path class="fil3" d="M1371 1248c-2,-1 -2,0 -2,-3 -9,2 -19,8 -38,12 -13,2 -9,3 -11,5 6,4 8,1 14,-1l36 -12c0,-1 0,-1 1,-1z"/>
   <path class="fil4" d="M718 1603l14 0 0 32 -11 3 -3 -35zm-2 -1c-1,9 1,29 3,38 5,0 11,-1 15,-4l0 -35 -18 1z"/>
   <path class="fil1" d="M750 1699c9,-4 9,-20 8,-31 -6,1 -8,4 -9,11 0,6 0,14 1,20z"/>
   <path class="fil1" d="M512 1696c-7,0 -9,2 -9,9 -1,6 0,10 4,13 9,-2 7,-15 5,-22z"/>
   <path class="fil4" d="M1663 720c4,-6 5,-18 5,-27 -8,2 -6,4 -7,13 -1,9 -2,11 2,14z"/>
   <path class="fil5" d="M686 1662c8,-3 14,-1 20,-3 1,-6 0,-9 0,-14 -1,-10 1,-7 -3,-12l1 25c-7,0 -16,-2 -18,4z"/>
   <path class="fil3" d="M844 1240c0,-7 -2,-9 -2,-16 5,-2 10,-2 15,-3l5 -3 -21 4c-1,2 -1,-3 -2,4l3 10c2,5 1,2 2,4z"/>
   <path class="fil3" d="M1524 990c-8,5 -4,6 -12,7l0 -13c-2,2 -1,0 -2,3 -1,4 -1,9 0,12 8,1 11,-3 14,-9z"/>
   <path class="fil2" d="M1356 1078c1,1 1,1 3,2 9,4 10,-2 10,-2 0,0 -1,-5 -11,-2 0,0 -1,1 -1,1 0,0 0,0 -1,1z"/>
   <path class="fil4" d="M738 1723c4,-1 5,-4 5,-8 -6,0 -8,2 -5,8z"/>
   <path class="fil4" d="M708 1687c5,-1 4,-4 5,-8 -6,1 -7,2 -5,8z"/>
   <path class="fil3" d="M1066 674l2 -1 0 3c2,-2 2,2 4,-4 1,-7 -1,-3 -2,-4 -4,4 -2,1 -4,6z"/>
   <path class="fil5" d="M1659 732c2,-1 4,0 4,-4 -1,-4 -2,-2 -5,-2l1 6z"/>
   <path class="fil3" d="M380 1135c4,-2 1,1 3,-2 2,-2 1,-1 1,-3 -10,-3 -5,0 -6,1l3 0 -1 4z"/>
   <path class="fil3" d="M448 989l5 -3c2,3 1,1 3,2l-3 -5c-5,2 -4,1 -5,6z"/>
  </g>
 </g>
</svg>
