<svg xmlns="http://www.w3.org/2000/svg" aria-hidden="true" style="position:absolute;width:0;height:0;overflow:hidden">
  <defs>
    <symbol id="icon-telegram-alt-svgrepo-com" viewBox="0 0 32 32">
      <path d="m25.6 5.867-21.733 8.4C2.4 14.8 2.4 15.734 3.6 16l5.467 1.733 2.133 6.4c.267.667.133.933.8.933.533 0 .8-.267 1.067-.533l2.667-2.667 5.6 4.133c1.067.533 1.733.267 2-.933l3.733-17.467c.4-1.467-.533-2.267-1.467-1.733zm-2.8 4-10.4 9.467-.4 4.4-2.133-6.4 12.267-7.733c.533-.4 1.067-.133.667.267z"/>
    </symbol>
    <symbol id="icon-whatsapp-svgrepo-com" viewBox="0 0 32 32">
      <path d="M22.84 18.98c-.38-.18-2.2-1.08-2.54-1.22s-.58-.18-.84.2-.96 1.2-1.18 1.46-.42.28-.8 0a10.302 10.302 0 0 1-2.991-1.849l.011.009a10.588 10.588 0 0 1-1.973-2.527L12.5 15c-.22-.36 0-.56.16-.76s.36-.42.56-.64a2.72 2.72 0 0 0 .353-.602l.007-.018a.76.76 0 0 0-.002-.664l.002.004c0-.18-.84-2-1.16-2.74s-.6-.64-.82-.64h-.8a1.435 1.435 0 0 0-.999.459L9.8 9.4a4.188 4.188 0 0 0-1.299 3.104v-.003a7.152 7.152 0 0 0 1.512 3.915l-.012-.015a16.76 16.76 0 0 0 6.285 5.556l.095.044c.88.38 1.56.6 2.1.78a5.108 5.108 0 0 0 2.371.135l-.031.005a3.876 3.876 0 0 0 2.511-1.744l.009-.016c.161-.378.255-.818.255-1.279 0-.17-.013-.336-.037-.499l.002.018c-.1-.14-.34-.24-.72-.42z"/>
      <path d="M26.58 5.36A14.676 14.676 0 0 0 16.123.999L15.994 1h.007C7.817 1.044 1.199 7.689 1.199 15.88c0 2.731.736 5.291 2.02 7.491l-.038-.071-2 7.7 7.88-2c2.043 1.133 4.481 1.8 7.074 1.8h.027-.161.097c8.218 0 14.88-6.662 14.88-14.88 0-4.128-1.681-7.864-4.396-10.559l-.001-.001zM16 28.24h-.01c-2.323 0-4.494-.647-6.345-1.771l.054.031-.44-.26-4.68 1.22 1.24-4.56-.28-.46a12.235 12.235 0 0 1-1.86-6.52c0-6.826 5.534-12.36 12.36-12.36 3.393 0 6.467 1.367 8.701 3.581l-.001-.001a12.203 12.203 0 0 1 3.62 8.69v.053-.003C28.348 22.702 22.821 28.229 16 28.24h-.001z"/>
    </symbol>
    <symbol id="icon-viber-svgrepo-com" viewBox="0 0 32 32">
      <path d="M16.991 17.94s.475.04.729-.275l.499-.627c.24-.309.819-.507 1.387-.192.487.279.891.541 1.281.821l-.044-.03c.376.276 1.147.92 1.149.92.368.311.453.765.203 1.245l-.003.011a5.26 5.26 0 0 1-1.031 1.272l-.005.004-.009.007q-.535.447-1.052.508a.7.7 0 0 1-.125.011l-.03-.001h.001-.011c-.156 0-.305-.025-.445-.072l.01.003-.012-.016c-.531-.151-1.416-.525-2.892-1.339a17.245 17.245 0 0 1-2.465-1.632l.035.027a12.88 12.88 0 0 1-1.094-.97l-.073-.073-.037-.036-.036-.037a12.818 12.818 0 0 1-.949-1.067l-.02-.026a17.042 17.042 0 0 1-1.56-2.341l-.045-.088c-.813-1.476-1.188-2.36-1.339-2.893l-.016-.011a1.376 1.376 0 0 1-.068-.431v-.016.001l-.001-.036a.69.69 0 0 1 .011-.121l-.001.004q.064-.516.509-1.053l.007-.009c.364-.405.784-.75 1.251-1.023l.025-.013.009-.001c.48-.251.936-.165 1.245.2.003.001.645.773.92 1.149.25.346.512.751.753 1.168l.038.071c.316.567.119 1.147-.192 1.387l-.627.497c-.316.256-.275.731-.275.731s.928 3.511 4.393 4.395zM15.82 7.44h-.004a.336.336 0 0 0-.337.336v.001c0 .186.15.337.336.337 1.804.013 3.272.596 4.475 1.768 1.192 1.163 1.801 2.743 1.817 4.815a.337.337 0 0 0 .337.336h.001a.338.338 0 0 0 .336-.337v-.003c-.017-2.205-.689-3.995-2.021-5.293-1.32-1.287-2.989-1.947-4.94-1.96zm.617 1.751-.025-.001a.336.336 0 0 0-.336.312v.001l-.001.025c0 .178.137.323.312.336h.001c1.288.095 2.243.516 2.94 1.276.699.764 1.031 1.693 1.005 2.855v.007c0 .184.147.334.33.337h.007a.337.337 0 0 0 .337-.328c.028-1.304-.368-2.436-1.183-3.325-.823-.899-1.973-1.392-3.387-1.495zM16.943 11h-.018a.338.338 0 0 0-.337.32v.019c0 .18.141.327.318.337h.001c.581.031.973.195 1.24.468.264.275.427.688.457 1.295.009.179.157.32.337.32h.016-.001a.337.337 0 0 0 .32-.337v-.014.001c-.036-.716-.24-1.312-.645-1.733-.407-.419-.991-.637-1.688-.673zm8.848-5.733c-.663-.611-3.341-2.555-9.307-2.581 0 0-7.033-.424-10.463 2.721-1.908 1.909-2.58 4.703-2.651 8.167-.071 3.463-.163 9.953 6.093 11.713h.007l-.004 2.687s-.04 1.087.676 1.308c.867.269 1.373-.557 2.2-1.448a67.79 67.79 0 0 0 1.553-1.756c4.28.36 7.571-.463 7.944-.585.864-.28 5.753-.907 6.547-7.396.821-6.689-.396-10.92-2.596-12.828zm.725 12.349c-.672 5.419-4.637 5.76-5.368 5.995-.311.1-3.201.819-6.836.581 0 0-2.708 3.267-3.555 4.117-.132.133-.287.187-.391.16-.147-.036-.187-.208-.184-.46l.023-4.463s-.003 0 0 0c-5.293-1.469-4.984-6.995-4.924-9.887.06-2.893.604-5.263 2.219-6.857 2.9-2.627 8.873-2.235 8.873-2.235 5.045.023 7.464 1.543 8.024 2.051 1.861 1.595 2.811 5.408 2.117 10.996z"/>
    </symbol>
    <symbol id="icon-messanger-svgrepo-com" viewBox="0 0 32 32">
      <path d="m17.256 19.218-3.414-3.546-6.574 3.636 7.208-7.649 3.414 3.546 6.574-3.636-7.208 7.649zm-1.39-16.551c-7.29 0-13.199 5.526-13.199 12.342 0 3.878 1.913 7.338 4.904 9.601v4.724l4.504-2.498c1.201.336 2.473.517 3.791.517 7.29 0 13.199-5.526 13.199-12.342S23.156 2.669 15.866 2.669z"/>
    </symbol>
    <symbol id="icon-linkedin-svgrepo-com" viewBox="0 0 32 32">
      <path d="M7.282 31.264V10.666H.436v20.598h6.846zM3.859 7.855c2.386 0 3.873-1.583 3.873-3.56C7.687 2.274 6.245.736 3.904.736S.031 2.274.031 4.295c0 1.977 1.486 3.56 3.783 3.56h.045zm7.211 23.409s.09-18.665 0-20.598h6.847v2.987h-.045c.9-1.406 2.522-3.471 6.215-3.471 4.505 0 7.882 2.944 7.882 9.271v11.811h-6.846V20.245c0-2.769-.991-4.658-3.469-4.658-1.891 0-3.018 1.274-3.513 2.505-.181.438-.225 1.054-.225 1.669v11.503h-6.847z"/>
    </symbol>
    <symbol id="icon-instagram-svgrepo-com" viewBox="0 0 32 32">
      <path d="M16 24a8 8 0 1 1 0-16 8 8 0 0 1 0 16zm0-2.667a5.333 5.333 0 1 0 0-10.667 5.333 5.333 0 0 0 0 10.667zM24 6.667a1.333 1.333 0 1 0 0 2.667 1.333 1.333 0 0 0 0-2.667z"/>
      <path d="M2.205 5.701a8.003 8.003 0 0 1 3.496-3.496c1.711-.872 3.951-.872 8.432-.872h3.733c4.48 0 6.721 0 8.432.872a8.003 8.003 0 0 1 3.496 3.496c.872 1.711.872 3.951.872 8.432v3.733c0 4.48 0 6.721-.872 8.432a8.003 8.003 0 0 1-3.496 3.496c-1.711.872-3.951.872-8.432.872h-3.733c-4.48 0-6.721 0-8.432-.872a8.003 8.003 0 0 1-3.496-3.496c-.872-1.711-.872-3.951-.872-8.432v-3.733c0-4.48 0-6.721.872-8.432zM17.867 4h-3.733c-2.284 0-3.837.002-5.037.1-1.169.096-1.767.269-2.184.481a5.331 5.331 0 0 0-2.331 2.331c-.213.417-.386 1.015-.481 2.184-.098 1.2-.1 2.753-.1 5.037v3.733c0 2.284.002 3.837.1 5.037.096 1.169.269 1.767.481 2.184a5.337 5.337 0 0 0 2.331 2.331c.417.213 1.015.386 2.184.481 1.2.098 2.753.1 5.037.1h3.733c2.284 0 3.837-.002 5.037-.1 1.169-.095 1.767-.269 2.184-.481a5.337 5.337 0 0 0 2.331-2.331c.213-.417.386-1.015.481-2.184.098-1.2.1-2.753.1-5.037v-3.733c0-2.284-.002-3.837-.1-5.037-.095-1.169-.269-1.767-.481-2.184a5.331 5.331 0 0 0-2.331-2.331c-.417-.213-1.015-.386-2.184-.481-1.2-.098-2.753-.1-5.037-.1z"/>
    </symbol>
    <symbol id="icon-facebook-svgrepo-com" viewBox="0 0 32 32">
      <path d="M17.794 6.85c0-1.287 1.15-1.75 2.438-1.75s2.663.4 2.663.4L23.72.6S21.97 0 17.795 0c-2.563 0-4.05.975-5.137 2.413-1.025 1.362-1.063 3.55-1.063 4.963v3.213H8.282v4.787h3.313v16.625h6.2V15.376h4.912l.363-4.787h-5.275V6.852z"/>
    </symbol>
    <symbol id="icon-moon-fill" viewBox="0 0 32 32">
      <path d="M24.633 22.184c-8.188 0-14.82-6.637-14.82-14.82 0-2.695.773-5.188 2.031-7.363C5.02 1.969 0 8.188 0 15.645 0 24.676 7.32 32 16.352 32c7.457 0 13.68-5.023 15.648-11.844-2.18 1.254-4.672 2.028-7.367 2.028z"/>
    </symbol>
    <symbol id="icon-moon-svgrepo-com" viewBox="0 0 32 32">
      <path d="M16.256 16C16.256 9.1 20.735 3.236 27 .991A16.63 16.63 0 0 0 21.372 0C12.33 0 5 7.164 5 16c0 8.837 7.33 16 16.372 16A16.63 16.63 0 0 0 27 31.009C20.735 28.764 16.256 22.901 16.256 16z"/>
    </symbol>
    <symbol id="icon-sun" viewBox="0 0 32 32">
      <path d="M16 26a2 2 0 0 1 2 2v2a2 2 0 1 1-4 0v-2a2 2 0 0 1 2-2zm0-20a2 2 0 0 1-2-2V2a2 2 0 1 1 4 0v2a2 2 0 0 1-2 2zm14 8a2 2 0 1 1 0 4h-2a2 2 0 1 1 0-4h2zM6 16a2 2 0 0 1-2 2H2a2 2 0 1 1 0-4h2a2 2 0 0 1 2 2zm19.899 7.071 1.414 1.414a2 2 0 1 1-2.828 2.828l-1.414-1.414a2 2 0 1 1 2.828-2.828zM6.101 8.929 4.687 7.515a2 2 0 1 1 2.828-2.828l1.414 1.414a2 2 0 1 1-2.828 2.828zm19.798 0a2 2 0 1 1-2.828-2.828l1.414-1.414a2 2 0 1 1 2.828 2.828l-1.414 1.414zM6.101 23.071a2 2 0 1 1 2.828 2.828l-1.414 1.414a2 2 0 1 1-2.828-2.828l1.414-1.414zM16 8a8 8 0 1 0 0 16 8 8 0 0 0 0-16zm0 13a5 5 0 1 1 .001-10.001A5 5 0 0 1 16 21z"/>
    </symbol>
  </defs>
</svg>