<?xml version="1.0" encoding="UTF-8"?>
<!DOCTYPE svg PUBLIC "-//W3C//DTD SVG 1.1//EN" "http://www.w3.org/Graphics/SVG/1.1/DTD/svg11.dtd">
<!-- Creator: CorelDRAW X6 -->
<svg xmlns="http://www.w3.org/2000/svg" xml:space="preserve" width="89.8861mm" height="85.4945mm" version="1.1" style="shape-rendering:geometricPrecision; text-rendering:geometricPrecision; image-rendering:optimizeQuality; fill-rule:evenodd; clip-rule:evenodd"
viewBox="0 0 2262 2151"
 xmlns:xlink="http://www.w3.org/1999/xlink">
 <defs>
  <style type="text/css">
   <![CDATA[
    .fil1 {fill:#080808}
    .fil6 {fill:#090909}
    .fil5 {fill:#0A0A0A}
    .fil12 {fill:#0C0C0C}
    .fil21 {fill:#0F0F0F}
    .fil26 {fill:#101010}
    .fil27 {fill:#111111}
    .fil29 {fill:#161616}
    .fil28 {fill:#1B1B1B}
    .fil22 {fill:#6B6B6B}
    .fil30 {fill:#B3B3B3}
    .fil24 {fill:#CACACA}
    .fil20 {fill:#DEDEDE}
    .fil23 {fill:#E1E1E1}
    .fil11 {fill:#E5E5E5}
    .fil25 {fill:#E8E8E8}
    .fil19 {fill:#E9E9E9}
    .fil9 {fill:#EEEEEE}
    .fil18 {fill:#F0F0F0}
    .fil16 {fill:#F2F2F2}
    .fil17 {fill:#F3F3F3}
    .fil13 {fill:#F4F4F4}
    .fil15 {fill:whitesmoke}
    .fil10 {fill:#F6F6F6}
    .fil14 {fill:#F7F7F7}
    .fil8 {fill:#F9F9F9}
    .fil2 {fill:#FBFBFB}
    .fil7 {fill:#FCFCFC}
    .fil3 {fill:#FDFDFD}
    .fil4 {fill:#FEFEFE}
    .fil0 {fill:white}
   ]]>
  </style>
 </defs>
 <g id="Layer_x0020_1">
  <metadata id="CorelCorpID_0Corel-Layer"/>
  <g id="_866242992">
   <path class="fil0" d="M1453 1150c0,-19 -4,-33 -2,-46 6,-42 2,-103 2,-148 0,-72 -7,-61 32,-61 87,0 465,3 483,-3l0 -13 6 11c1,-26 -2,-9 -6,-19 1,0 4,-2 1,-20 -1,-6 -1,-14 0,-19 3,9 -3,8 6,15 3,-7 2,-10 2,-20l-8 -5c0,0 0,0 -1,0 14,-8 2,6 20,0 1,-13 -3,-11 7,-19l-1 21c-1,-16 5,-32 2,-49 -2,-8 1,-58 1,-74 -5,5 -2,7 -5,9 -2,-11 3,-15 2,-26 -2,-11 -3,-10 -1,-26 1,-9 -3,-46 0,-52l2 11c6,-7 2,-22 2,-32l14 0c1,-16 0,-34 3,-49 3,-11 1,-30 3,-39 3,-11 -1,-5 -2,-10 0,-7 0,-2 3,-6l4 -3c-6,-2 -6,-1 -6,-6l-1 -29c1,-1 1,-1 1,-2 0,1 0,2 0,2 0,1 1,2 1,2 0,1 1,4 1,4 0,1 1,2 1,2l2 4c0,-9 0,-20 3,-27 -1,0 -1,0 -2,-1l-2 -1c-5,-4 -5,-12 -1,-17 9,-15 0,-8 -4,-9l3 -26c0,-11 -4,-6 -3,-20 0,-6 0,-3 1,-6 3,5 1,12 1,18 4,-5 4,-10 4,-17 4,4 3,3 4,10l9 -10c2,-4 1,-13 1,-19 0,-9 -1,-12 2,-21 5,-19 -1,-49 4,-63 2,-5 4,-7 2,-14l-4 7c-1,-9 0,-5 0,-13 -15,-3 -32,-2 -47,1 0,-1 0,-2 0,-2l-4 -8 -66 1c-7,1 -3,1 -4,5 0,0 0,2 0,2 0,-1 0,0 0,0l-44 0c5,6 10,3 19,5 -5,1 -13,0 -19,0 -20,-1 -49,2 -68,-2l-40 -3c-22,1 -5,3 -14,6 -4,-6 -1,-7 -14,-3 -17,6 -12,3 -20,-2l-4 -2c0,0 -3,0 -3,0 -2,-5 -2,-4 -3,-9l11 -8c-15,5 -39,0 -52,-2 -34,-5 -48,5 -91,-2 -22,-4 -22,2 -45,-4 2,16 1,1 6,8 -8,0 -9,0 -13,-6l-8 4c0,0 -6,1 -7,1 -5,1 -9,2 -15,-1 0,-3 2,-3 4,-6l-25 -1c3,7 0,4 6,7 6,3 4,0 5,0 -5,3 -13,2 -15,-6 0,-1 0,-1 -1,-1 -5,3 -1,-1 -4,4 -3,6 0,3 0,3 -7,1 -5,-2 -9,-6 0,0 0,1 -1,1 -4,8 0,6 -6,7l-41 -1c-15,4 -8,-7 -30,2 -3,-6 2,-5 -2,-10 -11,3 -4,-2 -7,9l-8 -3c-7,-2 -2,-1 -11,3l-2 -7c0,-1 0,-1 0,-1l-13 8c-2,-8 4,-4 -4,-9 -5,8 2,3 -7,7 -3,-2 -5,-1 -7,-5 0,-1 -1,-1 -1,-1 0,0 -1,1 -1,1 0,0 0,1 -1,1 0,0 0,1 0,1 -5,6 -23,2 -29,3 0,0 -1,-1 -1,0 -1,0 -2,0 -2,0l-3 0c0,1 -1,1 -1,1 -9,2 -18,-1 -28,-1l-64 1c-6,0 1,0 -5,0 6,-1 12,0 18,-1l16 -3c-20,0 -36,-1 -54,-3 2,6 -4,10 6,6 -13,3 -7,-1 -21,1 0,-1 -1,-2 -1,-3 0,0 0,-1 0,-1 -2,-2 -4,-3 -11,-3 1,-5 5,0 7,-4 0,-1 1,-1 2,-1l-23 -1c1,0 2,2 2,3l2 2c0,0 0,1 1,1 0,0 0,1 0,1 1,1 5,4 6,4l-3 3c-5,-6 -9,-4 -20,-4 -1,9 0,2 -3,2l-42 0c-10,3 -6,2 -21,-1l-13 2c-5,1 -22,-1 -32,-1l0 49 -10 0c0,-9 0,-17 0,-26 0,-2 1,-12 1,-13 -2,-14 2,-6 -7,-10 -5,7 -3,16 -3,25 0,8 0,16 0,24l-21 0c0,-15 3,-37 -2,-49 -5,-2 1,-2 -8,-1 -9,0 -2,3 -10,1 0,0 -4,-2 -6,-2l0 28c-4,0 -13,-1 -16,0 -9,2 -8,6 -8,14 0,0 0,1 0,1 0,1 -1,2 -1,3l0 2c0,3 3,2 0,3l2 27c0,1 0,6 0,6 3,22 -11,22 -4,33 7,12 3,60 3,75l-25 1c-5,25 7,6 12,22l-14 0 6 8c-8,4 8,-2 -4,1l-4 1c0,1 1,1 1,1l7 5c-4,8 -4,4 -3,12l1 3c1,10 -6,21 2,28 -1,3 -3,3 -6,6 0,1 1,1 1,1 0,0 1,1 1,1 6,4 0,4 0,15 0,5 3,14 3,14 0,9 -5,-8 -2,11 1,8 3,16 2,25 -2,10 -1,21 0,32l0 -30c-1,1 -1,2 -1,2 -9,11 -1,4 -15,7l0 20c-3,3 -5,4 -8,5 3,12 1,26 -1,40 0,6 3,9 2,16 -6,25 2,6 0,21l-1 15c1,10 -3,-3 -1,11l0 12c0,0 -1,16 -1,17 1,10 3,7 3,12 0,5 0,1 -2,5 -2,6 2,13 2,19 1,12 -4,19 -3,34 0,12 -3,21 2,30 -7,1 -4,-3 -8,-9l-3 -3c0,14 2,20 2,35l9 5 0 43 -20 0 -2 -13c-1,9 -3,11 -2,20 0,11 0,-4 0,7l0 10c1,8 3,15 2,24 -2,5 -4,2 -2,14l0 14c0,1 0,2 0,2l0 15c1,3 1,10 2,13 -6,5 0,1 -10,5l21 14c0,1 -1,1 -1,2 0,0 -1,0 -1,1l-9 9c19,0 1,5 13,3 -2,1 -7,2 -9,3l-6 7c-3,4 -2,10 -1,14 1,6 3,11 2,15 -2,7 -2,7 -1,13 5,17 -4,19 -1,37l-1 40c0,-1 0,1 0,2 3,0 16,-1 19,-1 5,0 4,2 15,2 0,-6 0,-2 -1,-6 -3,-6 -5,-9 -1,-15l4 -5c-5,-18 -9,-16 -2,-24 8,2 2,-3 8,6 7,9 2,3 2,9 1,4 3,7 2,18 -2,0 -7,-4 -6,8 15,1 -5,1 7,-2 3,-1 -5,-3 5,0 5,1 2,5 3,8 3,0 7,1 9,1l9 -1c0,-6 3,1 -2,-4l-4 0c0,-4 -2,1 5,-1 9,-1 11,-6 17,-1l-10 8c7,0 11,0 17,-3l8 -7c9,0 1,0 6,2 7,2 34,-1 39,-2l6 8 30 0 4 -5c1,-2 2,-2 4,-3 0,-4 0,-14 0,-17 -2,-13 2,-4 -4,-10 8,4 13,-14 24,3 7,9 6,16 2,28 6,0 20,-3 21,3 -4,1 -9,-1 -13,0 -11,2 -6,-1 -10,8 4,4 -3,1 8,4 15,3 21,-6 34,-5 9,1 7,-1 7,7l7 -6c6,-2 11,5 16,7 7,3 20,2 29,4l3 -4c11,-9 10,2 22,1l3 -1c1,0 1,0 2,0 0,-12 -1,-15 -13,-8 -6,-10 0,-11 -11,-15 -2,6 -1,11 -6,12l1 -15c13,-3 19,6 32,6 3,13 -5,5 9,9l0 14c12,-5 11,3 21,-2 6,-5 1,-17 5,-21 0,-7 3,-5 4,24l14 -4c5,7 1,3 10,7 12,5 -5,-2 5,3l31 0 2 -5c1,-5 -1,-21 -4,-25 -8,-12 2,2 -5,-12l-13 -17 -20 0 0 -20c6,0 16,-1 21,0 10,0 2,-1 6,3l5 3c0,0 1,-1 1,-1l0 -4c0,-2 -1,0 -1,-1 9,0 11,-1 12,7 -7,3 -7,-14 -9,8l3 1c0,0 2,0 2,0 2,0 -2,-2 3,-1 0,5 0,3 -2,5 0,1 -1,2 -1,3 -7,12 -1,13 1,17 4,7 2,18 2,29l4 2c0,0 0,1 1,1 4,4 4,5 10,7 0,-1 0,-2 0,-2l0 -5 12 0c0,-7 1,-8 3,-13l15 1c3,8 2,14 15,14 11,1 15,-9 21,-2 6,-3 0,1 0,1 0,0 0,0 0,1l11 3c0,-1 0,-2 0,-2l2 -5 7 7c0,0 1,1 1,2l5 -6c2,-2 0,-1 3,-2 8,-3 27,8 32,-3l4 -9c5,-7 4,9 7,-10 -9,-6 -31,-4 -42,-4 -7,0 -17,2 -24,0l10 0 -2 -13c14,-3 5,4 9,-7l-17 -1c1,-5 -2,-2 8,-4l1 -10c2,5 1,2 5,5 8,7 5,12 20,13 -3,-18 -1,-3 -9,-13 3,-2 23,-7 19,3l-3 5c9,0 8,-1 15,-2 -1,0 -4,-2 2,7l4 -4c0,0 1,0 1,0 1,0 1,0 2,-1 2,0 8,0 10,0l3 10 -16 -4c-8,6 -8,2 -8,16l10 -6c4,-1 3,-1 9,-1 7,10 -3,4 10,9z"/>
   <path class="fil1" d="M1246 1884c-7,-27 30,-33 59,-52 45,-28 165,-90 220,-120l70 -43c6,-4 18,-16 24,-5 5,11 8,59 0,66 -1,1 -49,21 -53,23 -66,26 -141,69 -209,93 -17,6 -39,13 -55,20 -14,6 -49,12 -56,18zm233 -415c0,1 -1,0 -1,1l-13 3c-58,6 -134,1 -189,-11 -67,-15 -59,-19 -58,-62 1,-65 -9,-45 71,-42 22,0 46,3 71,4l102 8c9,0 30,-3 35,4 9,-2 66,3 74,6 4,26 -3,55 -7,79 -20,3 -67,15 -85,10zm-972 -108c-9,24 -91,23 -115,23 -22,-1 -46,1 -68,0 -19,-1 -43,-3 -64,-3 -38,-1 -139,-11 -173,-32 -18,-12 -17,-31 -16,-54 1,-42 -7,-85 -9,-128 -1,-44 -4,-86 -4,-132 -2,-88 -6,-178 -7,-268 0,-44 -2,-89 -3,-134 0,-47 3,-89 4,-135 2,-88 7,-176 7,-266 0,-33 2,-95 22,-115 39,-38 188,-25 246,-23 20,0 115,1 126,11 19,-2 52,14 65,23 20,15 26,29 29,59 9,96 3,241 3,341 0,59 -4,116 -3,173 0,115 -5,229 -9,341 -2,38 0,307 -31,319zm1542 27c-2,-25 4,-53 8,-74 6,-24 9,-50 13,-76 7,-50 12,-103 17,-156l18 -153c1,-24 3,-56 7,-78 4,-24 5,-55 8,-80 14,-101 20,-210 35,-310 6,-44 10,-107 17,-156l16 -114c2,-11 0,-27 9,-35 9,1 20,11 21,21l-42 359c-4,47 -15,112 -19,158 -5,54 -14,109 -18,160 -2,25 -4,57 -8,81l-15 164c-3,43 -23,191 -30,238 -3,14 -5,25 -8,37 -3,9 -1,9 -9,12 -5,2 -13,4 -20,2zm88 -1142l1 1 -16 145c-3,23 -6,47 -8,70 -1,24 -7,47 -8,70 -3,59 -24,220 -32,284l-16 143c-2,46 -12,95 -14,142l-17 142c-3,24 -5,46 -8,71 -1,10 -4,21 -6,31 -2,12 -2,23 -5,34 -15,3 -87,-9 -106,-11l-101 -12c-5,-1 -2,0 -5,-2l-21 -1c-26,-1 -45,-4 -68,-6 -108,-9 -215,-22 -324,-30 -37,-3 -97,-10 -130,-11 -44,-2 -88,-7 -134,-10 -44,-3 -87,-5 -131,-9 -37,-3 -259,-14 -264,-17 -1,-2 -1,-1 -2,-5l-1 -15c2,-69 8,-136 12,-204l11 -147c1,-25 5,-47 6,-72 1,-24 4,-48 7,-73 2,-23 5,-45 7,-70l27 -286c3,-46 11,-94 14,-142 2,-19 9,-136 13,-143 10,-5 140,-10 162,-11 59,-1 114,2 171,2 110,1 218,14 328,16l165 6c53,6 114,1 167,4 110,7 228,-1 340,3 3,11 -3,44 -5,57l-9 56zm-1463 830c-2,63 -10,126 -13,189 0,17 -5,32 7,42 10,9 22,14 36,15 33,5 87,-6 98,1 -3,7 -1,4 -11,7 -30,10 -11,-2 -29,1l-29 7c-8,2 -6,3 -13,5 -13,4 -25,-2 -37,2 -11,3 -10,8 -27,10l-109 6c4,-21 10,-34 15,-62 2,-7 3,-18 6,-22 -2,-23 8,-50 6,-78 -1,-8 -4,-12 -4,-19 1,-11 4,-7 6,-17 2,-10 0,-32 -1,-43 -2,-56 9,-110 4,-165 -3,-39 -2,-29 3,-73 3,-25 3,-56 3,-83 2,-109 7,-222 6,-333 -1,-56 -2,-111 -3,-168 0,-56 3,-107 -11,-156 -18,-63 -79,-56 -99,-72 41,-16 445,-31 483,-32 49,-1 74,1 119,9 9,1 29,3 35,11 -12,7 -65,3 -83,3l-171 5c-38,2 -48,-1 -83,7 -7,64 -14,118 -25,181 -4,21 -7,39 -9,61 -3,53 -13,131 -18,189 -1,23 -5,42 -6,63 -13,171 -34,339 -46,509zm-500 479c-4,3 -26,12 -33,17 -41,21 -51,31 -22,105 8,22 6,17 30,21l130 28c57,13 107,28 164,43 59,15 118,23 172,36l172 35c27,5 223,41 261,52l86 19c26,7 54,19 83,21 15,2 35,2 50,-2 9,-3 30,-12 40,-12 5,-8 87,-34 103,-42l104 -43c18,-7 34,-15 50,-22 17,-8 35,-13 53,-21 64,-26 39,-33 45,-101 96,-9 61,52 119,63 51,10 99,-15 142,-38 28,-15 58,-29 97,-27 104,5 118,63 37,101 -15,7 -26,11 -43,17 -21,7 -35,3 -54,7 -31,7 -19,3 -43,-9 -10,-5 -35,-16 -49,-11 -18,5 -48,-2 -56,4 0,1 -1,1 -1,1 -5,6 1,7 4,10 0,1 0,1 0,1l5 9c14,-1 36,-5 51,-1 0,1 5,3 5,3l5 5c1,1 1,2 2,2 3,3 17,9 23,13 4,3 7,7 10,10 5,6 4,7 15,6 3,-1 -1,-3 6,-1 7,1 4,0 8,4 -1,17 3,1 -12,12 -2,1 0,3 -6,2 -1,0 -7,-2 -7,-2 1,11 -1,10 0,15 8,0 16,0 23,0 7,0 9,1 12,2l12 2 1 9c-4,4 6,4 -9,4 -17,23 -20,67 -92,126 -36,31 -99,59 -156,64 0,2 -2,9 -13,7 -8,-2 -7,-4 -8,-10 0,0 0,-1 0,-1l-2 1c-1,1 -3,3 -3,3 -5,17 1,7 3,10 18,0 7,-9 21,0 -7,1 -4,1 -9,3 6,7 -2,6 7,5 0,0 0,-1 0,-1l-13 0 0 5c-2,-4 -1,-2 -5,-5l-3 -2c21,0 7,1 12,-7 -4,0 -9,1 -13,0l-10 -4c-2,7 -2,12 4,15 0,0 0,0 0,1 -1,0 -1,1 -1,1 0,0 -1,0 -1,1 0,0 0,1 0,1 -1,0 -1,1 -1,1l-3 8 -4 -9c0,0 0,-1 0,-2l-11 0c1,0 2,-2 2,-1l8 -2c0,0 1,0 1,1l6 6c-2,-10 -2,-4 0,-14l-22 -3c0,0 -1,0 -2,0 -5,-1 1,2 -2,-3 -1,0 -1,-1 -1,-1 -1,-1 -1,-2 -2,-2 0,-1 0,-2 -1,-2 -8,3 -5,-5 -6,6 -3,-6 -5,-6 -5,-15 -8,6 -4,-3 -6,7 0,-17 1,-3 -6,-9 -3,14 1,5 -9,11l7 17c6,0 12,-4 18,-1 0,0 -1,1 7,3 0,0 -1,0 -1,0 0,2 -1,2 0,4 2,3 4,5 5,0 -18,1 -7,-2 -10,9 6,3 14,6 23,6l-6 11c9,0 15,4 23,0 8,-4 4,0 7,-8 1,-4 0,-6 0,-9 -1,-11 -1,5 0,-7 0,11 -3,13 2,20 -2,6 3,-3 -3,2l-8 6 26 -6c-1,-1 -1,-4 -1,-5 -1,-7 3,-10 -2,-17 8,1 4,5 5,11 2,9 -1,3 4,9 7,-4 6,6 6,-9 8,2 4,2 3,6l15 2c28,2 155,-67 189,-97 44,-38 93,-110 76,-173 -3,-11 -8,-17 -10,-26 16,-12 126,-23 142,-90 10,-42 0,-61 -33,-75 -124,-52 -190,39 -271,48 -43,5 -56,-19 -73,-41 -24,-32 -47,-24 -93,-25 -2,-4 -6,-10 -8,-12 -11,3 -4,2 -9,-5 -3,-3 -3,-7 -4,-13 1,0 7,-1 9,-4l1 -8c-7,1 -7,1 -9,4l1 0c-6,-5 1,-2 -7,-6 1,-10 12,-9 5,-13 -6,18 -1,6 4,10 7,-12 7,6 8,-10 0,-8 0,-8 -10,-9 0,0 -1,6 5,-2l2 -4c1,0 1,-1 1,-2l-13 -1c0,0 -1,0 -1,0l-5 -1c-5,0 -12,2 -19,2 3,-3 -4,-3 3,-1 0,0 1,0 1,1 -10,2 -19,6 -30,6l8 10c0,0 1,0 1,0 8,6 -1,3 2,1 -8,7 -6,1 -6,17 -7,-2 3,-1 -8,-2 -5,0 -9,0 -14,0 -3,4 -2,-2 -1,7 2,6 -1,-2 4,5l12 22c-4,4 -29,19 -34,20 -7,9 -282,156 -308,170 -11,6 -12,6 -15,19l-4 21c0,3 1,1 0,4 -2,5 -1,2 -3,5l-40 -8c-24,3 -214,-44 -268,-55 -45,-10 -87,-20 -131,-30 -24,-6 -45,-9 -67,-15 -23,-6 -45,-10 -67,-16 -49,-15 -150,-34 -203,-40 -24,-3 -45,-8 -67,-14 -44,-10 -88,-21 -131,-31l-66 -14c-6,-2 -28,-8 -31,-10 -7,-5 -10,-23 -10,-34 6,-13 93,-42 99,-47 9,-11 9,-6 23,-13l2 -1c0,-1 1,-1 1,-1 4,-2 5,-2 7,-11 0,0 1,-11 1,-12 4,3 3,8 4,13 10,-1 11,-3 20,-2 5,0 3,1 8,1l11 -2c-2,6 -3,3 -5,1l-2 10c-1,5 1,0 -3,2 -7,3 -4,1 -7,5 3,10 -3,-5 1,3 0,2 2,6 6,6 6,-1 13,-9 14,-14l18 1c0,0 3,-1 3,-1 2,-5 8,2 -1,-4 -4,-3 -1,-2 -8,-2 8,-1 6,1 18,-2l-1 9c0,1 0,2 0,2 0,1 1,2 1,3 4,-3 8,-1 13,1l0 -3c0,-1 0,-1 0,-2l2 -4c0,-1 0,-1 1,-2 0,-1 0,-1 1,-2l5 1c15,-2 33,-14 48,-20 2,-4 2,-7 11,-9l32 0c0,0 -1,-8 -1,-9 0,0 1,-1 1,-1 0,-1 1,-1 1,-2l2 -1 -11 -4c0,1 -1,1 -1,2l-7 4c-2,1 -9,2 -10,2 -4,0 -11,-3 -12,0l-20 10c-6,1 0,3 -3,-1l12 0c0,-10 -2,-7 4,-13 -10,0 -7,2 -16,1 -6,-1 -19,5 -28,7 4,-8 10,-10 26,-17 30,-12 56,-20 82,-39 16,-12 34,-25 59,-21 15,2 56,12 70,11 10,-3 14,-1 22,-1 1,0 1,0 2,0 6,0 8,-5 6,-13 -3,-9 -3,-6 -10,-9 -1,1 -1,1 -1,3l-1 12c-2,-5 -9,-4 -15,-2 -11,0 -4,1 -8,-3l1 -6c0,0 0,0 1,-1 0,0 1,-1 1,-1 1,-1 1,-1 1,-2 1,0 1,-1 2,-2 -2,0 -8,0 -9,0l-6 -6c-1,0 -2,-1 -2,0 -3,6 -2,-3 -11,4 0,-4 2,-3 5,-4 -10,0 -13,-2 -24,-2 -3,-4 -1,-2 -3,-8 -1,0 -4,1 -5,-7 10,-4 57,-11 72,-12 74,-7 82,-6 158,-18 23,-3 50,-10 72,-14 35,-5 123,-17 157,-18 33,-2 143,-6 165,6 5,4 3,40 1,42 -15,6 -41,2 -59,2 -35,0 -73,2 -103,18 -12,6 -26,17 -29,30 0,16 -6,19 -2,30 3,0 6,9 6,-9 7,13 1,3 8,5l9 6c0,-3 2,-7 2,-8l-4 -10c-10,3 6,2 -4,3l0 -4c0,0 -1,-1 -1,-1 -2,-9 -4,4 -1,-12 2,9 -1,5 5,5 15,0 7,-2 10,-5 -2,-15 0,-2 -5,-10 -1,-2 -5,2 -2,-5 1,8 -2,3 5,5 6,2 3,3 4,-3l6 24c8,-7 4,-1 7,-11 3,1 2,-2 2,4l16 1 126 -12c13,0 9,14 11,24l1 3c2,7 37,19 45,21 94,29 191,28 289,15l53 -10c31,-5 29,-3 28,-33 8,0 24,7 36,8 39,7 73,7 94,40 29,44 -96,68 -97,69l-2 5c0,0 -3,3 -4,4 3,0 5,1 6,1 0,0 1,0 2,0 16,5 18,1 14,20l-1 6c0,0 0,1 0,2l7 12c11,-2 22,-7 34,-4 21,0 52,-23 59,-24 4,-10 13,-13 18,-25 19,-38 1,-70 -17,-100 -29,-45 -94,-38 -123,-53 -1,-11 -1,-23 2,-31 21,-1 55,3 76,6 27,3 49,6 76,9l142 21c3,1 1,1 3,3l11 -1c50,2 86,14 139,5 27,-5 28,-1 37,-38 5,-20 8,-42 12,-62l17 -133c4,-30 11,-69 13,-100 1,-15 4,-20 5,-32 4,-45 5,-95 12,-138 6,-44 6,-93 12,-137 7,-43 9,-90 15,-134 10,-67 16,-132 26,-200 9,-67 15,-130 26,-198 14,-96 19,-120 -53,-155 -29,-14 -24,-16 -63,-15 -60,2 -239,2 -296,-2 -44,-3 -98,0 -143,-5 -33,-3 -77,-2 -111,-3l-25 -2c-2,0 -4,1 -8,-2 -21,4 -154,-2 -181,-4 -57,-5 -122,0 -180,-5 -9,-10 -6,-22 -20,-30 -29,-17 -81,-30 -116,-32 -66,-3 -125,0 -192,1 -126,0 -247,17 -372,20 -62,1 -129,8 -190,7 -72,0 -195,2 -250,45 -23,17 -28,30 -34,63 -6,27 -4,60 -8,90 -9,72 -3,200 -9,288 -5,64 2,127 3,190 1,64 3,129 3,194 0,61 0,130 3,192 4,62 11,209 27,266 5,18 6,19 21,29 9,5 22,11 33,16 68,30 187,27 269,26 16,-1 85,-6 93,-1 -7,18 -188,93 -206,100 -13,5 -64,27 -74,28z"/>
   <path class="fil2" d="M1405 1289c-10,-38 68,-57 71,-11 2,19 -13,35 -29,36 -19,1 -39,-13 -42,-25zm-113 -13c-13,-54 72,-36 76,-10 3,19 -17,31 -32,33 -21,2 -41,-9 -44,-23zm-105 -4c-11,-44 52,-52 68,-17 19,42 -60,46 -68,17zm-326 -77c13,4 41,-2 52,3 6,3 4,1 -3,6l0 4c9,0 10,0 15,6 -4,0 -15,0 -15,4 38,0 16,-3 34,-6 0,1 1,1 1,2l0 3c0,0 0,1 -1,1 9,0 19,1 28,1 10,-1 14,-6 21,-6l23 2c8,1 34,6 41,4l4 -7c23,11 1,-1 21,0 9,1 12,5 23,1 0,0 0,1 0,1 0,1 0,2 0,2l-1 2c18,1 6,1 21,-5 0,9 -7,13 -2,16 0,0 13,3 17,15 -5,0 -15,-7 -19,-4 1,5 -2,-1 2,2l7 4c-1,1 -2,0 -2,1 -4,9 -1,1 -4,3 -5,3 0,-2 -4,3 2,5 3,5 3,10 -6,6 -18,9 -26,11 -15,5 -29,2 -46,2 1,-11 2,-5 0,-9l-4 2c-10,4 -6,1 -13,0 -4,10 -8,5 -13,13 -7,-2 -12,-8 -17,-12l-3 4c0,1 -1,1 -1,2 -3,0 -4,0 -7,0 -11,-3 -10,-9 -13,-9l-14 4c-15,1 -20,-3 -35,3 -6,-11 1,-7 -9,-2 0,0 -1,1 -5,1 -14,-1 0,2 -9,-5 -11,5 -14,0 -22,2 -7,3 -40,4 -47,1l-8 -6c0,1 -1,1 -1,1 -2,5 -14,4 -18,4l0 -28c-15,-4 -3,-2 -10,-13l-4 -6c0,-1 0,-2 -1,-2 14,0 8,0 20,-3l19 0c-2,-3 0,0 -3,-4 -24,0 -16,-1 -21,-8 11,0 24,-2 33,2 1,0 4,2 5,2 0,1 1,1 1,2l4 4c2,3 -4,2 4,2 0,-4 0,-8 0,-12l1 -9c0,-1 1,-1 1,-2zm891 48c-83,0 -171,-5 -248,-15 -80,-11 -169,-12 -253,-12 -166,-2 -262,-31 -437,-21 -22,1 -38,-3 -44,-21 6,-14 16,-6 17,-32l-1 -51c0,-91 9,-153 15,-237 5,-77 15,-153 25,-227 6,-49 16,-181 18,-233 2,-37 6,-78 8,-117 1,-24 4,-100 11,-118l43 1c183,0 372,5 556,6 175,-1 341,21 515,19l91 -1c6,14 17,15 18,25l-10 79c-9,68 -14,136 -21,200 -7,53 -7,112 -14,164l-7 81c-1,24 -6,54 -8,81 -4,63 -16,171 -27,236l-11 79c-3,25 -7,51 -12,76 -6,37 -8,41 -48,40 -60,0 -117,-2 -176,-2zm23 110l-4 -3c-8,-3 -17,-2 -17,-12 0,0 0,-1 0,-1l-19 6c0,0 0,1 0,1 -4,-3 -2,-6 -9,-6 -11,0 -5,4 -13,2 -10,-3 -4,-3 -6,-9l-3 -5c-3,-6 -1,8 -4,-7l7 -3c0,0 0,0 0,0 -8,1 -11,3 -21,3 -2,11 3,3 -7,7 -4,1 -9,2 -13,0l-6 7c-24,0 -37,1 -59,-3 0,-8 -2,-11 4,-14l-10 2c-14,-7 -4,6 -21,-2 -4,-1 -14,3 -23,3 1,-1 2,-3 2,-2 3,3 10,-14 8,-22l-1 -7c0,0 0,-1 0,-2 0,0 0,-1 0,-2l13 -1c2,3 -5,7 4,6 0,0 -1,-2 -1,-3l3 -5c6,6 3,8 11,8 0,0 -9,-2 4,-14 12,-11 -2,4 4,-3 1,-1 0,2 1,-2 0,-1 5,-5 -1,0 -4,-7 -11,-1 -14,2 0,0 -1,1 -1,1l-4 4c-2,-2 -3,-5 -2,-9 -10,0 -13,-4 -17,-15l11 -12c15,5 44,0 52,6l33 6c-1,0 0,6 -4,0l-1 -3c0,0 0,-1 0,-2 2,0 6,0 7,1 6,2 2,0 6,4 -1,10 3,8 -10,10 -1,0 -19,0 -20,0 -9,-1 -5,-1 -10,-4 -5,-2 -4,-5 -7,-1 -3,5 -2,3 0,1 3,3 0,1 5,3 7,4 15,4 23,3 14,0 26,-7 42,-1 3,1 -2,1 7,1 6,1 14,0 19,0 9,0 18,2 26,0 13,-4 5,-5 17,-1 10,3 25,1 36,1l32 -1c0,0 3,1 6,1 -10,-3 -1,1 -4,-8l11 0c-8,0 -11,5 -14,-4l29 -1c-1,3 5,2 -7,5l13 0c-2,8 6,8 -6,8 11,0 -4,-2 10,-2 18,1 15,16 14,29 -3,27 -5,21 3,12 1,0 1,1 2,2 1,6 4,7 11,6l4 -32 -6 0c1,5 2,5 3,8 3,6 2,9 -1,14 -11,-6 -2,2 -7,-9l-5 -12 19 -17c3,0 2,0 6,0 4,-1 10,-1 15,-1l3 15c0,1 0,1 0,2 0,0 0,1 0,1l-1 8c8,-3 -3,-5 10,-3l1 -10 8 4c4,-3 2,-8 2,-15 13,0 13,-6 26,5l0 19 23 0c0,68 -2,40 5,32 6,7 3,16 3,21l-8 1c-2,6 0,6 -8,8 2,5 7,2 8,6 2,4 2,2 2,8 -5,0 -10,-1 -14,-4l-2 -2c-1,0 -1,0 -2,0 -6,-7 -3,0 -7,-11 1,0 6,-3 6,-4 3,-1 2,2 2,-2l-8 0c0,10 -1,16 0,26 -6,-2 -6,-3 -7,-4 0,0 -5,-3 -6,-4 -5,3 -10,6 -15,5l-3 -1c-10,-3 -31,-3 -44,-3l0 -21 -29 -1c4,-1 8,2 10,7 -7,6 -14,1 -19,0 -4,0 -10,3 -11,7 -16,0 -34,-3 -49,1 3,2 0,1 5,2l101 12c19,2 91,14 106,11 3,-11 3,-22 5,-34 2,-10 5,-21 6,-31 3,-25 5,-47 8,-71l17 -142c2,-47 12,-96 14,-142l16 -143c8,-64 29,-225 32,-284 1,-23 7,-46 8,-70 2,-23 5,-47 8,-70l16 -145c-2,1 -5,0 -7,2l-2 31c0,0 9,-3 -10,-1l-6 4c0,0 -1,1 -1,2 -9,-1 -13,-3 -20,-2 -1,0 -5,2 -8,2l4 -53c-10,10 8,2 11,11 0,-16 -3,-11 7,-13 -6,-4 -2,4 -5,-8 0,-4 0,-10 0,-14 8,5 6,-8 6,9 0,-11 -2,-16 -1,-25 1,-4 2,-1 2,-7l-5 7c-6,-7 -12,-14 -15,2l-6 -3c-11,-8 -1,3 -3,-4 0,-5 3,1 -1,-5 -1,-1 -2,-1 -5,-5 3,-4 6,-6 11,-7 -1,-5 -6,-1 -6,-1l-15 3 4 -5c4,-4 4,-1 4,-5 -9,3 -12,1 -16,1l-8 1c-5,1 1,4 -1,0l12 0c-2,15 -1,5 7,13l-22 0c-3,-7 -3,2 0,-3 2,-3 2,-1 3,1 -8,-3 -12,-7 -15,-13 3,-4 4,-5 10,-6 3,-1 12,-1 15,-1 10,0 20,0 30,0 -7,9 9,6 -8,7 6,0 24,-9 29,-2 -19,0 -20,-4 -32,-5 -6,0 -13,0 -19,1l-13 -1c-6,-2 -2,-1 -6,-4l47 -4c-13,0 -36,-2 -46,2 -3,1 -22,2 -22,4 23,0 16,-3 23,7l-21 -1c0,0 0,-7 0,1l0 2c-2,9 -2,-4 -2,6 1,0 6,3 5,6 -2,3 -5,2 -10,1 -3,0 -15,0 -17,-1 -7,-3 -6,5 -6,-12 -18,-1 -10,-10 -2,-16 3,-2 0,4 4,-5 16,0 33,1 48,-1 11,-2 29,0 41,-2 6,-1 3,0 6,-2 -17,0 -32,1 -48,0 5,7 48,1 59,2 7,1 12,4 17,8 -1,1 -3,4 1,9 24,0 17,-8 22,14l0 3c1,0 1,1 1,1 0,1 0,1 0,2 0,2 0,6 -1,8 0,3 0,6 -1,8 0,4 -1,4 -1,9 1,-6 1,-12 5,-20 -1,5 -1,13 -2,18 -2,10 -3,0 -3,13 -1,2 2,30 3,35l9 -56c2,-13 8,-46 5,-57 -112,-4 -230,4 -340,-3 -53,-3 -114,2 -167,-4l-165 -6c-110,-2 -218,-15 -328,-16 -57,0 -112,-3 -171,-2 -22,1 -152,6 -162,11 -4,7 -11,124 -13,143 -3,48 -11,96 -14,142l-27 286c-2,25 -5,47 -7,70 -3,25 -6,49 -7,73 -1,25 -5,47 -6,72l-11 147c-4,68 -10,135 -12,204l1 15c1,4 1,3 2,5 5,3 227,14 264,17 44,4 87,6 131,9 46,3 90,8 134,10 33,1 93,8 130,11 109,8 216,21 324,30 23,2 42,5 68,6z"/>
   <path class="fil3" d="M568 1277c2,9 -3,38 -3,54 15,-12 10,-17 10,-37 -4,18 -2,30 -1,45 7,1 14,1 21,0 13,-1 4,-2 17,0 0,-5 0,-8 1,-13 1,-11 -1,-11 -1,-13 -4,-10 -1,-14 0,-24 -10,3 -8,-8 -9,10 0,-7 0,-9 2,-15l1 -7c-3,-15 -3,5 -3,-5 12,-3 7,-5 23,-5 -2,-15 -1,-5 -5,-13 10,1 10,6 13,12 0,0 1,1 1,1l6 -2c1,0 1,0 1,-1 1,0 1,0 2,0 0,0 7,-1 10,-5 0,0 -1,-1 -1,-1l-3 -2c-4,-5 -1,-4 -6,-17 10,4 5,5 7,10 1,6 -5,1 4,6 0,-10 1,-13 2,-22l3 -13c0,-1 0,-1 0,-2l3 -8c1,-10 0,-46 -2,-51 -9,1 -2,-1 -7,3 -10,8 2,0 -7,8 0,0 -1,1 -1,2 1,0 2,0 2,1l4 2c5,4 -2,-9 2,3 2,5 3,9 3,14 -2,28 -1,14 -17,20 2,10 1,4 4,7 1,1 3,2 3,2 9,5 0,-2 4,2 -2,10 -9,19 -16,15 4,-8 7,-4 12,-7 6,-4 2,1 5,-6 -4,-2 -1,-2 -6,-2 -9,-1 -8,5 -16,6 1,-7 1,-3 8,-8 0,-1 1,-1 2,-2 -11,0 -12,1 -12,-9l9 -1c1,0 2,-1 3,-1 -4,-15 -5,0 -9,-15 -2,-8 -8,-10 -10,-15 5,-1 4,0 11,2 -2,-11 -4,-12 8,-13 -8,-10 -9,-11 -11,-25 -2,-15 -3,7 0,-9 0,-1 0,-1 1,-2l1 -19c13,-3 3,-4 17,-12 1,0 2,0 2,-1l0 -6c9,-7 6,10 7,-11 0,0 -1,6 -1,7 3,10 -1,4 7,10l0 -19c6,0 0,-1 2,2l2 4c3,-16 -1,-6 7,-10 12,-170 33,-338 46,-509 1,-21 5,-40 6,-63 5,-58 15,-136 18,-189 2,-22 5,-40 9,-61 11,-63 18,-117 25,-181 35,-8 45,-5 83,-7l171 -5c18,0 71,4 83,-3 -6,-8 -26,-10 -35,-11 -45,-8 -70,-10 -119,-9 -38,1 -442,16 -483,32 20,16 81,9 99,72 14,49 11,100 11,156 1,57 2,112 3,168 1,111 -4,224 -6,333 0,27 0,58 -3,83 -5,44 -6,34 -3,73 5,55 -6,109 -4,165 1,11 3,33 1,43 -2,10 -5,6 -6,17 0,7 3,11 4,19 2,28 -8,55 -6,78z"/>
   <path class="fil4" d="M1453 1150c1,6 1,3 3,7 5,-4 4,-7 12,-9 6,7 1,2 3,10l2 14 -7 2c0,0 -1,11 7,2l-11 6 9 5c2,0 4,1 6,2 13,5 30,6 45,9l0 -9c0,12 -1,1 2,8l8 -7c4,-4 -1,-3 9,-4l4 9c0,1 1,3 1,2 0,0 1,2 1,2 13,-2 7,-1 21,0 0,-12 3,-27 0,-34 -11,-2 -12,-4 -23,0l0 -8c5,-2 8,-3 14,-3 3,1 4,2 12,1 0,7 -2,-5 -2,6l6 17c4,-5 8,-5 13,-8 4,-1 2,0 5,-3l-11 -4c-4,-2 -1,0 -5,-2 4,-3 10,-3 16,-3 -2,-6 3,-10 -6,-6 17,-4 -1,-6 11,-4l0 36c1,1 6,4 7,4 2,3 2,-3 2,7 -1,0 -1,1 -2,1l-4 5c9,1 7,1 13,-3 4,-3 25,5 33,6 -3,-6 4,-6 -8,-9 4,-2 0,-2 6,0 7,3 6,3 15,4l-3 -9c-2,-4 -3,-7 0,-11 3,-5 5,-16 10,-16 6,-1 7,3 8,4 -3,2 -7,3 -11,5 0,25 -5,28 19,32 -2,-10 -2,-19 -2,-32 5,0 2,17 2,21l20 11c2,-2 3,-4 6,-5 0,0 3,0 3,0 9,-2 0,3 3,-2 1,4 1,4 1,4l4 6c9,-5 3,3 6,-9l49 0c0,0 1,1 1,1 1,0 1,0 2,0 0,1 1,1 1,1l9 1c9,0 11,-3 17,1l4 4c5,-7 4,8 4,-9 1,1 3,1 4,1l11 1c0,0 0,1 1,1 9,-1 7,-5 18,-1l2 -6c2,-6 -3,1 2,-5 2,-3 4,-2 9,-2l0 3c5,2 -1,1 2,12l8 -4c0,-3 -4,-2 3,-2 6,12 11,4 13,3 7,0 -3,1 6,1l4 0c19,-3 6,9 20,0 8,-5 1,-10 10,-10 5,8 8,7 17,4 -2,-18 0,-7 -13,-14 -12,-6 9,-2 -8,-7l15 0c0,15 -1,5 6,8 1,-2 3,2 3,-9 -1,-8 -2,-2 -4,-8 -4,-8 2,-7 3,-10 4,-9 0,-19 0,-30 -21,5 -34,-3 -33,12 0,4 1,5 2,6 0,0 3,4 4,7l-9 0c1,0 1,-2 2,-2l-3 -9c-4,-4 -9,-6 -9,-12l14 1c0,-1 7,-2 7,-2 6,-2 7,-7 15,-5 6,2 -2,1 5,2l5 -1c2,-3 -3,-2 5,-2l-4 -4c0,0 -1,-1 -1,-1l-14 -7 -8 5c-5,4 -1,-1 -4,4 2,-7 1,0 3,-12l-11 0c4,0 4,1 7,1 1,0 4,1 4,1l23 -2c3,-2 2,-18 2,-22 0,-8 -2,-16 5,-20l-3 -5c-2,-3 -4,-4 -4,-9 2,15 -2,4 9,7 0,-11 -2,-12 -6,-21l14 0 3 -23c2,-13 0,-2 2,-8 6,-20 1,-39 2,-58 1,-9 3,-1 3,-13 0,-4 -1,-12 -2,-16 -3,1 6,-3 3,-7 -2,-3 -3,-4 -3,-8 1,-10 1,-6 -2,-8 -18,6 -396,3 -483,3 -39,0 -32,-11 -32,61 0,45 4,106 -2,148 -2,13 2,27 2,46z"/>
   <path class="fil5" d="M1996 775c3,17 -3,33 -2,49 -6,23 -9,75 -11,101 -3,31 -6,69 -11,100 -5,32 -10,67 -13,98 -3,27 -8,71 -14,95 -19,4 -124,0 -148,-1 -21,-2 -49,-2 -71,-3 -24,-2 -47,-2 -72,-3 -92,-2 -198,-18 -277,-19 -48,-1 -96,-3 -145,-4 -55,-1 -143,-12 -205,-15 -73,-4 -134,-2 -214,-9 -7,-19 27,-422 35,-494 8,-79 15,-161 23,-240 3,-30 17,-224 21,-244 23,-2 282,-1 295,1 22,4 49,2 73,3 75,1 239,-2 295,3l69 5c47,2 96,3 141,7 47,4 98,1 144,6 46,4 123,-3 145,0 2,22 -12,110 -15,140 -4,48 -9,95 -13,143 -4,45 -12,95 -15,141l-15 140zm-244 468c59,0 116,2 176,2 40,1 42,-3 48,-40 5,-25 9,-51 12,-76l11 -79c11,-65 23,-173 27,-236 2,-27 7,-57 8,-81l7 -81c7,-52 7,-111 14,-164 7,-64 12,-132 21,-200l10 -79c-1,-10 -12,-11 -18,-25l-91 1c-174,2 -340,-20 -515,-19 -184,-1 -373,-6 -556,-6l-43 -1c-7,18 -10,94 -11,118 -2,39 -6,80 -8,117 -2,52 -12,184 -18,233 -10,74 -20,150 -25,227 -6,84 -15,146 -15,237l1 51c-1,26 -11,18 -17,32 6,18 22,22 44,21 175,-10 271,19 437,21 84,0 173,1 253,12 77,10 165,15 248,15z"/>
   <path class="fil3" d="M453 150c-3,14 0,62 0,80 0,79 -6,159 -5,234 0,53 5,105 3,158 -1,14 -3,23 -2,38 1,11 3,23 4,36 9,104 11,287 8,390 0,18 -9,186 -14,208 -3,15 -1,5 -7,12 -10,12 3,15 -18,23 -8,3 -19,9 -22,14 1,9 -1,2 3,5 0,0 1,0 1,0 0,0 1,1 1,0 0,0 1,0 1,0l1 10c-9,2 -14,2 -10,7 -6,-1 -5,-3 -9,-8 -14,3 -18,8 -34,8 0,1 0,2 0,2l-1 5c-1,2 -10,-6 -20,2 7,5 37,2 53,2 35,0 0,-4 47,-4 -5,-16 -7,-10 -10,-14 11,0 2,0 6,2 16,6 7,2 17,1 0,13 -2,6 4,9 8,4 12,-2 12,-2 4,5 -4,-1 5,6l3 -3c6,-5 5,-5 14,-6l20 -4c1,-1 2,0 3,0 31,-12 29,-281 31,-319 4,-112 9,-226 9,-341 -1,-57 3,-114 3,-173 0,-100 6,-245 -3,-341 -3,-30 -9,-44 -29,-59 -13,-9 -46,-25 -65,-23 -6,2 -24,0 -30,-2 0,0 0,1 0,2 0,0 0,1 0,1 0,1 0,1 0,2l0 1c0,0 1,0 1,0 0,0 0,0 0,0 -16,0 -16,3 -35,1 -9,-2 0,-1 -11,-9 -1,1 -1,1 -1,2l-2 3c0,0 0,2 0,3 -1,2 4,-4 -2,3 0,0 -3,-4 -3,-4 -2,-2 1,-2 -5,-3l-12 4c-5,4 -1,5 -11,2 -15,-5 -20,-1 -36,1 -4,0 -2,-2 -5,1 1,0 8,0 8,0 11,-2 5,1 11,-7l-26 0 0 7c-4,-11 0,-2 -8,-6l-4 6c-2,-4 -2,-3 -5,-4l-3 0c0,0 -2,0 -2,0l-19 0c-1,0 -1,1 -2,1l-25 -1c-55,0 -49,-4 -49,25 1,1 2,1 2,1 13,7 45,4 56,4 10,0 -2,0 7,0 9,-1 12,3 35,1 13,-1 25,-5 36,-6 14,0 97,-1 114,3l8 3c11,2 21,-4 18,10z"/>
   <path class="fil5" d="M613 1670c2,-1 -3,-5 16,0 17,5 42,6 47,17 -2,1 2,2 -7,2l-27 -5c-17,-5 -26,-4 -29,-14zm591 -13c0,-4 -2,-6 10,-11 15,-7 50,-5 63,0 -1,8 -2,9 -10,12 -19,8 -46,4 -63,-1zm-500 -10c-16,23 -83,15 -70,-3 1,0 25,-16 38,-15 9,1 13,3 21,5 11,1 18,1 11,13zm471 -26c1,3 7,5 9,5 4,1 7,2 11,4 -1,22 -48,16 -65,12 -21,-4 -17,-3 -20,-8 3,-5 6,-7 13,-9 26,-11 33,-1 52,-4zm-317 31c-1,-12 6,-16 13,-21 11,-8 12,-3 22,-16 20,-2 36,2 55,7 14,3 12,4 14,8 -4,10 -23,17 -32,24 -23,17 -19,7 -72,-2zm-481 -22c1,-7 3,-13 7,-18 23,3 45,5 44,30 -14,-6 -37,-6 -51,-12zm646 -11c0,-9 2,-12 9,-14l3 0c0,0 1,-1 1,-1 18,-5 54,1 61,4 2,16 -15,22 -31,21 -16,0 -30,-6 -43,-10zm-694 -14c21,2 26,-3 20,19 -7,0 -26,-4 -37,-6 -15,-2 -29,2 -23,-19 8,-4 20,3 40,6zm430 22c11,-7 12,-6 19,-10 3,-2 2,-1 5,-4l15 -10c1,-1 1,-1 2,-1 0,0 5,-3 6,-3 12,-4 54,1 61,7 -2,6 -4,6 -9,11 -4,4 -6,6 -11,9 -6,4 -20,13 -26,15 -10,5 -38,-2 -50,-6 -10,-3 -9,-3 -12,-8zm182 -43c5,-2 69,9 70,10 1,17 -27,19 -43,18 -11,-1 -16,-4 -25,-6 -10,-3 -16,-4 -20,-11 2,-4 13,-10 18,-11zm-249 32c4,-25 60,-44 82,-27 -3,12 -22,23 -32,28 -17,9 -36,4 -50,-1zm-315 -20c10,-30 74,-14 97,-8 -12,27 -79,16 -97,8zm492 -8c-17,-3 -27,-2 -29,-14 7,-6 47,2 55,5 8,3 2,0 5,4 -2,5 -7,7 -14,8 -6,0 -11,-2 -17,-3zm-560 -5c2,-7 2,-8 10,-12 5,-2 11,-3 18,-3 10,0 28,4 34,8 -6,17 -49,12 -62,7zm300 13c17,-26 66,-36 83,-24 -1,8 -9,11 -15,15 -26,14 -22,22 -68,9zm192 -23c-9,2 -30,-3 -36,-7 2,-15 39,-3 45,2 -2,4 -1,4 -9,5zm-71 -23c-3,9 -7,10 -18,9 -7,-1 -14,-2 -19,-6 6,-13 27,-5 37,-3zm68 -16c8,-6 3,-6 12,-7 8,-1 43,6 50,8 -4,20 -64,29 -62,-1zm-164 4c7,-6 16,-4 24,-2 -2,9 -1,11 -14,9 -8,-1 -8,-2 -10,-7zm102 -4c0,-9 3,-11 16,-12 15,-1 18,0 23,5 -3,6 3,3 -7,7 -7,3 -26,2 -32,0zm-217 -10c5,-8 1,-6 15,-9 13,-2 30,1 43,5 15,3 13,1 16,7 -8,12 -64,1 -74,-3zm152 -2c0,-12 9,-11 19,-10 11,2 10,5 12,7 -8,8 -19,6 -31,3zm-207 -10c5,-1 30,-12 46,-4 -6,14 -28,11 -42,10l-4 -6zm124 -10c-8,-2 -8,0 -10,-7 10,-4 20,-1 29,1 7,2 20,3 24,10 -9,5 -21,3 -30,0 -5,-2 -7,-2 -13,-4zm-45 -11c-4,3 -7,3 -14,2 -8,-2 -6,-3 -8,-10 9,0 6,-2 22,8zm66 -37l198 40c16,2 53,7 64,13 -44,0 -85,-10 -127,-14l-122 -20c-85,-15 -108,-24 -174,16l-46 23c-1,-1 -1,1 -2,1 9,1 6,-1 16,-1 -6,6 -4,3 -4,13l-12 0c3,4 -3,2 3,1l20 -10c1,-3 8,0 12,0 1,0 8,-1 10,-2l7 -4c0,-1 1,-1 1,-2l11 4 -2 1c0,1 -1,1 -1,2 0,0 -1,1 -1,1 0,1 1,9 1,9l-32 0c-9,2 -9,5 -11,9 4,-1 12,-2 15,-2 4,0 3,0 6,1 5,1 2,0 6,3 -3,8 0,2 -6,8 -3,1 -6,3 -8,5 -5,3 -10,6 -17,8 -8,3 -15,3 -24,3 -23,1 -19,-1 -20,-6l-5 -1c-1,1 -1,1 -1,2 -1,1 -1,1 -1,2l-2 4c0,1 0,1 0,2l0 3c-5,-2 -9,-4 -13,-1 0,-1 -1,-2 -1,-3 0,0 0,-1 0,-2l1 -9c-12,3 -10,1 -18,2 7,0 4,-1 8,2 9,6 3,-1 1,4 0,0 -3,1 -3,1l-18 -1c-1,5 -8,13 -14,14 -4,0 -6,-4 -6,-6 -4,-8 2,7 -1,-3 3,-4 0,-2 7,-5 4,-2 2,3 3,-2l2 -10c2,2 3,5 5,-1l-11 2c-5,0 -3,-1 -8,-1 -9,-1 -10,1 -20,2 -1,-5 0,-10 -4,-13 0,1 -1,12 -1,12 -2,9 -3,9 -7,11 0,0 -1,0 -1,1l-2 1c-14,7 -14,2 -23,13 16,-2 21,-9 36,-11 -4,10 -3,4 -14,13 -2,15 4,44 10,53 7,10 80,19 104,26 13,4 44,10 58,11 -4,-7 2,-5 -9,-9 -3,0 -9,-1 -15,0l6 -10c0,0 -7,-2 9,-3l13 3c0,-8 -1,-6 -1,-11l-1 -21c1,0 9,0 9,0 5,-1 -9,9 4,-5 13,0 9,-3 21,-6 -4,11 2,4 -6,9 -8,5 -3,1 -5,0 14,0 6,-2 14,-9 0,-1 1,-1 1,-2 1,0 1,0 2,-1l9 -7c5,-10 7,6 0,-3 -6,-13 1,-7 -7,-11 -2,-1 -2,4 -4,-1 0,-1 -1,0 -2,-1 12,0 34,4 39,2 9,-3 4,-1 7,-6 -39,4 -30,-3 -61,-9 -4,-1 -6,-1 -11,-1l-8 -3c11,-25 90,-25 113,-15l-8 10c-1,1 -1,2 -2,2 0,-1 -1,1 -1,1 2,0 5,-1 6,-1 10,-4 0,0 5,-3 1,0 4,-2 5,-2 13,-3 9,4 9,4 2,10 -4,3 -3,17 25,-8 27,-23 65,-17 0,13 -18,22 -27,26 -12,6 -28,7 -44,5 -6,3 -5,8 -6,5 0,0 -1,1 -1,1 -6,-1 -13,-1 -19,-1 -1,0 -9,1 -9,1 -8,2 -3,-3 -8,5 15,-1 31,-2 42,5 -1,12 -4,5 -13,16 6,2 4,1 6,6 26,-10 22,-15 37,-15 9,0 22,4 31,6 1,1 4,2 5,2l5 2c-2,8 -8,9 -15,13 -8,5 -8,9 -17,8 -7,0 -35,-7 -45,-9 0,2 1,5 2,7 2,0 10,0 9,4 -16,3 -32,-7 -29,7 11,-3 23,0 35,2 6,1 10,3 15,6 7,4 7,3 8,12 -8,1 -24,-3 -33,-5 -10,4 -1,-5 -7,6l8 0c-1,8 -4,3 -7,4 -11,6 4,-6 -4,4 -1,0 -1,1 -1,1l-3 4c-7,-4 -8,-5 -17,-3 6,5 53,13 60,14l123 24c20,4 44,10 65,13l-20 -10c4,-6 -6,3 3,-3 6,-4 6,-1 12,-1 -2,2 0,6 -1,-2l-1 -15c-3,5 -7,4 -15,3 -10,-1 -34,-5 -38,-14l23 0 0 -8c-11,0 -12,-2 -23,0 -1,0 -1,0 -2,0 -11,1 -9,1 -13,-2l6 -3c8,-2 18,-2 26,0 1,0 3,1 4,1 8,2 13,2 22,2 20,0 16,-2 17,-5 -12,0 -53,-2 -62,-6 1,-10 30,-25 35,-24l38 9c8,2 7,2 7,11 3,-1 13,2 5,-12 -4,-6 2,1 -6,-4l-5 -3c14,-4 12,1 13,4 4,0 2,1 2,-7 9,5 9,6 19,4 16,-4 7,-7 15,1 -5,3 -6,3 -11,6 -13,6 5,2 -10,4 11,2 3,-1 6,7 -7,4 -9,-3 -6,2 -8,11 -7,-3 -5,13 10,-5 11,-14 37,-13 9,0 36,4 42,7l-1 9c6,-1 1,2 10,-3 -1,13 4,7 -4,10 0,0 1,0 1,0l5 2c-11,11 -6,-2 -8,13 12,11 35,7 59,7 2,-2 2,-6 2,-7 -13,3 -41,5 -53,-2 3,-23 60,-26 70,-13 -2,7 -3,4 -8,11 12,0 8,3 15,0l0 -8c0,0 0,-9 0,-9l30 -6c1,0 1,0 2,0 1,0 1,0 2,0 17,-3 12,-1 15,3 0,0 0,1 1,1 0,0 0,1 0,1 0,0 -1,1 -1,1 0,-1 0,0 0,0 6,0 16,-5 11,-11 0,0 7,2 -7,6 -6,2 5,0 -6,1l7 -15c-17,3 -39,17 -74,5 0,-19 38,-38 54,-37l38 9c5,4 3,-1 4,7 12,-2 9,-7 9,7 2,4 1,1 2,6 0,7 -1,4 -1,5 10,-3 26,-14 33,-15 3,0 33,6 43,7l0 8 8 0 2 -6c0,-1 1,-1 1,-2 0,-2 1,-2 2,-3 2,4 0,2 8,2l0 -6c5,0 9,0 13,0 7,-2 4,-2 9,-3 10,-2 9,0 16,3 -6,8 1,3 -8,6l-19 -4 0 11 -13 0 1 10c13,-7 14,-10 35,-6 9,2 29,4 36,9 -4,13 -24,25 -38,27 -19,2 -47,-2 -60,-8 1,-13 1,0 13,-17l-11 2c0,0 -1,1 -1,1 -7,3 -2,-1 -6,4 0,1 2,3 -4,6 -3,1 -5,-1 -5,-2 -2,9 -2,1 -7,16l-4 0c-1,0 -1,-1 -2,-1 -1,1 -1,1 -2,1 -8,3 -2,-1 -7,6 26,-2 45,0 66,8 -10,18 -33,22 -57,21 5,4 -2,1 8,4l20 0c16,-2 3,-3 23,-9 -4,9 0,5 -11,7 11,3 6,-1 13,15l11 -2c-1,0 -2,-1 -2,-1l-5 -6c8,-17 53,-29 74,-15l-2 9c7,-3 8,6 7,-9 -1,-9 0,-3 -5,-6 -16,-8 -7,10 -12,-9 5,3 9,2 14,1 -3,-3 -11,-2 -16,-5 2,-16 26,-25 41,-28 28,-6 37,-2 62,3 0,-5 -4,0 1,-7 0,3 -1,4 3,6 13,7 8,1 9,-2 -8,-5 -5,-11 -17,-13 -10,-3 -18,-1 -26,-4 2,-11 9,-8 21,-14 8,-4 -1,-3 10,-3 9,0 34,3 48,3 -5,-8 -2,-4 -12,-8l-4 -1c25,-3 36,2 45,1 -3,-4 -1,-4 -8,-6 -15,-5 -40,4 -33,-13 9,-20 55,-4 68,-3 -11,-16 -18,0 -18,-20 -19,-2 -15,-8 -22,0 -4,4 -3,1 -4,5 9,0 4,-2 9,-4 1,-1 -5,-5 8,-2 8,2 3,-2 6,6 -3,7 1,4 -8,6 -10,3 -9,-6 -28,0l2 -9c-4,7 -4,4 -15,5 1,-8 3,-11 5,-13 -5,-4 0,-1 -7,-2 3,1 2,-3 2,4 0,10 -7,2 2,19 0,0 -1,-1 -2,-1 -6,-2 -6,-3 -8,-1l0 -13 -9 2c2,4 1,2 2,7 -17,25 -72,10 -78,6 3,-6 7,-5 12,-10l-2 -12 -8 -1c0,10 2,8 -4,13 -4,-6 -1,0 -2,-7 0,0 1,-3 1,-4 0,-4 0,-7 0,-13 -12,0 -26,-1 -38,2 4,3 10,4 15,4 6,1 11,1 16,2 1,8 -4,11 -11,15 -4,9 -27,-4 -39,7 -1,0 -1,1 -2,1l-7 2c0,0 -1,-1 -2,-1l-16 0c-5,-6 -12,-6 -19,-6 -4,-1 -2,0 -6,-1 -16,-3 -18,-6 -20,-12 4,-1 10,0 14,-2 11,-5 6,-1 5,-9 -17,4 -17,7 -39,3 -12,-3 -25,-4 -34,-9l2 -7c-12,-1 0,2 -17,5 2,-9 1,-6 5,-14 -21,8 -30,12 -58,9 -6,-1 -46,-10 -50,-12l8 -9c-13,-4 -10,4 -18,9 3,-12 4,-8 5,-20 -7,-5 8,-2 -11,-4 -4,0 -7,1 -10,1l9 4c7,2 3,0 7,4 -9,23 -66,10 -81,2 4,-13 6,-3 15,-14 -11,-2 -4,-2 -14,3l-4 -11c-4,-5 -12,-1 -5,-8 -8,-1 -7,0 -13,-4 1,-1 2,-1 2,-1l20 -3c0,0 1,0 2,0l17 2c10,-2 16,-9 23,0 -2,-8 -2,-3 1,-8 8,-9 5,-1 6,-1 0,1 0,4 0,4l0 11c-5,-1 -5,2 -5,-2 15,0 14,8 34,3l-13 -5c14,-10 63,6 77,7 0,5 0,3 -1,6 3,5 2,5 7,6 19,1 7,-1 11,-4 -3,-10 1,-9 -12,-11 3,-8 2,0 -1,-4 -1,0 -2,-1 -2,-2 0,0 -1,0 -1,-1l-11 -10c0,1 4,-3 -3,7 -28,1 -8,-1 -36,4 -4,-8 0,-4 -13,-7 12,-10 4,2 7,-6 0,0 0,0 0,0l-3 1c-4,-2 -2,1 -4,-5 -3,-5 -2,-12 -2,-17 11,3 9,-8 9,12 3,0 9,1 11,0l3 -1c8,-2 4,-3 14,-3 -3,8 -2,4 -5,8l-10 7c-4,1 1,2 -2,0l26 0 -1 -11c-10,0 8,1 -2,1l-5 0c0,-1 -1,0 -1,-1 2,-13 2,-3 6,-13 2,-7 1,-10 6,-16 1,0 1,1 2,2l4 8c2,4 2,4 7,4l3 -6c1,-1 1,-1 1,-2l3 -6c0,22 4,17 11,15 -3,-4 -4,-5 -7,-9 3,-8 5,-11 12,-15 6,-4 15,-5 19,-10l-16 -1c0,-6 1,-3 -2,-4 -3,10 1,4 -7,11l-6 -24c-1,6 2,5 -4,3 -7,-2 -4,3 -5,-5 -3,7 1,3 2,5 5,8 3,-5 5,10 -3,3 5,5 -10,5 -6,0 -3,4 -5,-5 -3,16 -1,3 1,12 0,0 1,1 1,1l0 4c10,-1 -6,0 4,-3l4 10c0,1 -2,5 -2,8l-9 -6c-7,-2 -1,8 -8,-5 0,18 -3,9 -6,9 -4,-11 2,-14 2,-30 -10,9 -5,32 -10,38 -5,7 -102,-12 -106,-13l-208 -35c-35,-4 -69,-16 -105,-19 2,6 0,4 3,8 11,0 14,2 24,2 -3,1 -5,0 -5,4 9,-7 8,2 11,-4 0,-1 1,0 2,0l6 6c1,0 7,0 9,0 -1,1 -1,2 -2,2 0,1 0,1 -1,2 0,0 -1,1 -1,1 -1,1 -1,1 -1,1l-1 6c4,4 -3,3 8,3 6,-2 13,-3 15,2l1 -12c0,-2 0,-2 1,-3 7,3 7,0 10,9 2,8 0,13 -6,13 -1,0 -1,0 -2,0 -8,0 -12,-2 -22,1z"/>
   <path class="fil5" d="M424 620c-1,55 4,112 5,166 0,58 2,113 2,170 0,58 2,110 0,167 -1,31 -7,19 -7,78 0,19 4,72 -5,83l1 5c-2,23 -15,26 -48,35 -57,16 -156,16 -190,-36 -34,-50 -27,-148 -31,-212 -3,-62 -7,-186 -1,-239 2,-24 6,-52 5,-77 -1,-15 -7,-21 -8,-34 -4,-37 8,-220 9,-279 0,-27 -1,-55 1,-82 18,-5 254,-6 265,-1 6,3 2,48 2,49l-1 6c-1,0 -1,1 -1,1l2 200zm-263 -314c44,-1 90,3 133,-1 16,-1 119,-7 128,0 6,6 5,16 4,26 -10,3 -59,-1 -74,-1 -25,1 -49,2 -75,3 -15,1 -99,5 -112,1 -11,-2 -9,-3 -4,-28zm263 -35c-15,2 -109,0 -134,0 -20,0 -44,2 -66,3l-57 2c-14,-2 -4,-33 -2,-35 28,-3 185,-5 220,-1 29,2 52,-9 39,31zm-260 -90c44,-7 87,-3 132,-8 20,-2 115,-1 131,3 3,13 3,19 -3,30 -7,3 -112,1 -130,1 -22,0 -44,1 -66,1 -71,0 -64,4 -64,-27zm-31 1081c4,4 5,7 3,15 11,7 9,28 38,55 37,34 138,35 191,25 18,-3 21,-9 35,-14 3,-5 14,-11 22,-14 21,-8 8,-11 18,-23 6,-7 4,3 7,-12 5,-22 14,-190 14,-208 3,-103 1,-286 -8,-390 -1,-13 -3,-25 -4,-36 -1,-15 1,-24 2,-38 2,-53 -3,-105 -3,-158 -1,-75 5,-155 5,-234 0,-18 -3,-66 0,-80 -9,-5 -4,-5 -16,-6 -63,-5 -158,-1 -220,4 -27,2 -54,1 -80,4 -13,16 -5,37 -8,62 -3,24 -3,45 -3,69 0,21 -3,47 -3,68 0,119 -6,236 -7,354 0,95 -1,191 -3,285 -2,61 -3,180 13,241 2,7 6,25 7,31z"/>
   <path class="fil4" d="M342 864c-4,8 -34,40 -45,50 -17,15 -53,-4 -69,-19 -28,-26 -2,-108 64,-107 19,0 40,6 46,19 6,13 10,42 4,57zm-11 -147c-15,-1 -102,-2 -110,1 -4,4 -19,6 -26,6 -18,1 -13,3 -26,7l6 15c0,6 0,14 -1,20l2 35c1,0 4,4 0,-1 -1,-3 -1,-3 -5,-1l2 17 -8 6c0,1 -1,1 -1,1 -6,5 -7,3 -10,12l9 5 -7 3 2 26 19 0 0 19 -23 0c4,20 2,47 2,71l2 -20 19 0 0 43 -19 0 -2 51 17 0c0,5 0,4 1,8 0,1 1,2 1,2 0,1 0,1 1,2 0,0 0,1 0,1l1 3c4,18 -3,35 -1,54 2,11 1,25 1,37 0,8 -4,32 2,34 9,2 7,0 7,-22 0,-8 0,-17 0,-25l8 0 0 49c22,-6 9,-14 24,-19 -7,-9 1,-3 -8,-5 -9,-3 -2,0 -4,1 6,-10 -2,-7 -2,-24l1 -17c0,0 0,-1 -1,-1l-1 -7c3,2 22,-3 31,0 9,2 -1,1 6,2 0,0 9,-3 28,-2l30 -1c1,0 2,0 2,0l21 0 1 24c3,1 -4,2 7,1 7,-1 6,-2 8,-7 0,-2 0,-14 0,-18 8,0 6,16 15,24 0,-10 3,-12 0,-15 9,6 1,-2 4,7 3,6 0,0 3,6l3 4c1,-8 0,-13 3,-20 9,13 9,8 0,26 5,5 -9,5 10,5l0 2c-2,1 -4,2 -8,4 -9,5 0,0 -9,0 0,0 -1,0 -1,0 -22,3 -4,-1 -16,-2l1 3c0,1 0,1 0,2 1,12 -2,19 4,30 4,7 -3,5 -7,12 2,5 3,5 2,13l13 -9c6,0 7,5 11,6l2 -4c3,-5 6,-11 -1,-15 -4,-2 -3,0 -7,-6l-1 0c0,0 0,0 0,0 6,-8 12,7 15,-11l14 1c0,0 1,0 2,0 0,-1 1,-1 1,-1l0 -10c-6,-6 -11,-5 -19,-5 2,8 11,-3 14,-6 2,-2 0,-1 3,-2 7,7 9,15 11,11 1,0 1,1 2,2l9 0c3,2 1,3 6,4 3,-11 2,-24 1,-34 -1,-7 -2,-5 0,-12 4,-13 1,-9 1,-9l-1 -5c0,-1 0,-1 0,-1 -1,-4 -2,4 -1,-9l1 -23c0,-12 -2,-20 3,-32 2,-7 -1,-9 1,-15 4,-14 -17,-53 1,-65 -1,-10 -3,-16 -6,-19 0,1 -8,-1 2,3 5,2 1,1 6,1 0,-10 3,-29 0,-36 -4,-1 -6,3 -6,7 -1,-11 -2,-4 -1,-15l0 -28c0,-1 -1,-6 -1,-9 -1,-15 1,-10 2,-11l4 -4c-6,-3 -8,-6 -6,-13 1,11 1,4 4,6 0,-5 1,-7 0,-11 -2,-10 -2,3 -1,-3 1,-7 4,3 3,-10 -1,-4 -3,-9 -3,-13 0,0 3,-14 1,-17 -3,-4 -1,-3 -1,-11 0,-7 -4,-5 -3,-13l1 -6c0,0 0,-1 0,-1 0,-1 -1,-4 -1,-5l-2 -24c-5,2 -4,3 -8,1l4 -5c1,-9 0,2 -2,-7 -2,-6 -1,-2 -2,-8l0 -3c0,-1 0,-1 -1,-1 -4,6 1,14 -4,20 -4,3 -10,7 -18,8 -9,0 -22,-1 -28,-2 -18,-3 -24,6 -24,-8z"/>
   <path class="fil6" d="M1101 1762c1,19 -9,16 -25,11 -12,-3 -26,-5 -39,-8 -3,-24 7,-20 25,-15 17,5 24,4 39,12zm-142 -30c19,-2 53,1 53,25 -17,3 -40,-5 -58,-7 -3,-11 1,-12 5,-18zm-30 -3l0 13c-9,1 -48,-8 -55,-11 -1,-17 9,-12 23,-10 13,2 23,2 32,8zm-134 -16c6,-14 32,-8 44,-1 6,4 6,4 8,12 -18,0 -49,-9 -49,-10l-3 -1zm268 -9c-5,22 -68,23 -77,13 -14,-17 59,-23 77,-13zm136 90c5,-28 39,-30 64,-44l190 -101c11,-6 21,-22 35,2 -10,22 -112,56 -141,75 -5,3 -9,9 -14,11 -5,3 -13,6 -19,8l-70 37c-13,7 -26,13 -45,12zm-190 -262c-7,-1 -13,-1 -20,-2 -5,-1 -7,-2 -13,-3 -8,-1 -24,-4 -30,-3 -20,5 -19,-3 -34,-3 0,4 0,1 5,2l0 -11c0,0 0,-3 0,-4 -1,0 2,-8 -6,1 -3,5 -3,0 -1,8 -7,-9 -13,-2 -23,0l-17 -2c-1,0 -2,0 -2,0l-20 3c0,0 -1,0 -2,1 6,4 5,3 13,4 -7,7 1,3 5,8l4 11c10,-5 3,-5 14,-3 5,1 47,5 50,4 3,0 6,-1 10,-1 19,2 4,-1 11,4 -1,12 -2,8 -5,20 8,-5 5,-13 18,-9 16,0 27,-3 49,0 17,3 29,6 49,8l2 4c-4,8 -3,5 -5,14 17,-3 5,-6 17,-5 13,-1 5,-12 37,-5 11,3 24,7 36,10 0,0 -1,3 -1,3l-1 5c1,8 6,4 -5,9 -4,2 -10,1 -14,2 2,6 4,9 20,12 4,1 2,0 6,1 7,0 14,0 19,6l16 0c1,0 2,1 2,1l7 -2c1,0 1,-1 2,-1 12,-11 35,2 39,-7 -18,4 -61,6 -68,-12 13,-21 28,-5 48,-9 12,-3 26,-2 38,-2 0,6 0,9 0,13 0,1 -1,4 -1,4 1,7 -2,1 2,7 6,-5 4,-3 4,-13l8 1c10,2 60,10 66,9l9 -2 0 13c2,-2 2,-1 8,1 1,0 2,1 2,1 -9,-17 -2,-9 -2,-19 0,-7 1,-3 -2,-4 7,1 2,-2 7,2 -2,2 -4,5 -5,13 11,-1 11,2 15,-5l-2 9c19,-6 18,3 28,0 9,-2 5,1 8,-6 -3,-8 2,-4 -6,-6 -13,-3 -7,1 -8,2 -5,2 0,4 -9,4 1,-4 0,-1 4,-5 7,-8 3,-2 22,0 0,20 7,4 18,20 0,0 3,1 5,2 4,2 2,0 5,4 -4,7 -1,3 -16,10 -9,4 -9,4 -21,6 -9,1 -20,-4 -45,-1l4 1c10,4 7,0 12,8 1,0 3,1 4,1 4,4 2,-1 3,5 -8,10 -32,18 -40,23 -3,1 -2,1 -3,2 -1,3 4,9 -9,2 -4,-2 -3,-3 -3,-6 -5,7 -1,2 -1,7 -5,13 -28,22 -37,27 -5,2 -19,8 -24,9 -10,1 -14,-6 -26,-6 -5,1 -9,2 -14,-1 5,19 -4,1 12,9 5,3 4,-3 5,6 1,15 0,6 -7,9l-30 18c-22,12 -14,11 -25,28 -13,1 -42,-4 -51,-10 -3,-29 21,-4 53,-6l5 -11c-6,-5 -8,-7 -17,-6l-11 2c-7,-16 -2,-12 -13,-15 11,-2 7,2 11,-7 -20,6 -7,7 -23,9l-20 0c-10,-3 -3,0 -8,-4 -12,-2 -28,-4 -37,-11 9,-14 25,-15 28,-18 5,-7 -1,-3 7,-6 1,0 1,0 2,-1 1,0 1,1 2,1l4 0c5,-15 5,-7 7,-16 0,1 2,3 5,2 6,-3 4,-5 4,-6 4,-5 -1,-1 6,-4 0,0 1,-1 1,-1l11 -2c3,0 4,1 8,0 6,-2 4,0 6,-5l-1 -10 13 0 0 -11 19 4c9,-3 2,2 8,-6 -7,-3 -6,-5 -16,-3 -5,1 -2,1 -9,3 -4,0 -8,0 -13,0l0 6c-8,0 -6,2 -8,-2 -1,1 -2,1 -2,3 0,1 -1,1 -1,2l-2 6 -8 0c-3,0 -56,37 -84,15 1,-9 0,-4 3,-9 3,-5 2,1 5,-6 0,-1 1,2 1,-5 -1,-5 0,-2 -2,-6 0,-14 3,-9 -9,-7l-4 3c-4,3 -3,2 -6,4 -3,3 -3,3 -6,5l-6 4 -7 15c11,-1 0,1 6,-1 14,-4 7,-6 7,-6 5,6 -5,11 -11,11 0,0 0,-1 0,0 0,0 1,-1 1,-1 0,0 0,-1 0,-1 -1,0 -1,-1 -1,-1 -3,-4 2,-6 -15,-3 -1,0 -1,0 -2,0 -1,0 -1,0 -2,0l-30 6c0,0 0,9 0,9l0 8c-7,3 -3,0 -15,0 -3,1 -5,2 -9,4 0,1 0,5 -2,7 -24,0 -47,4 -59,-7 2,-15 -3,-2 8,-13l-5 -2c0,0 -1,0 -1,0 8,-3 3,3 4,-10 -9,5 -4,2 -10,3 -10,5 -21,12 -39,10 -6,-1 -15,-2 -23,-3 -10,-2 -14,-2 -16,-10 -2,-16 -3,-2 5,-13 -3,-5 -1,2 6,-2 -3,-8 5,-5 -6,-7 15,-2 -3,2 10,-4 5,-3 6,-3 11,-6 -8,-8 1,-5 -15,-1 -10,2 -10,1 -19,-4 0,8 2,7 -2,7 -1,-3 1,-8 -13,-4l5 3c8,5 2,-2 6,4 8,14 -2,11 -5,12 -3,0 -4,2 -8,4 -3,2 -9,5 -10,6 -1,3 3,5 -17,5 -9,0 -14,0 -22,-2 -1,0 -3,-1 -4,-1 -8,-2 -18,-2 -26,0l-6 3c4,3 2,3 13,2 1,0 1,0 2,0 11,-2 12,0 23,0l0 8c15,2 17,3 30,7l0 4 1 15c1,8 -1,4 1,2 -6,0 -6,-3 -12,1 -9,6 1,-3 -3,3l20 10c11,4 34,8 47,11 18,3 36,6 53,11 41,11 223,52 262,56 21,2 36,1 49,12 28,10 30,7 57,-6 18,-10 30,-19 49,-27 36,-17 67,-34 102,-51l100 -50c22,-10 36,-13 26,-44 -14,-39 -20,-16 -38,-39 -17,-1 -29,-3 -45,-6l-137 -21c-42,-6 -91,-17 -134,-23 -10,-2 -13,-3 -22,-5l-22 -5c108,2 290,40 407,66l23 7c1,0 1,1 2,1l18 2c-1,-9 -2,-3 1,-7 5,0 9,0 14,0 11,1 1,0 8,2 0,-16 -2,-10 6,-17 -3,2 6,5 -2,-1 0,0 -1,0 -1,0l-8 -10c11,0 20,-4 30,-6 0,-1 -1,-1 -1,-1 -7,-2 0,-2 -3,1 7,0 14,-2 19,-2l5 1c0,0 1,0 1,0l13 1c0,1 0,2 -1,2l-2 4c-6,8 -5,2 -5,2 10,1 10,1 10,9 -1,16 -1,-2 -8,10 -5,-4 -10,8 -4,-10 7,4 -4,3 -5,13 8,4 1,1 7,6l-1 0c2,-3 2,-3 9,-4l-1 8c-2,3 -8,4 -9,4 1,6 1,10 4,13 5,7 -2,8 9,5 -2,-6 -3,-5 -3,-13 8,-5 24,-6 38,-12 1,0 1,0 2,0l3 -2c-12,-3 -23,2 -34,4l-7 -12c0,-1 0,-2 0,-2l1 -6c4,-19 2,-15 -14,-20 -1,0 -2,0 -2,0 -1,0 -3,-1 -6,-1 1,-1 4,-4 4,-4l2 -5c-49,8 -49,18 -74,11 -12,-3 -28,-7 -38,-9l-113 -24c-23,-3 -54,-8 -78,-13 -45,-10 -111,-15 -159,-24 -35,-6 -84,-10 -122,-15 -23,-3 -12,-12 -26,-17 -7,2 -11,7 -11,-15l-3 6c0,1 0,1 -1,2l-3 6c-5,0 -5,0 -7,-4l-4 -8c-1,-1 -1,-2 -2,-2 -5,6 -4,9 -6,16 -4,10 -4,0 -6,13 0,1 1,0 1,1l5 0c10,0 -8,-1 2,-1l1 11 -26 0c3,2 -2,1 2,0l10 -7c3,-4 2,0 5,-8 -10,0 -6,1 -14,3l-3 1c-2,1 -8,0 -11,0 0,-20 2,-9 -9,-12 0,5 -1,12 2,17 2,6 0,3 4,5l3 -1c0,0 0,0 0,0 -3,8 5,-4 -7,6 13,3 9,-1 13,7 28,-5 8,-3 36,-4 7,-10 3,-6 3,-7l11 10c0,1 1,1 1,1 0,1 1,2 2,2 3,4 4,-4 1,4 13,2 9,1 12,11 -4,3 8,5 -11,4 -5,-1 -4,-1 -7,-6z"/>
   <path class="fil4" d="M184 697c2,-3 7,-10 8,-13 15,-14 15,-5 38,-11 7,-2 7,-1 15,-1 -2,-4 -3,-9 -6,-12 -4,-4 -20,-8 1,-3 0,0 1,0 1,0l62 5c17,0 35,12 48,-1 7,-6 -3,-6 14,-5l2 1c22,2 22,-3 21,4l0 3c1,15 3,-1 0,15l28 0c0,-11 1,-23 1,-30 1,-16 -2,3 -2,-26l9 -3 -2 -200c-4,-16 6,-39 -13,-48l-19 -2c-5,0 1,0 -3,-1l-42 0c-4,-1 -12,2 -31,0l-2 0c-1,0 -1,0 -2,0 -21,2 -16,1 -16,25l-42 0 0 -22c0,0 -10,-3 -10,-3 -3,-1 -8,0 -8,0 -7,2 -8,4 -9,-1l-22 3c-1,0 0,-1 -1,-3 -25,-1 -31,5 -31,30 4,-4 2,-1 5,-7 1,-1 1,-3 1,-4l2 9c0,0 0,2 0,2l10 4c7,2 -9,2 6,1 9,0 6,-9 6,14 -11,1 -5,0 -7,3 1,-1 1,-1 1,-2l3 -5c1,-6 0,-2 1,-8 -7,1 -13,2 -18,6 -2,1 -4,2 -5,9l1 27c1,0 2,1 2,1 7,0 7,-3 15,-3 0,8 1,2 -2,6l-5 6c0,-1 -1,1 -1,1 0,33 5,27 -9,32l0 0c-5,5 -3,-2 -6,10 -2,9 0,20 0,29 2,-6 1,-22 0,-31 -2,-12 -6,-26 -2,-40 -1,0 -2,1 -2,2l-5 5c-3,4 -2,7 -2,11 3,12 4,4 1,17 -3,14 -1,30 -1,44 1,-3 3,-11 3,-14 5,23 -4,41 8,58 -3,2 0,0 -4,3l-5 21c0,0 -1,0 -2,0l-5 3c0,0 -1,1 -1,1l1 4c3,14 2,32 1,45 -1,14 -4,7 -4,19 -1,7 0,17 0,24l5 2c6,2 13,0 17,-2 9,-4 -4,-1 10,-4z"/>
   <path class="fil2" d="M1994 824l1 -21c-10,8 -6,6 -7,19 -18,6 -6,-8 -20,0 1,0 1,0 1,0l8 5c0,10 1,13 -2,20 -9,-7 -3,-6 -6,-15 -1,5 -1,13 0,19 3,18 0,20 -1,20 4,10 7,-7 6,19l-6 -11 0 13c3,2 3,-2 2,8 0,4 1,5 3,8 3,4 -6,8 -3,7 1,4 2,12 2,16 0,12 -2,4 -3,13 -1,19 4,38 -2,58 -2,6 0,-5 -2,8l-3 23 -14 0c4,9 6,10 6,21 -11,-3 -7,8 -9,-7 0,5 2,6 4,9l3 5c-7,4 -5,12 -5,20 0,4 1,20 -2,22l-23 2c0,0 -3,-1 -4,-1 -3,0 -3,-1 -7,-1l11 0c-2,12 -1,5 -3,12 3,-5 -1,0 4,-4l8 -5 14 7c0,0 1,1 1,1l4 4c-8,0 -3,-1 -5,2l-5 1c-7,-1 1,0 -5,-2 -8,-2 -9,3 -15,5 0,0 -7,1 -7,2l-14 -1c0,6 5,8 9,12l3 9c-1,0 -1,2 -2,2l9 0c-1,-3 -4,-7 -4,-7 -1,-1 -2,-2 -2,-6 -1,-15 12,-7 33,-12 0,11 4,21 0,30 -1,3 -7,2 -3,10 2,6 3,0 4,8 0,11 -2,7 -3,9 -7,-3 -6,7 -6,-8l-15 0c17,5 -4,1 8,7 13,7 11,-4 13,14 -9,3 -12,4 -17,-4 -9,0 -2,5 -10,10 -14,9 -1,-3 -20,0l-4 0c-9,0 1,-1 -6,-1 -2,1 -7,9 -13,-3 -7,0 -3,-1 -3,2l-8 4c-3,-11 3,-10 -2,-12l0 -3c-5,0 -7,-1 -9,2 -5,6 0,-1 -2,5l-2 6c-11,-4 -9,0 -18,1 -1,0 -1,-1 -1,-1l-11 -1c-1,0 -3,0 -4,-1 0,17 1,2 -4,9l-4 -4c-6,-4 -8,-1 -17,-1l-9 -1c0,0 -1,0 -1,-1 -1,0 -1,0 -2,0 0,0 -1,-1 -1,-1l-49 0c-3,12 3,4 -6,9l-4 -6c0,0 0,0 -1,-4 -3,5 6,0 -3,2 0,0 -3,0 -3,0 -3,1 -4,3 -6,5l-20 -11c0,-4 3,-21 -2,-21 0,13 0,22 2,32 -24,-4 -19,-7 -19,-32 4,-2 8,-3 11,-5 -1,-1 -2,-5 -8,-4 -5,0 -7,11 -10,16 -3,4 -2,7 0,11l3 9c-9,-1 -8,-1 -15,-4 -6,-2 -2,-2 -6,0 12,3 5,3 8,9 -8,-1 -29,-9 -33,-6 -6,4 -4,4 -13,3l4 -5c1,0 1,-1 2,-1 0,-10 0,-4 -2,-7 -1,0 -6,-3 -7,-4l0 -36c-12,-2 6,0 -11,4 9,-4 4,0 6,6 -6,0 -12,0 -16,3 4,2 1,0 5,2l11 4c-3,3 -1,2 -5,3 -5,3 -9,3 -13,8l-6 -17c0,-11 2,1 2,-6 -8,1 -9,0 -12,-1 -6,0 -9,1 -14,3l0 8c11,-4 12,-2 23,0 3,7 0,22 0,34 -14,-1 -8,-2 -21,0 0,0 -1,-2 -1,-2 0,1 -1,-1 -1,-2l-4 -9c-10,1 -5,0 -9,4l-8 7c-3,-7 -2,4 -2,-8l0 9c-15,-3 -32,-4 -45,-9 -2,-1 -4,-2 -6,-2l-9 -5 11 -6c-8,9 -7,-2 -7,-2l7 -2 -2 -14c-2,-8 3,-3 -3,-10 -8,2 -7,5 -12,9 -2,-4 -2,-1 -3,-7 -13,-5 -3,1 -10,-9 -6,0 -5,0 -9,1l-10 6c0,-14 0,-10 8,-16l16 4 -3 -10c-2,0 -8,0 -10,0 -1,1 -1,1 -2,1 0,0 -1,0 -1,0l-4 4c-6,-9 -3,-7 -2,-7 -7,1 -6,2 -15,2l3 -5c4,-10 -16,-5 -19,-3 8,10 6,-5 9,13 -15,-1 -12,-6 -20,-13 -4,-3 -3,0 -5,-5l-1 10c-10,2 -7,-1 -8,4l17 1c-4,11 5,4 -9,7l2 13 -10 0c7,2 17,0 24,0 11,0 33,-2 42,4 -3,19 -2,3 -7,10l-4 9c-5,11 -24,0 -32,3 -3,1 -1,0 -3,2l-5 6c0,-1 -1,-2 -1,-2l-7 -7 -2 5c0,0 0,1 0,2l-11 -3c0,-1 0,-1 0,-1 0,0 6,-4 0,-1 -6,-7 -10,3 -21,2 -13,0 -12,-6 -15,-14l-15 -1c-2,5 -3,6 -3,13l-12 0 0 5c0,0 0,1 0,2 -6,-2 -6,-3 -10,-7 -1,0 -1,-1 -1,-1l-4 -2c0,-11 2,-22 -2,-29 -2,-4 -8,-5 -1,-17 0,-1 1,-2 1,-3 2,-2 2,0 2,-5 -5,-1 -1,1 -3,1 0,0 -2,0 -2,0l-3 -1c2,-22 2,-5 9,-8 -1,-8 -3,-7 -12,-7 0,1 1,-1 1,1l0 4c0,0 -1,1 -1,1l-5 -3c-4,-4 4,-3 -6,-3 -5,-1 -15,0 -21,0l0 20 20 0 13 17c7,14 -3,0 5,12 3,4 5,20 4,25l-2 5 -31 0c-10,-5 7,2 -5,-3 -9,-4 -5,0 -10,-7l-14 4c-1,-29 -4,-31 -4,-24 -4,4 1,16 -5,21 -10,5 -9,-3 -21,2l0 -14c-14,-4 -6,4 -9,-9 -13,0 -19,-9 -32,-6l-1 15c5,-1 4,-6 6,-12 11,4 5,5 11,15 12,-7 13,-4 13,8 -1,0 -1,0 -2,0l-3 1c-12,1 -11,-10 -22,-1l-3 4c-9,-2 -22,-1 -29,-4 -5,-2 -10,-9 -16,-7l-7 6c0,-8 2,-6 -7,-7 -13,-1 -19,8 -34,5 -11,-3 -4,0 -8,-4 4,-9 -1,-6 10,-8 4,-1 9,1 13,0 -1,-6 -15,-3 -21,-3 4,-12 5,-19 -2,-28 -11,-17 -16,1 -24,-3 6,6 2,-3 4,10 0,3 0,13 0,17 -2,1 -3,1 -4,3l-4 5 -30 0 -6 -8c-5,1 -32,4 -39,2 -5,-2 3,-2 -6,-2l-8 7c-6,3 -10,3 -17,3l10 -8c-6,-5 -8,0 -17,1 -7,2 -5,-3 -5,1l4 0c5,5 2,-2 2,4l-9 1c-2,0 -6,-1 -9,-1 -1,-3 2,-7 -3,-8 -10,-3 -2,-1 -5,0 -12,3 8,3 -7,2 -1,-12 4,-8 6,-8 1,-11 -1,-14 -2,-18 0,-6 5,0 -2,-9 -6,-9 0,-4 -8,-6 -7,8 -3,6 2,24l-4 5c-4,6 -2,9 1,15 1,4 1,0 1,6 -11,0 -10,-2 -15,-2 -3,0 -16,1 -19,1 0,-1 0,-3 0,-2l1 -40c-3,-18 6,-20 1,-37 -1,-6 -1,-6 1,-13 1,-4 -1,-9 -2,-15 -1,-4 -2,-10 1,-14l6 -7c2,-1 7,-2 9,-3 -12,2 6,-3 -13,-3l9 -9c0,-1 1,-1 1,-1 0,-1 1,-1 1,-2l-21 -14c10,-4 4,0 10,-5 -1,-3 -1,-10 -2,-13l0 -15c0,0 0,-1 0,-2l0 -14c-2,-12 0,-9 2,-14 1,-9 -1,-16 -2,-24l0 -10c0,-11 0,4 0,-7 -1,-9 1,-11 2,-20l2 13 20 0 0 -43 -9 -5c0,-15 -2,-21 -2,-35l3 3c4,6 1,10 8,9 -5,-9 -2,-18 -2,-30 -1,-15 4,-22 3,-34 0,-6 -4,-13 -2,-19 2,-4 2,0 2,-5 0,-5 -2,-2 -3,-12 0,-1 1,-17 1,-17l0 -12c-2,-14 2,-1 1,-11l1 -15c2,-15 -6,4 0,-21 1,-7 -2,-10 -2,-16 2,-14 4,-28 1,-40 3,-1 5,-2 8,-5l0 -20c14,-3 6,4 15,-7 0,0 0,-1 1,-2l0 30c-1,-11 -2,-22 0,-32 1,-9 -1,-17 -2,-25 -3,-19 2,-2 2,-11 0,0 -3,-9 -3,-14 0,-11 6,-11 0,-15 0,0 -1,-1 -1,-1 0,0 -1,0 -1,-1 3,-3 5,-3 6,-6 -8,-7 -1,-18 -2,-28l-1 -3c-1,-8 -1,-4 3,-12l-7 -5c0,0 -1,0 -1,-1l4 -1c12,-3 -4,3 4,-1l-6 -8 14 0c-5,-16 -17,3 -12,-22l25 -1c0,-15 4,-63 -3,-75 -7,-11 7,-11 4,-33 0,0 0,-5 0,-6l-2 -27c3,-1 0,0 0,-3l0 -2c0,-1 1,-2 1,-3 0,0 0,-1 0,-1 0,-8 -1,-12 8,-14 3,-1 12,0 16,0l0 -28c2,0 6,2 6,2 8,2 1,-1 10,-1 9,-1 3,-1 8,1 5,12 2,34 2,49l21 0c0,-8 0,-16 0,-24 0,-9 -2,-18 3,-25 9,4 5,-4 7,10 0,1 -1,11 -1,13 0,9 0,17 0,26l10 0 0 -49c10,0 27,2 32,1l13 -2c15,3 11,4 21,1l42 0c3,0 2,7 3,-2 11,0 15,-2 20,4l3 -3c-1,0 -5,-3 -6,-4 0,0 0,-1 0,-1 -1,0 -1,-1 -1,-1l-2 -2c0,-1 -1,-3 -2,-3l23 1c-1,0 -2,0 -2,1 -2,4 -6,-1 -7,4 7,0 9,1 11,3 0,0 0,1 0,1 0,1 1,2 1,3 14,-2 8,2 21,-1 -10,4 -4,0 -6,-6 18,2 34,3 54,3l-16 3c-6,1 -12,0 -18,1 6,0 -1,0 5,0l64 -1c10,0 19,3 28,1 0,0 1,0 1,-1l3 0c0,0 1,0 2,0 0,-1 1,0 1,0 6,-1 24,3 29,-3 0,0 0,-1 0,-1 1,0 1,-1 1,-1 0,0 1,-1 1,-1 0,0 1,0 1,1 2,4 4,3 7,5 9,-4 2,1 7,-7 8,5 2,1 4,9l13 -8c0,0 0,0 0,1l2 7c9,-4 4,-5 11,-3l8 3c3,-11 -4,-6 7,-9 4,5 -1,4 2,10 22,-9 15,2 30,-2l41 1c6,-1 2,1 6,-7 1,0 1,-1 1,-1 4,4 2,7 9,6 0,0 -3,3 0,-3 3,-5 -1,-1 4,-4 1,0 1,0 1,1 2,8 10,9 15,6 -1,0 1,3 -5,0 -6,-3 -3,0 -6,-7l25 1c-2,3 -4,3 -4,6 6,3 10,2 15,1 1,0 7,-1 7,-1l8 -4c4,6 5,6 13,6 -5,-7 -4,8 -6,-8 23,6 23,0 45,4 43,7 57,-3 91,2 13,2 37,7 52,2l-11 8c1,5 1,4 3,9 0,0 3,0 3,0l4 2c8,5 3,8 20,2 13,-4 10,-3 14,3 9,-3 -8,-5 14,-6l40 3c19,4 48,1 68,2 6,0 14,1 19,0 -9,-2 -14,1 -19,-5l44 0c0,0 0,-1 0,0 0,0 0,-2 0,-2 1,-4 -3,-4 4,-5l66 -1 4 8c0,0 0,1 0,2 15,-3 32,-4 47,-1 0,8 -1,4 0,13l4 -7c2,7 0,9 -2,14 -5,14 1,44 -4,63 -3,9 -2,12 -2,21 0,6 1,15 -1,19l-9 10c-1,-7 0,-6 -4,-10 0,7 0,12 -4,17 0,-6 2,-13 -1,-18 -1,3 -1,0 -1,6 -1,14 3,9 3,20l-3 26c4,1 13,-6 4,9 -4,5 -4,13 1,17l2 1c1,1 1,1 2,1 -3,7 -3,18 -3,27l-2 -4c0,0 -1,-1 -1,-2 0,0 -1,-3 -1,-4 0,0 -1,-1 -1,-2 0,0 0,-1 0,-2 0,1 0,1 -1,2l1 29c0,5 0,4 6,6l-4 3c-3,4 -3,-1 -3,6 1,5 5,-1 2,10 -2,9 0,28 -3,39 -3,15 -2,33 -3,49l-14 0c0,10 4,25 -2,32l-2 -11c-3,6 1,43 0,52 -2,16 -1,15 1,26 1,11 -4,15 -2,26 3,-2 0,-4 5,-9 0,16 -3,66 -1,74l15 -140c3,-46 11,-96 15,-141 4,-48 9,-95 13,-143 3,-30 17,-118 15,-140 -22,-3 -99,4 -145,0 -46,-5 -97,-2 -144,-6 -45,-4 -94,-5 -141,-7l-69 -5c-56,-5 -220,-2 -295,-3 -24,-1 -51,1 -73,-3 -13,-2 -272,-3 -295,-1 -4,20 -18,214 -21,244 -8,79 -15,161 -23,240 -8,72 -42,475 -35,494 80,7 141,5 214,9 62,3 150,14 205,15 49,1 97,3 145,4 79,1 185,17 277,19 25,1 48,1 72,3 22,1 50,1 71,3 24,1 129,5 148,1 6,-24 11,-68 14,-95 3,-31 8,-66 13,-98 5,-31 8,-69 11,-100 2,-26 5,-78 11,-101z"/>
   <path class="fil7" d="M237 1574c-6,5 -93,34 -99,47 0,11 3,29 10,34 3,2 25,8 31,10l66 14c43,10 87,21 131,31 22,6 43,11 67,14 53,6 154,25 203,40 22,6 44,10 67,16 22,6 43,9 67,15 44,10 86,20 131,30 54,11 244,58 268,55 13,-3 25,3 37,2l7 -33c-11,-11 -4,4 -4,-6 0,0 0,0 0,-1 0,0 0,-1 0,-1 -3,-15 8,3 -2,-5 -6,-5 -12,0 -21,-2 -2,0 -8,-2 -10,-3 -5,-4 -3,-1 -5,-8 -13,-11 -28,-10 -49,-12 -39,-4 -221,-45 -262,-56 -17,-5 -35,-8 -53,-11 -13,-3 -36,-7 -47,-11 -21,-3 -45,-9 -65,-13l-123 -24c-7,-1 -54,-9 -60,-14 -15,3 -72,-12 -91,-16 -14,-1 -45,-7 -58,-11 -24,-7 -97,-16 -104,-26 -6,-9 -12,-38 -10,-53 11,-9 10,-3 14,-13 -15,2 -20,9 -36,11z"/>
   <path class="fil2" d="M274 1205c0,-10 0,-10 6,-16l12 2c1,13 -6,17 -18,14zm44 -8l-15 1c-2,-12 1,-16 11,-18 6,5 7,8 4,17zm-77 -23c13,-4 15,-4 27,0 2,12 -3,19 -13,22 -16,4 -15,-10 -14,-22zm71 -5l-1 -15 6 -5 15 1c1,15 -6,20 -20,19zm-82 -17c7,-4 11,-6 20,-6 3,9 1,18 -6,22 -15,8 -14,-5 -14,-16zm56 -17c-2,-15 13,-29 21,-21 5,5 1,14 -2,17 -5,5 -10,5 -19,4zm-38 0l1 -16c33,-13 28,20 -1,16zm172 154c-10,0 -20,7 -30,4l-2 -23c-12,0 -19,-5 -29,-2 -5,1 -4,2 -6,6l12 2c-6,18 -1,7 -15,13l17 0c6,7 6,12 16,9 9,-2 -4,-1 11,-2l-2 4c-4,15 -4,11 -19,16 -2,-4 -10,-7 -3,-5 -14,10 4,7 -15,5l-18 1c-23,4 -19,-6 -19,-24 -7,7 -9,-1 -12,-1 -8,-2 3,1 -9,3l3 15c0,0 0,8 0,9 -10,-1 -11,-2 -20,-7 -10,11 -11,4 -23,6 -5,2 2,0 -7,4 -8,-9 1,-6 -11,-7 -5,0 -8,1 -14,-1 0,-3 1,-6 0,-10 -1,-5 -1,-2 -6,-7l7 -6c-11,1 -7,4 -15,2 -13,-3 6,7 -17,-2 1,0 2,-1 2,-1 2,3 5,-3 5,-3 -1,-1 -1,-3 -1,-3l1 -19 15 0c0,-2 -1,-9 -1,-10 1,-3 0,-4 2,-6 2,-8 -3,0 3,-6 8,2 3,-3 7,6 2,6 -4,7 1,13 4,5 1,3 7,5 6,-5 5,-2 4,-12 8,1 5,-4 9,2 -6,-17 4,-9 -4,-20 -4,-5 -6,-3 -3,-12l7 -9c11,0 15,2 26,2 3,0 19,1 27,1 6,0 9,1 14,0 13,-2 0,-1 11,-7l11 -13c4,7 2,11 4,19l-12 0c3,0 4,0 7,0l7 0c3,0 9,3 8,-2 -1,0 -1,-1 -1,-1 0,-1 -1,-2 -1,-3 0,0 -1,-1 -1,-2 15,2 5,1 21,0 -3,10 3,7 -6,8l25 0 0 -23 11 8c2,1 6,1 8,1 4,-10 -6,-8 -12,-11l6 -9 -13 -10 20 -1c1,0 1,0 2,0l6 1c0,0 0,1 -1,2 0,3 -2,4 -5,4l0 9c9,-4 5,-5 6,8 2,12 -3,32 0,43 2,6 -1,2 4,6l0 -57c-5,3 -3,86 -1,95 9,-11 5,-64 5,-83 0,-59 6,-47 7,-78 2,-57 0,-109 0,-167 0,-57 -2,-112 -2,-170 -1,-54 -6,-111 -5,-166l-9 3c0,29 3,10 2,26 0,7 -1,19 -1,30l-28 0c3,-16 1,0 0,-15l0 -3c1,-7 1,-2 -21,-4l-2 -1c-17,-1 -7,-1 -14,5 -13,13 -31,1 -48,1l-62 -5c0,0 -1,0 -1,0 -21,-5 -5,-1 -1,3 3,3 4,8 6,12 -8,0 -8,-1 -15,1 -23,6 -23,-3 -38,11 18,-2 32,-5 49,-6l110 0c6,1 21,1 26,2 4,2 12,8 18,10 -1,8 0,26 -17,28 -8,2 -37,0 -47,-1 0,14 6,5 24,8 6,1 19,2 28,2 8,-1 14,-5 18,-8 5,-6 0,-14 4,-20 1,0 1,0 1,1l0 3c1,6 0,2 2,8 2,9 3,-2 2,7l-4 5c4,2 3,1 8,-1l2 24c0,1 1,4 1,5 0,0 0,1 0,1l-1 6c-1,8 3,6 3,13 0,8 -2,7 1,11 2,3 -1,17 -1,17 0,4 2,9 3,13 1,13 -2,3 -3,10 -1,6 -1,-7 1,3 1,4 0,6 0,11 -3,-2 -3,5 -4,-6 -2,7 0,10 6,13l-4 4c-1,1 -3,-4 -2,11 0,3 1,8 1,9l0 28c-1,11 0,4 1,15 0,-4 2,-8 6,-7 3,7 0,26 0,36 -5,0 -1,1 -6,-1 -10,-4 -2,-2 -2,-3 3,3 5,9 6,19 -18,12 3,51 -1,65 -2,6 1,8 -1,15 -5,12 -3,20 -3,32l-1 23c-1,13 0,5 1,9 0,0 0,0 0,1l1 5c0,0 3,-4 -1,9 -2,7 -1,5 0,12 1,10 2,23 -1,34 -5,-1 -3,-2 -6,-4l-9 0c-1,-1 -1,-2 -2,-2 -2,4 -4,-4 -11,-11 -3,1 -1,0 -3,2 -3,3 -12,14 -14,6 8,0 13,-1 19,5l0 10c0,0 -1,0 -1,1 -1,0 -2,0 -2,0l-14 -1c-3,18 -9,3 -15,11 0,0 0,0 0,0l1 0c4,6 3,4 7,6 7,4 4,10 1,15l-2 4c-4,-1 -5,-6 -11,-6l-13 9c1,-8 0,-8 -2,-13 4,-7 11,-5 7,-12 -6,-11 -3,-18 -4,-30 0,-1 0,-1 0,-2l-1 -3c12,1 -6,5 16,2 0,0 1,0 1,0 9,0 0,5 9,0 4,-2 6,-3 8,-4l0 -2c-19,0 -5,0 -10,-5 9,-18 9,-13 0,-26 -3,7 -2,12 -3,20l-3 -4c-3,-6 0,0 -3,-6 -3,-9 5,-1 -4,-7 3,3 0,5 0,15 -9,-8 -7,-24 -15,-24 0,4 0,16 0,18 -2,5 -1,6 -8,7 -11,1 -4,0 -7,-1l-1 -24 -21 0c0,0 -1,0 -2,0l-30 1c-19,-1 -28,2 -28,2 -7,-1 3,0 -6,-2 -9,-3 -28,2 -31,0l1 7c1,0 1,1 1,1l-1 17c0,17 8,14 2,24 2,-1 -5,-4 4,-1 9,2 1,-4 8,5 -15,5 -2,13 -24,19l0 -49 -8 0c0,8 0,17 0,25 0,22 2,24 -7,22 -6,-2 -2,-26 -2,-34 0,-12 1,-26 -1,-37 -2,-19 5,-36 1,-54l-1 -3c0,0 0,-1 0,-1 -1,-1 -1,-1 -1,-2 0,0 -1,-1 -1,-2 -1,-4 -1,-3 -1,-8l-17 0 2 -51 19 0 0 -43 -19 0 -2 20c0,-24 2,-51 -2,-71l23 0 0 -19 -19 0 -2 -26 7 -3 -9 -5c3,-9 4,-7 10,-12 0,0 1,0 1,-1l8 -6 -2 -17c4,-2 4,-2 5,1 4,5 1,1 0,1l-2 -35c1,-6 1,-14 1,-20l-6 -15c13,-4 8,-6 26,-7 7,0 22,-2 26,-6l-35 1c-9,-12 -8,-10 -2,-22 -14,3 -1,0 -10,4 -4,2 -11,4 -17,2l-5 -2c0,-7 -1,-17 0,-24 0,-12 3,-5 4,-19 1,-13 2,-31 -1,-45l-1 -4c0,0 1,-1 1,-1l5 -3c1,0 2,0 2,0l5 -21c4,-3 1,-1 4,-3 -12,-17 -3,-35 -8,-58 0,3 -2,11 -3,14 0,-14 -2,-30 1,-44 3,-13 2,-5 -1,-17 0,-4 -1,-7 2,-11l5 -5c0,-1 1,-2 2,-2 -4,14 0,28 2,40 1,9 2,25 0,31 0,-9 -2,-20 0,-29 3,-12 1,-5 6,-10l0 0c14,-5 9,1 9,-32 0,0 1,-2 1,-1l5 -6c3,-4 2,2 2,-6 -8,0 -8,3 -15,3 0,0 -1,-1 -2,-1l-1 -27c1,-7 3,-8 5,-9 5,-4 11,-5 18,-6 -1,6 0,2 -1,8l-3 5c0,1 0,1 -1,2 2,-3 -4,-2 7,-3 0,-23 3,-14 -6,-14 -15,1 1,1 -6,-1l-10 -4c0,0 0,-2 0,-2l-2 -9c0,1 0,3 -1,4 -3,6 -1,3 -5,7 0,-25 6,-31 31,-30 1,2 0,3 1,3l22 -3c1,5 2,3 9,1 0,0 5,-1 8,0 0,0 10,3 10,3l0 22 42 0c0,-24 -5,-23 16,-25 1,0 1,0 2,0l2 0c19,2 27,-1 31,0l42 0c4,1 -2,1 3,1l19 2c19,9 9,32 13,48 0,0 0,-1 1,-1l1 -6c0,-1 4,-46 -2,-49 -11,-5 -247,-4 -265,1 -2,27 -1,55 -1,82 -1,59 -13,242 -9,279 1,13 7,19 8,34 1,25 -3,53 -5,77 -6,53 -2,177 1,239 4,64 -3,162 31,212 34,52 133,52 190,36 33,-9 46,-12 48,-35z"/>
   <path class="fil8" d="M109 530c1,2 -1,3 2,2l1 -1c0,-1 0,-1 1,-2 0,0 0,0 0,-1 0,39 0,77 0,115 0,39 -2,72 -2,111 -11,-3 -11,-2 -25,-2l0 19c10,0 18,0 25,-2 0,13 0,26 0,38 0,6 -1,12 -1,17 -3,15 -2,30 -4,50 0,4 0,12 0,16l0 17c0,1 0,2 0,3 1,21 -1,48 -1,72 0,25 0,50 0,75l-26 0c0,-13 2,-15 -2,-27 -4,-10 -3,-15 0,-25l1 -8c-2,18 1,9 -7,13 -4,-2 -6,1 -7,-15l-1 -9c0,-1 -1,-1 -1,-2 -5,-6 -2,-18 -2,-25l21 0c0,-9 2,-21 2,-25 0,-8 -5,-1 -3,-19 -12,1 -18,3 -21,-5 0,0 -1,-9 -1,-9 1,-17 6,-13 23,-13l0 -19 -21 0c0,-25 -2,-47 -2,-74 0,-14 1,-28 0,-41 -1,-13 -4,-29 -2,-40 9,-6 4,4 1,-4 0,0 -1,-1 -1,-1 0,-1 0,-1 0,-2 0,0 -1,-1 -1,-2l-2 -13c0,-8 3,-11 4,-14 2,-7 -4,-7 3,-16 0,-12 -2,5 -7,-10 -2,-6 -3,-19 5,-11 -4,-12 4,-10 -2,-13 0,-10 -2,-15 4,-19 0,-7 1,0 -1,-1l-5 -3c3,-9 1,-19 1,-32l5 0c-1,-4 3,-2 -6,-2 2,-15 3,-22 4,-36l2 3c4,9 -7,-1 11,-3 1,-1 8,0 10,0l0 -24 30 0c0,3 1,8 0,11l-1 6c0,0 0,2 -1,2zm-28 -348c0,0 0,-1 0,-2l-2 -12 4 -7c0,0 0,-1 0,-1l0 -11c-1,-13 -6,3 -1,-10 5,-14 32,-6 29,9 0,1 -1,4 -1,4l1 6c0,0 0,1 1,1 0,1 0,3 1,4l-2 15c-2,7 1,16 0,29 -1,8 -2,14 -1,24 1,10 1,3 0,13 -1,4 -1,6 -1,9 2,-14 -2,-5 7,-12 0,12 2,15 -7,19 0,5 5,6 7,10l-5 7c0,0 -1,0 -1,1 0,0 0,6 0,6 -1,6 -1,10 -1,16 1,-9 0,-11 7,-17l2 32c-6,5 8,4 -9,4 0,11 2,10 2,13 0,12 -2,3 -1,9 0,7 4,2 4,11l-3 31 4 1c5,2 1,-1 3,1 -2,3 -2,1 -3,5l-2 47c0,15 6,51 -4,63 -5,-5 -4,9 -4,-8l-41 2c0,0 0,-1 0,-1 0,-1 0,-1 0,-2 0,0 -1,-1 -1,-1l-3 -21c3,0 5,-8 9,8l8 0c3,-11 1,2 2,-8 -20,-1 -19,0 -19,-11l-1 -49c10,0 11,1 16,-6 0,0 1,-1 1,-1l0 -10c-1,-11 1,-11 1,-21 1,-1 2,-1 2,-2 3,-3 4,-2 5,-7 -8,0 -7,0 -11,-2 1,-1 1,-1 2,-2 13,-12 0,-2 6,-34l-4 -53c-1,-15 3,-38 2,-45 0,-8 0,5 -1,-7l2 -21c5,-18 3,-8 1,-16zm426 1179c-1,0 -2,-1 -3,0l-20 4c-9,1 -8,1 -14,6l-3 3c-9,-7 -1,-1 -5,-6 0,0 -4,6 -12,2 -6,-3 -4,4 -4,-9 -10,1 -1,5 -17,-1 -4,-2 5,-2 -6,-2 3,4 5,-2 10,14 -47,0 -12,4 -47,4 -16,0 -46,3 -53,-2 10,-8 19,0 20,-2l1 -5c0,0 0,-1 0,-2 16,0 20,-5 34,-8 4,5 3,7 9,8 -4,-5 1,-5 10,-7l-1 -10c0,0 -1,0 -1,0 0,1 -1,0 -1,0 0,0 -1,0 -1,0 -4,-3 -2,4 -3,-5 -14,5 -17,11 -35,14 -53,10 -154,9 -191,-25 -29,-27 -27,-48 -38,-55 -1,5 -4,16 0,18 1,0 1,0 1,0 4,1 2,11 0,14 -3,5 -4,4 -9,7 0,0 -1,0 -1,0 3,5 0,-4 1,5 2,10 1,14 -4,21 -14,0 -12,3 -15,-8 0,-3 0,-14 1,-18 -13,1 2,8 -9,22l-11 -4c-3,-6 -1,1 -2,-7 0,-1 0,-9 0,-11 -4,0 -1,0 -4,1l-8 1c2,-9 -1,-7 7,-8l-8 -2c4,-4 3,-3 6,-6 0,0 0,0 0,0l0 0c2,-12 2,-2 0,-8 0,-1 -1,-2 -1,-2l2 -32c1,-7 3,1 0,-16 0,0 0,-1 0,-1 -2,-11 6,-11 -1,-16 0,0 -1,0 -1,0l-3 -2c-1,0 -1,0 -2,0 9,-12 6,0 9,-9 -1,-1 -2,-1 -3,-5 -1,-10 5,-1 -1,-14 -2,-5 2,-4 3,-6 1,-5 1,1 -6,-2l0 -30c5,3 7,1 7,15 0,-1 -8,-4 2,-2 6,2 2,1 6,4l0 19 9 0c0,-2 -1,-13 -1,-13 3,-17 -4,-6 9,-10 3,9 0,14 2,21 5,13 2,11 4,23l-5 0c0,0 -1,-1 -1,-2l0 21c0,0 1,-3 2,-3 4,-4 -4,-2 6,-5 -6,24 1,30 -8,38l24 -3c-1,-6 -5,-24 -7,-31 -16,-61 -15,-180 -13,-241 2,-94 3,-190 3,-285 1,-118 7,-235 7,-354 0,-21 3,-47 3,-68 0,-24 0,-45 3,-69 3,-25 -5,-46 8,-62 26,-3 53,-2 80,-4 62,-5 157,-9 220,-4 12,1 7,1 16,6 3,-14 -7,-8 -18,-10l-8 -3c-17,-4 -100,-3 -114,-3 -11,1 -23,5 -36,6 -23,2 -26,-2 -35,-1 -9,0 3,0 -7,0 -11,0 -43,3 -56,-4 0,0 -1,0 -2,-1 0,-29 -6,-25 49,-25l25 1c1,0 1,-1 2,-1l19 0c0,0 2,0 2,0l3 0c3,1 3,0 5,4l4 -6c8,4 4,-5 8,6l0 -7 26 0c-6,8 0,5 -11,7 0,0 -7,0 -8,0 3,-3 1,-1 5,-1 16,-2 21,-6 36,-1 10,3 6,2 11,-2l12 -4c6,1 3,1 5,3 0,0 3,4 3,4 6,-7 1,-1 2,-3 0,-1 0,-3 0,-3l2 -3c0,-1 0,-1 1,-2 11,8 2,7 11,9 19,2 19,-1 35,-1 0,0 0,0 0,0 0,0 -1,0 -1,0l0 -1c0,-1 0,-1 0,-2 0,0 0,-1 0,-1 0,-1 0,-2 0,-2 6,2 24,4 30,2 -11,-10 -106,-11 -126,-11 -58,-2 -207,-15 -246,23 -20,20 -22,82 -22,115 0,90 -5,178 -7,266 -1,46 -4,88 -4,135 1,45 3,90 3,134 1,90 5,180 7,268 0,46 3,88 4,132 2,43 10,86 9,128 -1,23 -2,42 16,54 34,21 135,31 173,32 21,0 45,2 64,3 22,1 46,-1 68,0 24,0 106,1 115,-23z"/>
   <path class="fil7" d="M1050 1447c-4,5 -13,6 -19,10 -7,4 -9,7 -12,15 3,4 4,5 7,9 14,5 3,14 26,17 38,5 87,9 122,15 48,9 114,14 159,24 24,5 55,10 78,13l113 24c10,2 26,6 38,9 25,7 25,-3 74,-11 1,-1 126,-25 97,-69 -21,-33 -55,-33 -94,-40 -12,-1 -28,-8 -36,-8 1,30 3,28 -28,33l-53 10c-98,13 -195,14 -289,-15 -8,-2 -43,-14 -45,-21l-1 -3c-2,-10 2,-24 -11,-24l-126 12z"/>
   <path class="fil6" d="M1617 2069c-22,-42 3,-108 19,-142 9,-19 22,-37 37,-52 11,-11 47,-29 59,-28 -11,18 -27,27 -41,44 -17,20 -37,54 -47,78 -4,11 -7,21 -11,32 -10,28 -12,62 -16,68zm93 -260c-8,7 -27,10 -38,20 -12,11 -19,18 -31,29 -34,31 -33,43 -49,66 -17,48 -51,127 -19,181 10,18 45,40 65,45 11,3 67,-2 86,-9l9 -5 -15 -2c1,-4 5,-4 -3,-6 0,15 1,5 -6,9 -5,-6 -2,0 -4,-9 -1,-6 3,-10 -5,-11 5,7 1,10 2,17 0,1 0,4 1,5l-26 6 8 -6c6,-5 1,4 3,-2 -5,-7 -2,-9 -2,-20 -1,12 -1,-4 0,7 0,3 1,5 0,9 -3,8 1,4 -7,8 -8,4 -14,0 -23,0l6 -11c-9,0 -17,-3 -23,-6 3,-11 -8,-8 10,-9 -1,5 -3,3 -5,0 -1,-2 0,-2 0,-4 0,0 1,0 1,0 -8,-2 -7,-3 -7,-3 -6,-3 -12,1 -18,1l-7 -17c10,-6 6,3 9,-11 7,6 6,-8 6,9 2,-10 -2,-1 6,-7 0,9 2,9 5,15 1,-11 -2,-3 6,-6 1,0 1,1 1,2 1,0 1,1 2,2 0,0 0,1 1,1 3,5 -3,2 2,3 1,0 2,0 2,0l22 3c-2,10 -2,4 0,14l-6 -6c0,-1 -1,-1 -1,-1l-8 2c0,-1 -1,1 -2,1l11 0c0,1 0,2 0,2l4 9 3 -8c0,0 0,-1 1,-1 0,0 0,-1 0,-1 0,-1 1,-1 1,-1 0,0 0,-1 1,-1 0,-1 0,-1 0,-1 -6,-3 -6,-8 -4,-15l10 4c4,1 9,0 13,0 -5,8 9,7 -12,7l3 2c4,3 3,1 5,5l0 -5 13 0c0,0 0,1 0,1 -9,1 -1,2 -7,-5 5,-2 2,-2 9,-3 -14,-9 -3,0 -21,0 -2,-3 -8,7 -3,-10 0,0 2,-2 3,-3l2 -1c0,0 0,1 0,1 1,6 0,8 8,10 11,2 13,-5 13,-7l-13 0c0,-45 59,-105 95,-136 63,-54 78,-64 165,-63l1 9c15,0 5,0 9,-4l-1 -9 -12 -2c-3,-1 -5,-2 -12,-2 -7,0 -15,0 -23,0 -1,-5 1,-4 0,-15 0,0 6,2 7,2 6,1 4,-1 6,-2 15,-11 11,5 12,-12 -4,-4 -1,-3 -8,-4 -7,-2 -3,0 -6,1 2,6 0,-1 2,7 -130,14 -105,47 -166,83 -22,13 -43,41 -59,65 -18,29 -36,79 -39,84 -65,-1 12,-181 105,-250 37,-27 58,-25 109,-18 -1,0 -1,-1 -2,-2l-5 -5c0,0 -5,-2 -5,-3 -15,-4 -37,0 -51,1l-5 -9c0,0 0,0 0,-1 -3,-3 -9,-4 -4,-10 0,0 1,0 1,-1 8,-6 38,1 56,-4 -8,-7 -31,-5 -44,-5 -62,1 -83,17 -114,22z"/>
   <path class="fil8" d="M2049 1388c7,2 15,0 20,-2 8,-3 6,-3 9,-12 3,-12 5,-23 8,-37 7,-47 27,-195 30,-238l15 -164c4,-24 6,-56 8,-81 4,-51 13,-106 18,-160 4,-46 15,-111 19,-158l42 -359c-1,-10 -12,-20 -21,-21 -9,8 -7,24 -9,35l-16 114c-7,49 -11,112 -17,156 -15,100 -21,209 -35,310 -3,25 -4,56 -8,80 -4,22 -6,54 -7,78l-18 153c-5,53 -10,106 -17,156 -4,26 -7,52 -13,76 -4,21 -10,49 -8,74z"/>
   <path class="fil4" d="M1775 1353l21 1c15,-4 33,-1 49,-1 1,-4 7,-7 11,-7 5,1 12,6 19,0 -2,-5 -6,-8 -10,-7l29 1 0 21c13,0 34,0 44,3l3 1c5,1 10,-2 15,-5 1,1 6,4 6,4 1,1 1,2 7,4 -1,-10 0,-16 0,-26l8 0c0,4 1,1 -2,2 0,1 -5,4 -6,4 4,11 1,4 7,11 1,0 1,0 2,0l2 2c4,3 9,4 14,4 0,-6 0,-4 -2,-8 -1,-4 -6,-1 -8,-6 8,-2 6,-2 8,-8l8 -1c0,-5 3,-14 -3,-21 -7,8 -5,36 -5,-32l-23 0 0 -19c-13,-11 -13,-5 -26,-5 0,7 2,12 -2,15l-8 -4 -1 10c-13,-2 -2,0 -10,3l1 -8c0,0 0,-1 0,-1 0,-1 0,-1 0,-2l-3 -15c-5,0 -11,0 -15,1 -4,0 -3,0 -6,0l-19 17 5 12c5,11 -4,3 7,9 3,-5 4,-8 1,-14 -1,-3 -2,-3 -3,-8l6 0 -4 32c-7,1 -10,0 -11,-6 -1,-1 -1,-2 -2,-2 -8,9 -6,15 -3,-12 1,-13 4,-28 -14,-29 -14,0 1,2 -10,2 12,0 4,0 6,-8l-13 0c12,-3 6,-2 7,-5l-29 1c3,9 6,4 14,4l-11 0c3,9 -6,5 4,8 -3,0 -6,-1 -6,-1l-32 1c-11,0 -26,2 -36,-1 -12,-4 -4,-3 -17,1 -8,2 -17,0 -26,0 -5,0 -13,1 -19,0 -9,0 -4,0 -7,-1 -16,-6 -28,1 -42,1 -8,1 -16,1 -23,-3 -5,-2 -2,0 -5,-3 -2,2 -3,4 0,-1 3,-4 2,-1 7,1 5,3 1,3 10,4 1,0 19,0 20,0 13,-2 9,0 10,-10 -4,-4 0,-2 -6,-4 -1,-1 -5,-1 -7,-1 0,1 0,2 0,2l1 3c4,6 3,0 4,0l-33 -6c-8,-6 -37,-1 -52,-6l-11 12c4,11 7,15 17,15 -1,4 0,7 2,9l4 -4c0,0 1,-1 1,-1 3,-3 10,-9 14,-2 6,-5 1,-1 1,0 -1,4 0,1 -1,2 -6,7 8,-8 -4,3 -13,12 -4,14 -4,14 -8,0 -5,-2 -11,-8l-3 5c0,1 1,3 1,3 -9,1 -2,-3 -4,-6l-13 1c0,1 0,2 0,2 0,1 0,2 0,2l1 7c2,8 -5,25 -8,22 0,-1 -1,1 -2,2 9,0 19,-4 23,-3 17,8 7,-5 21,2l10 -2c-6,3 -4,6 -4,14 22,4 35,3 59,3l6 -7c4,2 9,1 13,0 10,-4 5,4 7,-7 10,0 13,-2 21,-3 0,0 0,0 0,0l-7 3c3,15 1,1 4,7l3 5c2,6 -4,6 6,9 8,2 2,-2 13,-2 7,0 5,3 9,6 0,0 0,-1 0,-1l19 -6c0,0 0,1 0,1 0,10 9,9 17,12l4 3z"/>
   <path class="fil4" d="M109 530c1,0 1,-2 1,-2l1 -6c1,-3 0,-8 0,-11l-30 0 0 24c-2,0 -9,-1 -10,0 -18,2 -7,12 -11,3l-2 -3c-1,14 -2,21 -4,36 9,0 5,-2 6,2l-5 0c0,13 2,23 -1,32l5 3c2,1 1,-6 1,1 -6,4 -4,9 -4,19 6,3 -2,1 2,13 -8,-8 -7,5 -5,11 5,15 7,-2 7,10 -7,9 -1,9 -3,16 -1,3 -4,6 -4,14l2 13c0,1 1,2 1,2 0,1 0,1 0,2 0,0 1,1 1,1 3,8 8,-2 -1,4 -2,11 1,27 2,40 1,13 0,27 0,41 0,27 2,49 2,74l21 0 0 19c-17,0 -22,-4 -23,13 0,0 1,9 1,9 3,8 9,6 21,5 -2,18 3,11 3,19 0,4 -2,16 -2,25l-21 0c0,7 -3,19 2,25 0,1 1,1 1,2l1 9c1,16 3,13 7,15 8,-4 5,5 7,-13l-1 8c-3,10 -4,15 0,25 4,12 2,14 2,27l26 0c0,-25 0,-50 0,-75 0,-24 2,-51 1,-72 0,-1 0,-2 0,-3l0 -17c0,-4 0,-12 0,-16 2,-20 1,-35 4,-50 0,-5 1,-11 1,-17 0,-12 0,-25 0,-38 -7,2 -15,2 -25,2l0 -19c14,0 14,-1 25,2 0,-39 2,-72 2,-111 0,-38 0,-76 0,-115 0,1 0,1 0,1 -1,1 -1,1 -1,2l-1 1c-3,1 -1,0 -2,-2z"/>
   <path class="fil7" d="M1711 2092c57,-5 120,-33 156,-64 72,-59 75,-103 92,-126l-1 -9c-87,-1 -102,9 -165,63 -36,31 -95,91 -95,136l13 0z"/>
   <path class="fil4" d="M1479 1469c18,5 65,-7 85,-10 4,-24 11,-53 7,-79 -8,-3 -65,-8 -74,-6 -10,3 -16,2 -27,2l2 8c0,-1 0,0 1,1 -4,-3 -3,-4 -8,-4 -7,0 1,2 -8,0l-17 0c0,0 -1,0 -1,0l-4 0c-11,1 -15,-1 -20,0 -16,3 -9,0 -21,1 -20,1 -18,-1 -24,-1l-17 1c-3,0 -1,0 -4,-2 15,0 5,1 8,-6 -5,-4 -8,0 -21,0 0,-9 -1,-9 -10,-7l-9 9c13,0 8,-2 15,3 8,7 3,5 6,3l-47 0 0 24c1,0 2,1 2,1l7 5c-13,0 10,0 -7,-3 -20,-3 -7,0 -12,5 0,1 4,3 4,3l11 6c-8,9 -13,5 -13,21 4,4 6,6 15,7 9,1 12,-1 16,-5l-3 -1c-1,-1 -2,-1 -2,-1l-9 0c-10,0 3,-1 -11,-2 14,-3 4,-9 17,-15 0,7 3,9 3,9l4 -1c1,0 1,-1 2,-1 11,-1 -4,3 15,4l0 4c-7,4 -4,2 -7,9 11,10 15,7 43,7 25,0 29,-9 43,5 12,-5 -1,-3 8,-6 4,2 29,0 37,0 8,0 5,2 8,0 -9,0 -9,0 -15,2 0,1 0,2 0,2l0 7c0,0 0,0 0,0 11,0 22,-1 32,1z"/>
   <path class="fil2" d="M1931 1855c-11,1 -10,0 -15,-6 -3,-3 -6,-7 -10,-10 -6,-4 -20,-10 -23,-13 -51,-7 -72,-9 -109,18 -93,69 -170,249 -105,250 3,-5 21,-55 39,-84 16,-24 37,-52 59,-65 61,-36 36,-69 166,-83 -2,-8 0,-1 -2,-7z"/>
   <path class="fil4" d="M913 1198c-11,-5 -39,1 -52,-3 0,1 -1,1 -1,2l-1 9c0,4 0,8 0,12 -8,0 -2,1 -4,-2l-4 -4c0,-1 -1,-1 -1,-2 -1,0 -4,-2 -5,-2 -9,-4 -22,-2 -33,-2 5,7 -3,8 21,8 3,4 1,1 3,4l-19 0c-12,3 -6,3 -20,3 1,0 1,1 1,2l4 6c7,11 -5,9 10,13l0 28c4,0 16,1 18,-4 0,0 1,0 1,-1l8 6c7,3 40,2 47,-1 8,-2 11,3 22,-2 9,7 -5,4 9,5 4,0 5,-1 5,-1 10,-5 3,-9 9,2 15,-6 20,-2 35,-3l14 -4c3,0 2,6 13,9 3,0 4,0 7,0 0,-1 1,-1 1,-2l3 -4c5,4 10,10 17,12 5,-8 9,-3 13,-13 7,1 3,4 13,0l4 -2c2,4 1,-2 0,9 17,0 31,3 46,-2 8,-2 20,-5 26,-11 0,-5 -1,-5 -3,-10 4,-5 -1,0 4,-3 3,-2 0,6 4,-3 0,-1 1,0 2,-1l-7 -4c-4,-3 -1,3 -2,-2 4,-3 14,4 19,4 -4,-12 -17,-15 -17,-15 -5,-3 2,-7 2,-16 -15,6 -3,6 -21,5l1 -2c0,0 0,-1 0,-2 0,0 0,-1 0,-1 -11,4 -14,0 -23,-1 -20,-1 2,11 -21,0l-4 7c-7,2 -33,-3 -41,-4l-23 -2c-7,0 -11,5 -21,6 -9,0 -19,-1 -28,-1 1,0 1,-1 1,-1l0 -3c0,-1 -1,-1 -1,-2 -18,3 4,6 -34,6 0,-4 11,-4 15,-4 -5,-6 -6,-6 -15,-6l0 -4c7,-5 9,-3 3,-6z"/>
   <path class="fil2" d="M1246 1884c7,-6 42,-12 56,-18 16,-7 38,-14 55,-20 68,-24 143,-67 209,-93 4,-2 52,-22 53,-23 8,-7 5,-55 0,-66 -6,-11 -18,1 -24,5l-70 43c-55,30 -175,92 -220,120 -29,19 -66,25 -59,52z"/>
   <path class="fil4" d="M420 1289l-1 -5c-2,-9 -4,-92 1,-95l0 57c-5,-4 -2,0 -4,-6 -3,-11 2,-31 0,-43 -1,-13 3,-12 -6,-8l0 -9c3,0 5,-1 5,-4 1,-1 1,-2 1,-2l-6 -1c-1,0 -1,0 -2,0l-20 1 13 10 -6 9c6,3 16,1 12,11 -2,0 -6,0 -8,-1l-11 -8 0 23 -25 0c9,-1 3,2 6,-8 -16,1 -6,2 -21,0 0,1 1,2 1,2 0,1 1,2 1,3 0,0 0,1 1,1 1,5 -5,2 -8,2l-7 0c-3,0 -4,0 -7,0l12 0c-2,-8 0,-12 -4,-19l-11 13c-11,6 2,5 -11,7 -5,1 -8,0 -14,0 -8,0 -24,-1 -27,-1 -11,0 -15,-2 -26,-2l-7 9c-3,9 -1,7 3,12 8,11 -2,3 4,20 -4,-6 -1,-1 -9,-2 1,10 2,7 -4,12 -6,-2 -3,0 -7,-5 -5,-6 1,-7 -1,-13 -4,-9 1,-4 -7,-6 -6,6 -1,-2 -3,6 -2,2 -1,3 -2,6 0,1 1,8 1,10l-15 0 -1 19c0,0 0,2 1,3 0,0 -3,6 -5,3 0,0 -1,1 -2,1 23,9 4,-1 17,2 8,2 4,-1 15,-2l-7 6c5,5 5,2 6,7 1,4 0,7 0,10 6,2 9,1 14,1 12,1 3,-2 11,7 9,-4 2,-2 7,-4 12,-2 13,5 23,-6 9,5 10,6 20,7 0,-1 0,-9 0,-9l-3 -15c12,-2 1,-5 9,-3 3,0 5,8 12,1 0,18 -4,28 19,24l18 -1c19,2 1,5 15,-5 -7,-2 1,1 3,5 15,-5 15,-1 19,-16l2 -4c-15,1 -2,0 -11,2 -10,3 -10,-2 -16,-9l-17 0c14,-6 9,5 15,-13l-12 -2c2,-4 1,-5 6,-6 10,-3 17,2 29,2l2 23c10,3 20,-4 30,-4z"/>
   <path class="fil4" d="M79 168l2 12c0,1 0,2 0,2 2,8 4,-2 -1,16l-2 21c1,12 1,-1 1,7 1,7 -3,30 -2,45l4 53c-6,32 7,22 -6,34 -1,1 -1,1 -2,2 4,2 3,2 11,2 -1,5 -2,4 -5,7 0,1 -1,1 -2,2 0,10 -2,10 -1,21l0 10c0,0 -1,1 -1,1 -5,7 -6,6 -16,6l1 49c0,11 -1,10 19,11 -1,10 1,-3 -2,8l-8 0c-4,-16 -6,-8 -9,-8l3 21c0,0 1,1 1,1 0,1 0,1 0,2 0,0 0,1 0,1l41 -2c0,17 -1,3 4,8 10,-12 4,-48 4,-63l2 -47c1,-4 1,-2 3,-5 -2,-2 2,1 -3,-1l-4 -1 3 -31c0,-9 -4,-4 -4,-11 -1,-6 1,3 1,-9 0,-3 -2,-2 -2,-13 17,0 3,1 9,-4l-2 -32c-7,6 -6,8 -7,17 0,-6 0,-10 1,-16 0,0 0,-6 0,-6 0,-1 1,-1 1,-1l5 -7c-2,-4 -7,-5 -7,-10 9,-4 7,-7 7,-19 -9,7 -5,-2 -7,12 0,-3 0,-5 1,-9 1,-10 1,-3 0,-13 -1,-10 0,-16 1,-24 1,-13 -2,-22 0,-29l2 -15c-1,-1 -1,-3 -1,-4 -1,0 -1,-1 -1,-1l-1 -6c0,0 1,-3 1,-4 3,-15 -24,-23 -29,-9 -5,13 0,-3 1,10l0 11c0,0 0,1 0,1l-4 7z"/>
   <path class="fil2" d="M568 1277c-3,4 -4,15 -6,22 -5,28 -11,41 -15,62l109 -6c17,-2 16,-7 27,-10 12,-4 24,2 37,-2 7,-2 5,-3 13,-5l29 -7c18,-3 -1,9 29,-1 10,-3 8,0 11,-7 -11,-7 -65,4 -98,-1 -14,-1 -26,-6 -36,-15 -12,-10 -7,-25 -7,-42 3,-63 11,-126 13,-189 -8,4 -4,-6 -7,10l-2 -4c-2,-3 4,-2 -2,-2l0 19c-8,-6 -4,0 -7,-10 0,-1 1,-7 1,-7 -1,21 2,4 -7,11l0 6c0,1 -1,1 -2,1 -14,8 -4,9 -17,12l-1 19c-1,1 -1,1 -1,2 -3,16 -2,-6 0,9 2,14 3,15 11,25 -12,1 -10,2 -8,13 -7,-2 -6,-3 -11,-2 2,5 8,7 10,15 4,15 5,0 9,15 -1,0 -2,1 -3,1l-9 1c0,10 1,9 12,9 -1,1 -2,1 -2,2 -7,5 -7,1 -8,8 8,-1 7,-7 16,-6 5,0 2,0 6,2 -3,7 1,2 -5,6 -5,3 -8,-1 -12,7 7,4 14,-5 16,-15 -4,-4 5,3 -4,-2 0,0 -2,-1 -3,-2 -3,-3 -2,3 -4,-7 16,-6 15,8 17,-20 0,-5 -1,-9 -3,-14 -4,-12 3,1 -2,-3l-4 -2c0,-1 -1,-1 -2,-1 0,-1 1,-2 1,-2 9,-8 -3,0 7,-8 5,-4 -2,-2 7,-3 2,5 3,41 2,51l-3 8c0,1 0,1 0,2l-3 13c-1,9 -2,12 -2,22 -9,-5 -3,0 -4,-6 -2,-5 3,-6 -7,-10 5,13 2,12 6,17l3 2c0,0 1,1 1,1 -3,4 -10,5 -10,5 -1,0 -1,0 -2,0 0,1 0,1 -1,1l-6 2c0,0 -1,-1 -1,-1 -3,-6 -3,-11 -13,-12 4,8 3,-2 5,13 -16,0 -11,2 -23,5 0,10 0,-10 3,5l-1 7c-2,6 -2,8 -2,15 1,-18 -1,-7 9,-10 -1,10 -4,14 0,24 0,2 2,2 1,13 -1,5 -1,8 -1,13 -13,-2 -4,-1 -17,0 -7,1 -14,1 -21,0 -1,-15 -3,-27 1,-45 0,20 5,25 -10,37 0,-16 5,-45 3,-54z"/>
   <path class="fil2" d="M1479 1469c-10,-2 -21,-1 -32,-1 0,0 0,0 0,0l0 -7c0,0 0,-1 0,-2 6,-2 6,-2 15,-2 -3,2 0,0 -8,0 -8,0 -33,2 -37,0 -9,3 4,1 -8,6 -14,-14 -18,-5 -43,-5 -28,0 -32,3 -43,-7 3,-7 0,-5 7,-9l0 -4c-19,-1 -4,-5 -15,-4 -1,0 -1,1 -2,1l-4 1c0,0 -3,-2 -3,-9 -13,6 -3,12 -17,15 14,1 1,2 11,2l9 0c0,0 1,0 2,1l3 1c-4,4 -7,6 -16,5 -9,-1 -11,-3 -15,-7 0,-16 5,-12 13,-21l-11 -6c0,0 -4,-2 -4,-3 5,-5 -8,-8 12,-5 17,3 -6,3 7,3l-7 -5c0,0 -1,-1 -2,-1l0 -24 47 0c-3,2 2,4 -6,-3 -7,-5 -2,-3 -15,-3l9 -9c9,-2 10,-2 10,7 13,0 16,-4 21,0 -3,7 7,6 -8,6 3,2 1,2 4,2l17 -1c6,0 4,2 24,1 12,-1 5,2 21,-1 5,-1 9,1 20,0l4 0c0,0 1,0 1,0l17 0c9,2 1,0 8,0 5,0 4,1 8,4 -1,-1 -1,-2 -1,-1l-2 -8c11,0 17,1 27,-2 -5,-7 -26,-4 -35,-4l-102 -8c-25,-1 -49,-4 -71,-4 -80,-3 -70,-23 -71,42 -1,43 -9,47 58,62 55,12 131,17 189,11l13 -3c0,-1 1,0 1,-1z"/>
   <path class="fil9" d="M1181 1823c2,7 0,4 5,8 2,1 8,3 10,3 9,2 15,-3 21,2 10,8 -1,-10 2,5 0,0 0,1 0,1 0,1 0,1 0,1 0,10 -7,-5 4,6l-7 33c-12,1 -24,-5 -37,-2l40 8c2,-3 1,0 3,-5 1,-3 0,-1 0,-4l4 -21c3,-13 4,-13 15,-19 26,-14 301,-161 308,-170l-15 2c0,-1 -2,-4 -2,-4l-8 -3c1,-16 0,-13 -2,-17 -6,-12 -3,-12 -8,-19l-3 -5 13 -6c8,2 15,5 25,3 -1,0 -1,-1 -2,-1l-23 -7c-117,-26 -299,-64 -407,-66l22 5c9,2 12,3 22,5 43,6 92,17 134,23l137 21c16,3 28,5 45,6 18,23 24,0 38,39 10,31 -4,34 -26,44l-100 50c-35,17 -66,34 -102,51 -19,8 -31,17 -49,27 -27,13 -29,16 -57,6z"/>
   <path class="fil6" d="M315 858c-17,12 -27,24 -38,25 -17,1 -29,-17 -28,-35 2,-23 51,-35 61,-14 3,7 6,16 5,24zm27 6c6,-15 2,-44 -4,-57 -6,-13 -27,-19 -46,-19 -66,-1 -92,81 -64,107 16,15 52,34 69,19 11,-10 41,-42 45,-50z"/>
   <path class="fil8" d="M424 271c13,-40 -10,-29 -39,-31 -35,-4 -192,-2 -220,1 -2,2 -12,33 2,35l57 -2c22,-1 46,-3 66,-3 25,0 119,2 134,0z"/>
   <path class="fil4" d="M2138 247l-1 -1c-1,-5 -4,-33 -3,-35 0,-13 1,-3 3,-13 1,-5 1,-13 2,-18 -4,8 -4,14 -5,20 0,-5 1,-5 1,-9 1,-2 1,-5 1,-8 1,-2 1,-6 1,-8 0,-1 0,-1 0,-2 0,0 0,-1 -1,-1l0 -3c-5,-22 2,-14 -22,-14 -4,-5 -2,-8 -1,-9 -5,-4 -10,-7 -17,-8 -11,-1 -54,5 -59,-2 16,1 31,0 48,0 -3,2 0,1 -6,2 -12,2 -30,0 -41,2 -15,2 -32,1 -48,1 -4,9 -1,3 -4,5 -8,6 -16,15 2,16 0,17 -1,9 6,12 2,1 14,1 17,1 5,1 8,2 10,-1 1,-3 -4,-6 -5,-6 0,-10 0,3 2,-6l0 -2c0,-8 0,-1 0,-1l21 1c-7,-10 0,-7 -23,-7 0,-2 19,-3 22,-4 10,-4 33,-2 46,-2l-47 4c4,3 0,2 6,4l13 1c6,-1 13,-1 19,-1 12,1 13,5 32,5 -5,-7 -23,2 -29,2 17,-1 1,2 8,-7 -10,0 -20,0 -30,0 -3,0 -12,0 -15,1 -6,1 -7,2 -10,6 3,6 7,10 15,13 -1,-2 -1,-4 -3,-1 -3,5 -3,-4 0,3l22 0c-8,-8 -9,2 -7,-13l-12 0c2,4 -4,1 1,0l8 -1c4,0 7,2 16,-1 0,4 0,1 -4,5l-4 5 15 -3c0,0 5,-4 6,1 -5,1 -8,3 -11,7 3,4 4,4 5,5 4,6 1,0 1,5 2,7 -8,-4 3,4l6 3c3,-16 9,-9 15,-2l5 -7c0,6 -1,3 -2,7 -1,9 1,14 1,25 0,-17 2,-4 -6,-9 0,4 0,10 0,14 3,12 -1,4 5,8 -10,2 -7,-3 -7,13 -3,-9 -21,-1 -11,-11l-4 53c3,0 7,-2 8,-2 7,-1 11,1 20,2 0,-1 1,-2 1,-2l6 -4c19,-2 10,1 10,1l2 -31c2,-2 5,-1 7,-2z"/>
   <path class="fil2" d="M164 181c0,31 -7,27 64,27 22,0 44,-1 66,-1 18,0 123,2 130,-1 6,-11 6,-17 3,-30 -16,-4 -111,-5 -131,-3 -45,5 -88,1 -132,8z"/>
   <path class="fil6" d="M504 1640l1 16c-12,2 -31,-5 -44,-8 -2,-22 -4,-20 43,-8zm33 -81c-4,0 -20,13 -22,15 -3,5 2,3 -7,6 -5,2 -27,-2 -39,-2 1,1 2,0 2,1 2,5 2,0 4,1 8,4 1,-2 7,11 7,9 5,-7 0,3l-9 7c-1,1 -1,1 -2,1 0,1 -1,1 -1,2 -8,7 0,9 -14,9 2,1 -3,5 5,0 8,-5 2,2 6,-9 -12,3 -8,6 -21,6 -13,14 1,4 -4,5 0,0 -8,0 -9,0l1 21c0,5 1,3 1,11l-13 -3c-16,1 -9,3 -9,3l-6 10c6,-1 12,0 15,0 11,4 5,2 9,9 19,4 76,19 91,16 9,-2 10,-1 17,3l3 -4c0,0 0,-1 1,-1 8,-10 -7,2 4,-4 3,-1 6,4 7,-4l-8 0c6,-11 -3,-2 7,-6 -6,-1 -9,-2 -15,-3 -10,-2 -8,-2 -10,-12 -3,-14 13,-4 29,-7 1,-4 -7,-4 -9,-4 -1,-2 -2,-5 -2,-7l-1 -7c-2,-5 0,-4 -6,-6 -27,1 15,15 -54,0 2,-15 11,-18 25,-21 5,-8 0,-3 8,-5 0,0 8,-1 9,-1 6,0 13,0 19,1 0,0 1,-1 1,-1 1,3 0,-2 6,-5 -2,-12 5,-8 6,-13 0,-1 0,-1 0,-1 -1,-14 5,-7 3,-17 0,0 4,-7 -9,-4 -1,0 -4,2 -5,2 -5,3 5,-1 -5,3 -1,0 -4,1 -6,1z"/>
   <path class="fil6" d="M192 684c-1,3 -6,10 -8,13 -6,12 -7,10 2,22l35 -1c8,-3 95,-2 110,-1 10,1 39,3 47,1 17,-2 16,-20 17,-28 -6,-2 -14,-8 -18,-10 -5,-1 -20,-1 -26,-2l-110 0c-17,1 -31,4 -49,6z"/>
   <path class="fil8" d="M161 306c-5,25 -7,26 4,28 13,4 97,0 112,-1 26,-1 50,-2 75,-3 15,0 64,4 74,1 1,-10 2,-20 -4,-26 -9,-7 -112,-1 -128,0 -43,4 -89,0 -133,1z"/>
   <path class="fil10" d="M1199 1794c19,1 32,-5 45,-12l70 -37c6,-2 14,-5 19,-8 5,-2 9,-8 14,-11 29,-19 131,-53 141,-75 -14,-24 -24,-8 -35,-2l-190 101c-25,14 -59,16 -64,44z"/>
   <path class="fil4" d="M136 1277c2,-8 1,-11 -3,-15l-24 3c9,-8 2,-14 8,-38 -10,3 -2,1 -6,5 -1,0 -2,3 -2,3l0 -21c0,1 1,2 1,2l5 0c-2,-12 1,-10 -4,-23 -2,-7 1,-12 -2,-21 -13,4 -6,-7 -9,10 0,0 1,11 1,13l-9 0 0 -19c-4,-3 0,-2 -6,-4 -10,-2 -2,1 -2,2 0,-14 -2,-12 -7,-15l0 30c7,3 7,-3 6,2 -1,2 -5,1 -3,6 6,13 0,4 1,14 1,4 2,4 3,5 -3,9 0,-3 -9,9 1,0 1,0 2,0l3 2c0,0 1,0 1,0 7,5 -1,5 1,16 0,0 0,1 0,1 3,17 1,9 0,16l-2 32c0,0 1,1 1,2 2,6 2,-4 0,8l0 0c0,0 0,0 0,0 -3,3 -2,2 -6,6l8 2c-8,1 -5,-1 -7,8l8 -1c3,-1 0,-1 4,-1 0,2 0,10 0,11 1,8 -1,1 2,7l11 4c11,-14 -4,-21 9,-22 -1,4 -1,15 -1,18 3,11 1,8 15,8 5,-7 6,-11 4,-21 -1,-9 2,0 -1,-5 0,0 1,0 1,0 5,-3 6,-2 9,-7 2,-3 4,-13 0,-14 0,0 0,0 -1,0 -4,-2 -1,-13 0,-18z"/>
   <path class="fil11" d="M400 1513c1,0 1,-2 2,-1l46 -23c66,-40 89,-31 174,-16l122 20c42,4 83,14 127,14 -11,-6 -48,-11 -64,-13l-198 -40c-14,1 -55,-9 -70,-11 -25,-4 -43,9 -59,21 -26,19 -52,27 -82,39 -16,7 -22,9 -26,17 9,-2 22,-8 28,-7z"/>
   <path class="fil10" d="M1617 2069c4,-6 6,-40 16,-68 4,-11 7,-21 11,-32 10,-24 30,-58 47,-78 14,-17 30,-26 41,-44 -12,-1 -48,17 -59,28 -15,15 -28,33 -37,52 -16,34 -41,100 -19,142z"/>
   <path class="fil8" d="M858 1652c53,9 49,19 72,2 9,-7 28,-14 32,-24 -2,-4 0,-5 -14,-8 -19,-5 -35,-9 -55,-7 -10,13 -11,8 -22,16 -7,5 -14,9 -13,21z"/>
   <path class="fil12" d="M1320 1258c12,-2 19,5 18,18l-22 0c-1,-8 2,-13 4,-18zm-28 18c3,14 23,25 44,23 15,-2 35,-14 32,-33 -4,-26 -89,-44 -76,10z"/>
   <path class="fil5" d="M1433 1290c-10,-29 33,-28 14,1l-14 -1zm-28 -1c3,12 23,26 42,25 16,-1 31,-17 29,-36 -3,-46 -81,-27 -71,11z"/>
   <path class="fil8" d="M759 1627c3,5 2,5 12,8 12,4 40,11 50,6 6,-2 20,-11 26,-15 5,-3 7,-5 11,-9 5,-5 7,-5 9,-11 -7,-6 -49,-11 -61,-7 -1,0 -6,3 -6,3 -1,0 -1,0 -2,1l-15 10c-3,3 -2,2 -5,4 -7,4 -8,3 -19,10z"/>
   <path class="fil2" d="M315 858c1,-8 -2,-17 -5,-24 -10,-21 -59,-9 -61,14 -1,18 11,36 28,35 11,-1 21,-13 38,-25z"/>
   <path class="fil12" d="M1207 1253c6,-4 8,-5 17,-6 18,35 -18,29 -17,6zm-20 19c8,29 87,25 68,-17 -16,-35 -79,-27 -68,17z"/>
   <path class="fil13" d="M1164 1758c9,-1 11,1 17,6l-5 11c-32,2 -56,-23 -53,6 9,6 38,11 51,10 11,-17 3,-16 25,-28l30 -18 2 -9c-21,-14 -66,-2 -74,15l5 6c0,0 1,1 2,1z"/>
   <path class="fil8" d="M515 1574c2,-2 18,-15 22,-15 0,0 1,-2 1,-1 1,0 1,-1 2,-2l8 -10c-23,-10 -102,-10 -113,15l8 3c5,0 7,0 11,1 31,6 22,13 61,9z"/>
   <path class="fil8" d="M1233 1722c12,0 16,7 26,6 5,-1 19,-7 24,-9 9,-5 32,-14 37,-27 -25,-5 -34,-9 -62,-3 -15,3 -39,12 -41,28 5,3 13,2 16,5z"/>
   <path class="fil8" d="M1026 1666l6 -4c3,-2 3,-2 6,-5 3,-2 2,-1 6,-4l4 -3c-1,-8 1,-3 -4,-7l-38 -9c-16,-1 -54,18 -54,37 35,12 57,-2 74,-5z"/>
   <path class="fil14" d="M1154 1676c-2,5 0,3 -6,5 -4,1 -5,0 -8,0 -12,17 -12,4 -13,17 13,6 41,10 60,8 14,-2 34,-14 38,-27 -7,-5 -27,-7 -36,-9 -21,-4 -22,-1 -35,6z"/>
   <path class="fil2" d="M1549 1669c5,-1 30,-16 34,-20l-12 -22c-5,-7 -2,1 -4,-5l-18 -2c-10,2 -17,-1 -25,-3l-13 6 3 5c5,7 2,7 8,19 2,4 3,1 2,17l8 3c0,0 2,3 2,4l15 -2z"/>
   <path class="fil8" d="M692 1616c14,5 33,10 50,1 10,-5 29,-16 32,-28 -22,-17 -78,2 -82,27z"/>
   <path class="fil10" d="M1100 1743c24,1 47,-3 57,-21 -21,-8 -40,-10 -66,-8 -3,3 -19,4 -28,18 9,7 25,9 37,11z"/>
   <path class="fil14" d="M1058 1668c-3,7 -2,1 -5,6 -3,5 -2,0 -3,9 28,22 81,-15 84,-15l0 -8c-10,-1 -40,-7 -43,-7 -7,1 -23,12 -33,15z"/>
   <path class="fil15" d="M377 1596c18,8 85,19 97,-8 -23,-6 -87,-22 -97,8z"/>
   <path class="fil14" d="M609 1596c46,13 42,5 68,-9 6,-4 14,-7 15,-15 -17,-12 -66,-2 -83,24z"/>
   <path class="fil14" d="M704 1647c7,-12 0,-12 -11,-13 -8,-2 -12,-4 -21,-5 -13,-1 -37,15 -38,15 -13,18 54,26 70,3z"/>
   <path class="fil13" d="M923 1595c4,7 10,8 20,11 9,2 14,5 25,6 16,1 44,-1 43,-18 -1,-1 -65,-12 -70,-10 -5,1 -16,7 -18,11z"/>
   <path class="fil15" d="M1175 1621c-19,3 -26,-7 -52,4 -7,2 -10,4 -13,9 3,5 -1,4 20,8 17,4 64,10 65,-12 -4,-2 -7,-3 -11,-4 -2,0 -8,-2 -9,-5z"/>
   <path class="fil16" d="M966 1557l-8 9c4,2 44,11 50,12 28,3 37,-1 58,-9l-2 -4c-20,-2 -32,-5 -49,-8 -22,-3 -33,0 -49,0z"/>
   <path class="fil13" d="M770 1676c1,-1 7,-4 10,-6 4,-2 5,-4 8,-4 0,-9 1,-9 -7,-11l-38 -9c-5,-1 -34,14 -35,24 9,4 50,6 62,6z"/>
   <path class="fil13" d="M1333 1689c1,-1 0,-1 3,-2 8,-5 32,-13 40,-23 -1,-6 1,-1 -3,-5 -1,0 -3,-1 -4,-1 -14,0 -39,-3 -48,-3 -11,0 -2,-1 -10,3 -12,6 -19,3 -21,14 8,3 16,1 26,4 12,2 9,8 17,13z"/>
   <path class="fil10" d="M545 1626l1 7c10,2 38,9 45,9 9,1 9,-3 17,-8 7,-4 13,-5 15,-13l-5 -2c-1,0 -4,-1 -5,-2 -9,-2 -22,-6 -31,-6 -15,0 -11,5 -37,15z"/>
   <path class="fil13" d="M805 1681c2,8 6,8 16,10 8,1 17,2 23,3 18,2 29,-5 39,-10l1 -9c-6,-3 -33,-7 -42,-7 -26,-1 -27,8 -37,13z"/>
   <path class="fil13" d="M1023 1619c13,4 27,10 43,10 16,1 33,-5 31,-21 -7,-3 -43,-9 -61,-4 0,0 -1,1 -1,1l-3 0c-7,2 -9,5 -9,14z"/>
   <path class="fil17" d="M1338 1610c-6,1 -56,-7 -66,-9l2 12c-5,5 -9,4 -12,10 6,4 61,19 78,-6 -1,-5 0,-3 -2,-7z"/>
   <path class="fil13" d="M1241 1612c7,-4 12,-7 11,-15 -5,-1 -10,-1 -16,-2 -5,0 -11,-1 -15,-4 -20,4 -35,-12 -48,9 7,18 50,16 68,12z"/>
   <path class="fil16" d="M1398 1650c12,-2 12,-2 21,-6 15,-7 12,-3 16,-10 -3,-4 -1,-2 -5,-4 -2,-1 -5,-2 -5,-2 -13,-1 -59,-17 -68,3 -7,17 18,8 33,13 7,2 5,2 8,6z"/>
   <path class="fil13" d="M1063 1704c-18,-10 -91,-4 -77,13 9,10 72,9 77,-13z"/>
   <path class="fil13" d="M559 1574c0,0 0,0 0,1 -1,5 -8,1 -6,13 16,2 32,1 44,-5 9,-4 27,-13 27,-26 -38,-6 -40,9 -65,17z"/>
   <path class="fil13" d="M932 1543c-3,1 -45,-3 -50,-4 -9,11 -11,1 -15,14 15,8 72,21 81,-2 -4,-4 0,-2 -7,-4l-9 -4z"/>
   <path class="fil13" d="M539 1620c9,-11 12,-4 13,-16 -11,-7 -27,-6 -42,-5 -14,3 -23,6 -25,21 69,15 27,1 54,0z"/>
   <path class="fil13" d="M948 1706c4,-2 6,-3 9,-4 5,-7 6,-4 8,-11 -10,-13 -67,-10 -70,13 12,7 40,5 53,2z"/>
   <path class="fil17" d="M1078 1578l-2 7c9,5 22,6 34,9 22,4 22,1 39,-3l1 -5c0,0 1,-3 1,-3 -12,-3 -25,-7 -36,-10 -32,-7 -24,4 -37,5z"/>
   <path class="fil17" d="M1062 1750c-18,-5 -28,-9 -25,15 13,3 27,5 39,8 16,5 26,8 25,-11 -15,-8 -22,-7 -39,-12z"/>
   <path class="fil13" d="M1204 1657c17,5 44,9 63,1 8,-3 9,-4 10,-12 -13,-5 -48,-7 -63,0 -12,5 -10,7 -10,11z"/>
   <path class="fil16" d="M798 1534c-2,30 58,21 62,1 -7,-2 -42,-9 -50,-8 -9,1 -4,1 -12,7z"/>
   <path class="fil17" d="M959 1732c-4,6 -8,7 -5,18 18,2 41,10 58,7 0,-24 -34,-27 -53,-25z"/>
   <path class="fil17" d="M370 1554c1,5 -3,7 20,6 9,0 16,0 24,-3 7,-2 12,-5 17,-8 2,-2 5,-4 8,-5 6,-6 3,0 6,-8 -4,-3 -1,-2 -6,-3 -3,-1 -2,-1 -6,-1 -3,0 -11,1 -15,2 -15,6 -33,18 -48,20z"/>
   <path class="fil9" d="M289 1599c-6,21 8,17 23,19 11,2 30,6 37,6 6,-22 1,-17 -20,-19 -20,-3 -32,-10 -40,-6z"/>
   <path class="fil18" d="M519 1524c10,4 66,15 74,3 -3,-6 -1,-4 -16,-7 -13,-4 -30,-7 -43,-5 -14,3 -10,1 -15,9z"/>
   <path class="fil18" d="M377 1630c14,6 37,6 51,12 1,-25 -21,-27 -44,-30 -4,5 -6,11 -7,18z"/>
   <path class="fil18" d="M309 1583c13,5 56,10 62,-7 -6,-4 -24,-8 -34,-8 -7,0 -13,1 -18,3 -8,4 -8,5 -10,12z"/>
   <path class="fil9" d="M897 1721c-14,-2 -24,-7 -23,10 7,3 46,12 55,11l0 -13c-9,-6 -19,-6 -32,-8z"/>
   <path class="fil18" d="M504 1640c-47,-12 -45,-14 -43,8 13,3 32,10 44,8l-1 -16z"/>
   <path class="fil19" d="M528 1651c2,10 0,10 10,12 6,1 9,2 15,3 9,2 25,6 33,5 -1,-9 -1,-8 -8,-12 -5,-3 -9,-5 -15,-6 -12,-2 -24,-5 -35,-2z"/>
   <path class="fil9" d="M840 1574c2,12 12,11 29,14 6,1 11,3 17,3 7,-1 12,-3 14,-8 -3,-4 3,-1 -5,-4 -8,-3 -48,-11 -55,-5z"/>
   <path class="fil18" d="M847 1724c-2,-8 -2,-8 -8,-12 -12,-7 -38,-13 -44,1l3 1c0,1 31,10 49,10z"/>
   <path class="fil20" d="M629 1670c-19,-5 -14,-1 -16,0 3,10 12,9 29,14l27 5c9,0 5,-1 7,-2 -5,-11 -30,-12 -47,-17z"/>
   <path class="fil21" d="M241 1174c-1,12 -2,26 14,22 10,-3 15,-10 13,-22 -12,-4 -14,-4 -27,0z"/>
   <path class="fil22" d="M946 1524c6,-1 22,2 30,3 6,1 8,2 13,3 7,1 13,1 20,2 1,-3 1,-1 1,-6 -14,-1 -63,-17 -77,-7l13 5z"/>
   <path class="fil23" d="M763 1702l0 -4c-13,-4 -15,-5 -30,-7l-23 0c4,9 28,13 38,14 8,1 12,2 15,-3z"/>
   <path class="fil24" d="M578 1495c2,7 2,5 10,7 6,2 8,2 13,4 9,3 21,5 30,0 -4,-7 -17,-8 -24,-10 -9,-2 -19,-5 -29,-1z"/>
   <path class="fil19" d="M464 1512l4 6c14,1 36,4 42,-10 -16,-8 -41,3 -46,4z"/>
   <path class="fil25" d="M736 1534c6,2 25,3 32,0 10,-4 4,-1 7,-7 -5,-5 -8,-6 -23,-5 -13,1 -16,3 -16,12z"/>
   <path class="fil23" d="M765 1566c6,4 27,9 36,7 8,-1 7,-1 9,-5 -6,-5 -43,-17 -45,-2z"/>
   <path class="fil18" d="M1207 1253c-1,23 35,29 17,-6 -9,1 -11,2 -17,6z"/>
   <path class="fil26" d="M230 1152c0,11 -1,24 14,16 7,-4 9,-13 6,-22 -9,0 -13,2 -20,6z"/>
   <path class="fil26" d="M286 1135c9,1 14,1 19,-4 3,-3 7,-12 2,-17 -8,-8 -23,6 -21,21z"/>
   <path class="fil9" d="M1433 1290l14 1c19,-29 -24,-30 -14,-1z"/>
   <path class="fil26" d="M248 1135c29,4 34,-29 1,-16l-1 16z"/>
   <path class="fil23" d="M693 1553c5,4 12,5 19,6 11,1 15,0 18,-9 -10,-2 -31,-10 -37,3z"/>
   <path class="fil27" d="M312 1169c14,1 21,-4 20,-19l-15 -1 -6 5 1 15z"/>
   <path class="fil9" d="M1320 1258c-2,5 -5,10 -4,18l22 0c1,-13 -6,-20 -18,-18z"/>
   <path class="fil11" d="M671 1522c12,3 23,5 31,-3 -2,-2 -1,-5 -12,-7 -10,-1 -19,-2 -19,10z"/>
   <path class="fil28" d="M274 1205c12,3 19,-1 18,-14l-12 -2c-6,6 -6,6 -6,16z"/>
   <path class="fil29" d="M318 1197c3,-9 2,-12 -4,-17 -10,2 -13,6 -11,18l15 -1z"/>
   <path class="fil11" d="M634 1538c2,5 2,6 10,7 13,2 12,0 14,-9 -8,-2 -17,-4 -24,2z"/>
   <path class="fil30" d="M543 1491c-16,-10 -13,-8 -22,-8 2,7 0,8 8,10 7,1 10,1 14,-2z"/>
  </g>
 </g>
</svg>
