<?xml version="1.0" encoding="UTF-8"?>
<!DOCTYPE svg PUBLIC "-//W3C//DTD SVG 1.1//EN" "http://www.w3.org/Graphics/SVG/1.1/DTD/svg11.dtd">
<!-- Creator: CorelDRAW X6 -->
<svg xmlns="http://www.w3.org/2000/svg" xml:space="preserve" width="72.5821mm" height="80.3358mm" version="1.1" style="shape-rendering:geometricPrecision; text-rendering:geometricPrecision; image-rendering:optimizeQuality; fill-rule:evenodd; clip-rule:evenodd"
viewBox="0 0 1407 1557"
 xmlns:xlink="http://www.w3.org/1999/xlink">
 <defs>
  <style type="text/css">
   <![CDATA[
    .fil0 {fill:black}
    .fil2 {fill:#FDFDFD}
    .fil1 {fill:#FEFEFE}
   ]]>
  </style>
 </defs>
 <g id="Layer_x0020_1">
  <metadata id="CorelCorpID_0Corel-Layer"/>
  <path class="fil0" d="M414 1381c12,2 26,7 41,10 43,8 87,7 131,24 -2,22 -16,60 -22,82 -29,-2 -137,-46 -157,-60l7 -56zm-270 -165c7,-7 26,-18 35,-24 22,-14 50,-30 74,-41 11,-5 13,-2 22,3 41,23 93,46 136,66 31,15 26,15 41,11l-13 124 -11 9c-6,-7 -22,-19 -34,-18 -12,18 3,60 -7,81 -14,-3 -61,-31 -74,-40 -45,-29 -87,-65 -121,-105 -9,-10 -45,-54 -48,-66zm191 -75c30,13 63,23 93,36 30,14 27,12 24,39 -7,-6 -6,-7 -19,-12 -24,-7 -136,-62 -143,-68 17,-16 27,-3 45,5zm0 -27c27,-25 111,-24 128,-13 1,14 -3,53 -9,63 -9,-2 -21,-9 -30,-13 -10,-4 -20,-8 -30,-12 -9,-4 -56,-20 -59,-25zm606 -154c5,-21 23,-19 38,-10 -2,6 -10,14 -16,17 -7,0 -16,-3 -22,-7zm25 -29c2,-19 37,-33 52,-15 -5,7 -21,21 -29,26l-23 -11zm-47 -22c2,-4 0,-2 4,-6l14 -15c8,3 29,8 34,13 -5,10 -13,14 -17,23 -9,-1 -30,-10 -35,-15zm-545 79c-2,-21 13,-30 22,-38 11,-10 23,-17 37,-24 21,-12 62,-28 90,-32 -3,10 -10,24 -14,34 -8,22 -30,95 -33,100 -9,-5 -13,-9 -24,-13 -27,-9 -54,-9 -78,-27zm620 -92c1,-4 12,-19 15,-23 7,1 14,5 21,7l15 8c0,0 1,1 1,1 0,-1 1,0 1,1 -3,4 -13,13 -18,18 -12,-2 -25,-8 -35,-12zm-257 49c52,-31 106,-28 112,-89 7,0 69,24 74,29 -3,8 -11,14 -16,21 -15,-3 -27,-12 -42,-5 5,12 22,8 32,15 -3,8 -7,6 -9,14 15,-2 13,-12 27,-7 9,3 22,6 27,12 -3,7 -9,14 -13,19 -8,-1 -31,-11 -43,-14 -16,-3 -32,-6 -49,-6 -18,0 -35,1 -53,3 -12,2 -38,8 -47,8zm26 389c18,8 30,17 47,24 19,8 21,-2 37,-28 36,-57 74,-116 116,-166 11,-13 21,-24 31,-40 19,-30 39,-54 59,-82l84 -128c6,-7 11,-9 18,-18 5,-8 8,-13 14,-19 0,12 -26,62 -32,73 -48,84 -104,144 -153,220 -14,23 -92,116 -116,148l-44 61c-29,-5 -194,-81 -217,-94l5 -11 151 60zm185 -456c2,-7 12,-18 17,-22 8,1 26,8 31,12 -4,9 -10,14 -14,22 -10,-1 -25,-9 -34,-12zm240 -15c40,1 37,-18 49,-46 10,-22 19,-45 26,-69 6,-17 40,-143 43,-147 10,12 30,58 37,76 42,105 27,178 2,288 -13,62 -27,115 -54,171 -12,25 -22,51 -34,77 -17,36 -16,40 -39,73l-25 32c-8,14 -16,20 -24,32 -5,7 -7,7 -13,14 -47,53 -111,100 -183,125 -87,31 -199,44 -294,33 -19,-2 -80,-11 -93,-19 1,-10 10,-35 13,-47 3,-8 5,-15 8,-23 6,-19 9,-13 10,-20 -2,-18 -20,-18 -33,-26 2,-12 7,-23 9,-37l4 -30c1,-5 1,-6 3,-9 14,3 43,18 57,24 29,14 152,71 171,68l4 -13c11,1 9,-1 16,-9 4,-6 8,-10 12,-15 120,-153 196,-248 304,-417 28,-44 22,-47 24,-86zm-620 518c-14,-1 -106,-10 -110,-15 0,-1 -1,-1 -1,-4 0,0 0,-2 0,-3 1,-1 1,-6 2,-7 5,-30 8,-64 11,-94 8,-74 11,-148 27,-218 23,-98 58,-175 131,-234 23,-19 45,-36 88,-35 -7,23 -75,78 -95,96 -57,49 -72,120 -42,116 8,-1 17,-18 22,-25 19,-27 49,-49 79,-64 27,-14 113,-43 150,-39 2,41 -112,69 -155,96 -14,8 -38,26 -42,42 13,22 36,2 50,-6 13,-7 37,-17 53,-21 37,-10 90,-20 129,-9 -9,46 -99,39 -144,53 -16,4 -35,14 -38,26 8,17 21,10 39,6 44,-8 105,-19 146,-3 15,6 12,29 0,36 -29,19 -106,-4 -148,17 -6,3 -13,5 -17,10 -13,23 -10,24 -34,50 -8,9 -18,20 -26,30 -12,16 -19,35 -33,49 -5,6 -12,7 -15,13 -17,30 -29,98 -27,137zm485 -382c-2,8 -55,79 -59,84 -42,56 -79,110 -120,166 -21,27 -39,56 -59,83 -14,-4 -32,-13 -47,-19 -24,-11 -133,-54 -141,-61 16,-35 67,-84 93,-128 6,-11 6,-13 19,-19 46,-17 133,11 159,-24 13,-18 1,-41 -12,-50 -19,-13 -35,-12 -50,-16l-6 -3c28,-11 57,-18 57,-54 9,1 21,5 28,9 -2,10 -14,18 -19,30 15,1 25,-18 34,-26 6,-2 38,19 53,10 -3,-7 -4,-2 -8,-8l18 -15 44 20c6,-1 3,2 5,-2 -14,-12 -24,-13 -39,-24 2,-8 22,-23 29,-28 10,-8 19,-20 26,-31 11,2 15,8 25,10 1,-13 -12,-14 -32,-24 -55,-25 -230,-93 -280,-100 21,26 142,56 180,72 -4,8 -11,15 -16,22 -23,-3 -53,-22 -75,-30 -49,-18 -124,5 -170,25 -17,7 -67,35 -69,35 13,-28 113,-98 117,-117 6,-33 -33,-38 -63,-32 -58,14 -97,76 -114,83 -16,-14 -21,-21 -51,-21 -26,0 -40,7 -61,10 4,-5 12,-8 19,-10 30,-12 72,-16 84,-48 10,-24 -32,-56 -104,-28 -13,6 -25,12 -36,19 -12,6 -21,15 -31,21 10,-28 69,-57 91,-82 16,-18 0,-33 -3,-40 6,-6 10,-8 16,-14 8,-7 6,-5 19,-2 118,27 196,47 315,86 44,14 292,103 334,126 -6,13 -93,141 -100,145zm-823 -162c0,-45 20,-100 39,-130 18,-29 70,-65 98,-71 -4,12 -39,56 -48,69 -11,15 -36,54 -39,77 8,7 12,13 23,2 6,-6 26,-40 45,-62 17,-19 48,-53 90,-53l17 2c5,28 -72,53 -109,115 -6,9 -25,48 -8,55 8,3 12,-1 23,-12 18,-17 41,-38 61,-52 18,-13 84,-52 110,-27 2,18 -23,32 -38,38 -18,8 -40,12 -57,20 -19,8 -32,19 -47,30 -10,8 -37,26 -33,43 11,17 71,-23 86,-29 26,-11 69,-30 95,-13 2,38 -44,40 -84,55 -33,13 -127,54 -97,101 18,27 66,24 98,40 23,11 18,16 12,46 -15,1 -39,-6 -59,-6 -38,0 -59,6 -90,21 -48,22 -89,43 -134,69l-63 38c-4,-6 -34,-94 -35,-102 8,-4 31,-18 48,-26 21,-9 86,-34 93,-53 19,-52 3,-124 3,-185zm-153 239c-4,-13 -6,-19 -9,-35 -2,-11 -6,-21 -9,-32 -5,-23 -10,-46 -14,-70 -25,-150 -8,-287 57,-419 38,-78 89,-140 138,-193l42 -41c25,-21 136,-79 167,-81 2,42 2,84 4,126 2,41 6,81 9,120 4,39 8,78 15,116 11,68 -3,47 -33,84 -41,0 -43,11 -63,16 4,-18 13,-20 9,-45 -5,-3 -11,-7 -18,-6 -17,3 -40,13 -54,21 -22,12 -41,28 -54,45 -27,35 -51,86 -57,143 -5,59 18,127 1,183 -3,9 -5,8 -13,13 -20,10 -111,54 -118,55zm1156 -368c36,-117 68,-236 104,-353 17,-57 11,-46 32,-56 0,7 -17,58 -21,70 -36,118 -66,237 -100,355 -11,37 -28,117 -62,121l47 -137zm-325 -536c71,22 141,44 213,66 27,8 83,24 106,33l103 36c-3,16 -111,371 -120,398 -6,21 -36,117 -43,127 -14,-3 -52,-20 -68,-26l-201 -74c-116,-42 -237,-76 -358,-105 -44,-11 -33,1 -42,-50 -19,-114 -19,-230 -25,-345 -1,-29 -1,-59 -3,-88 -2,-28 -5,-61 -5,-88 19,2 95,19 116,24 38,9 75,18 111,28 73,20 144,41 216,64zm446 115c-17,3 -90,-27 -109,-33 -36,-13 -70,-26 -106,-38 -73,-23 -148,-40 -221,-63 -72,-22 -143,-47 -217,-67 -38,-10 -76,-19 -115,-27 -38,-9 -80,-14 -118,-23 9,-9 16,-15 34,-15 62,0 157,38 223,58 37,10 73,19 110,30 73,22 137,48 208,71 52,17 296,89 311,107zm-904 -270l-2 0c-4,5 -4,4 -8,8 -2,1 -4,4 -6,7 -4,12 0,15 3,23l3 5c3,6 5,14 4,20l4 45c0,15 0,31 0,46 -8,6 -24,8 -35,11 -4,3 -22,9 -28,9 -5,5 -13,7 -20,10 -7,3 -13,6 -20,9 -12,6 -28,17 -39,20l-23 16c-41,28 -89,71 -118,112l-16 20c-3,8 -7,12 -11,19 -4,6 -7,13 -13,16l1 1c0,0 -43,74 -46,77 -1,5 -13,27 -16,34 -4,7 -14,32 -16,34l-15 40c0,0 -1,1 -1,1 0,8 -7,26 -10,35 -2,7 -6,28 -8,32 -1,8 -3,15 -5,22 0,4 -1,7 -2,11l-3 9c2,8 -1,22 -2,30l-2 39 0 33 3 49 -1 9c4,4 7,43 8,52 2,6 5,23 4,30l1 3c5,11 -2,-9 1,3l15 74c3,7 6,23 6,32 3,3 2,6 3,11 2,8 1,4 5,8 5,6 6,13 8,21 0,0 11,30 14,35 3,7 14,27 14,33l7 10c13,26 17,34 27,65 3,1 3,1 6,3 0,0 2,2 3,2 2,2 0,1 1,3 8,3 26,21 29,29 0,0 1,0 1,0 0,0 0,1 1,1 0,0 0,0 0,0l36 43c14,17 41,36 42,39 7,4 10,7 17,13 5,3 11,6 14,12 4,1 3,-4 4,2l76 48c6,1 28,13 35,17 7,3 31,11 33,16 12,4 27,13 41,18 7,3 35,13 39,17 5,0 24,6 29,9l79 22c11,-2 23,4 34,5 11,2 41,4 47,8 12,-2 61,4 79,4 14,0 76,-4 82,-2 4,-3 38,-8 42,-8 4,-2 25,-8 32,-7 6,-5 9,-1 20,-4 6,-1 13,-3 19,-5 12,-4 25,-9 36,-12 6,-3 26,-12 32,-12l20 -11c7,-3 13,-7 20,-10 11,-7 27,-19 38,-23l1 0c4,-6 12,-10 17,-14 8,-5 11,-9 19,-13 0,-4 -1,-1 3,-5l15 -12c6,-5 12,-12 18,-17 6,-6 12,-12 18,-19l15 -16c0,0 1,0 1,-1 0,0 1,0 1,-1 1,-4 -1,1 1,-3 0,0 2,-2 2,-3 2,-3 2,-2 5,-3l37 -56c4,-6 30,-56 34,-59l24 -61c1,-1 2,-3 2,-4 2,-2 2,-2 2,-2 3,-8 6,-13 10,-22 3,-6 6,-16 11,-21 0,-3 21,-63 22,-65 1,-8 9,-37 12,-41 0,-8 4,-23 7,-30l14 -60c1,-5 2,-16 4,-19 -1,-6 3,-26 5,-30 2,-15 3,-22 2,-38l3 -35 -1 -40c-1,-9 -5,-22 -3,-31l-5 -20c-1,-8 -4,-10 -5,-19 -1,-1 -4,-14 -6,-18 -2,-6 -4,-11 -7,-17 -4,-8 -13,-26 -14,-33 -5,-4 -8,-13 -11,-19 -3,-6 -6,-13 -9,-19 -7,-11 -16,-27 -20,-39 -8,-5 -7,-26 -2,-33 1,-7 3,-14 5,-21 1,-4 1,-6 2,-10 1,-5 1,-5 4,-8 -1,-9 14,-64 18,-69l11 -31c0,-1 1,-4 2,-5l3 -4c0,-5 7,-28 9,-31 4,-25 12,-45 9,-74l-34 -13c-10,1 -29,-8 -38,-12 -7,-3 -30,-11 -33,-13 -8,-2 -14,-5 -21,-8 -7,-2 -16,-4 -20,-8 -6,0 -64,-20 -67,-22l-37 -11 -71 -24c-13,-4 -37,-12 -41,-15 -6,0 -65,-20 -68,-22 -9,-2 -38,-10 -43,-15 -7,0 -57,-15 -64,-19l-40 -12c-8,2 -24,-4 -32,-6 -9,-2 -71,-15 -79,-22 -6,0 -26,-6 -30,-9 -16,-4 -51,-16 -74,-23 -2,0 -3,-1 -5,-1 -10,-4 8,4 -2,-1 0,-1 -1,-1 -1,-1 0,-1 -1,-1 -1,-1 -8,1 -21,-3 -26,-5 -4,-1 -35,-5 -39,-8 -9,3 -22,0 -32,-1l-16 0c-3,7 0,7 -8,11 -4,2 -10,4 -15,6z"/>
  <path class="fil1" d="M553 138c-20,79 -4,199 -4,285 0,43 -6,86 2,127 1,7 1,9 6,12l235 65c40,11 79,20 118,32 42,13 197,72 225,74 7,-10 26,-81 31,-99l88 -292c-12,-3 -28,-10 -42,-15 -102,-36 -192,-66 -297,-98 -48,-14 -332,-94 -362,-91z"/>
  <path class="fil1" d="M1188 863c-2,39 4,42 -24,86 -108,169 -184,264 -304,417 -4,5 -8,9 -12,15 -7,8 -5,10 -16,9l-4 13c-19,3 -142,-54 -171,-68 -14,-6 -43,-21 -57,-24 -2,3 -2,4 -3,9l-4 30c-2,14 -7,25 -9,37 13,8 31,8 33,26 -1,7 -4,1 -10,20 -3,8 -5,15 -8,23 -3,12 -12,37 -13,47 13,8 74,17 93,19 95,11 207,-2 294,-33 72,-25 136,-72 183,-125 6,-7 8,-7 13,-14 8,-12 16,-18 24,-32l25 -32c23,-33 22,-37 39,-73 12,-26 22,-52 34,-77 27,-56 41,-109 54,-171 25,-110 40,-183 -2,-288 -7,-18 -27,-64 -37,-76 -3,4 -37,130 -43,147 -7,24 -16,47 -26,69 -12,28 -9,47 -49,46z"/>
  <path class="fil1" d="M77 1076c7,-1 98,-45 118,-55 8,-5 10,-4 13,-13 17,-56 -6,-124 -1,-183 6,-57 30,-108 57,-143 13,-17 32,-33 54,-45 14,-8 37,-18 54,-21 7,-1 13,3 18,6 4,25 -5,27 -9,45 20,-5 22,-16 63,-16 30,-37 44,-16 33,-84 -7,-38 -11,-77 -15,-116 -3,-39 -7,-79 -9,-120 -2,-42 -2,-84 -4,-126 -31,2 -142,60 -167,81l-42 41c-49,53 -100,115 -138,193 -65,132 -82,269 -57,419 4,24 9,47 14,70 3,11 7,21 9,32 3,16 5,22 9,35z"/>
  <path class="fil1" d="M522 266c0,-27 3,-56 4,-84 1,-29 1,-51 16,-70 159,39 323,73 476,124 75,25 147,53 222,78 32,10 45,9 36,35 -17,56 -38,111 -55,168 -13,40 -21,79 -32,119 -5,20 -11,39 -17,59 -23,80 -13,72 -70,54 -59,-20 -112,-44 -164,-61 -78,-25 -156,-43 -237,-63 -20,-5 -40,-10 -59,-17 -28,-9 -58,-20 -87,-24 -15,-2 -18,-2 -23,-15 -16,-39 -7,-118 -5,-159 1,-42 -5,-96 -5,-144zm645 566c7,-10 37,-106 43,-127 9,-27 117,-382 120,-398l-103 -36c-23,-9 -79,-25 -106,-33 -72,-22 -142,-44 -213,-66 -72,-23 -143,-44 -216,-64 -36,-10 -73,-19 -111,-28 -21,-5 -97,-22 -116,-24 0,27 3,60 5,88 2,29 2,59 3,88 6,115 6,231 25,345 9,51 -2,39 42,50 121,29 242,63 358,105l201 74c16,6 54,23 68,26z"/>
  <path class="fil1" d="M568 1381c-2,-39 10,-107 27,-137 3,-6 10,-7 15,-13 14,-14 21,-33 33,-49 8,-10 18,-21 26,-30 24,-26 21,-27 34,-50 4,-5 11,-7 17,-10 42,-21 119,2 148,-17 12,-7 15,-30 0,-36 -41,-16 -102,-5 -146,3 -18,4 -31,11 -39,-6 3,-12 22,-22 38,-26 45,-14 135,-7 144,-53 -39,-11 -92,-1 -129,9 -16,4 -40,14 -53,21 -14,8 -37,28 -50,6 4,-16 28,-34 42,-42 43,-27 157,-55 155,-96 -37,-4 -123,25 -150,39 -30,15 -60,37 -79,64 -5,7 -14,24 -22,25 -30,4 -15,-67 42,-116 20,-18 88,-73 95,-96 -43,-1 -65,16 -88,35 -73,59 -108,136 -131,234 -16,70 -19,144 -27,218 -3,30 -6,64 -11,94 -1,1 -1,6 -2,7 0,1 0,3 0,3 0,3 1,3 1,4 4,5 96,14 110,15z"/>
  <path class="fil1" d="M230 837c0,61 16,133 -3,185 -7,19 -72,44 -93,53 -17,8 -40,22 -48,26 1,8 31,96 35,102l63 -38c45,-26 86,-47 134,-69 31,-15 52,-21 90,-21 20,0 44,7 59,6 6,-30 11,-35 -12,-46 -32,-16 -80,-13 -98,-40 -30,-47 64,-88 97,-101 40,-15 86,-17 84,-55 -26,-17 -69,2 -95,13 -15,6 -75,46 -86,29 -4,-17 23,-35 33,-43 15,-11 28,-22 47,-30 17,-8 39,-12 57,-20 15,-6 40,-20 38,-38 -26,-25 -92,14 -110,27 -20,14 -43,35 -61,52 -11,11 -15,15 -23,12 -17,-7 2,-46 8,-55 37,-62 114,-87 109,-115l-17 -2c-42,0 -73,34 -90,53 -19,22 -39,56 -45,62 -11,11 -15,5 -23,-2 3,-23 28,-62 39,-77 9,-13 44,-57 48,-69 -28,6 -80,42 -98,71 -19,30 -39,85 -39,130z"/>
  <path class="fil1" d="M509 694c14,0 104,27 126,35 7,3 32,11 38,16 -28,2 -65,-10 -90,-17 -15,-3 -30,-5 -45,-9 -16,-3 -29,-8 -29,-25zm528 284l2 5c4,7 1,-3 1,8 14,0 -4,-7 13,-1l0 9c7,-4 94,-132 100,-145 -42,-23 -290,-112 -334,-126 -119,-39 -197,-59 -315,-86 -13,-3 -11,-5 -19,2 -6,6 -10,8 -16,14 3,7 19,22 3,40 -22,25 -81,54 -91,82 10,-6 19,-15 31,-21 11,-7 23,-13 36,-19 72,-28 114,4 104,28 -12,32 -54,36 -84,48 -7,2 -15,5 -19,10 21,-3 35,-10 61,-10 30,0 35,7 51,21 17,-7 56,-69 114,-83 30,-6 69,-1 63,32 -4,19 -104,89 -117,117 2,0 52,-28 69,-35 46,-20 121,-43 170,-25 22,8 52,27 75,30 5,-7 12,-14 16,-22 -38,-16 -159,-46 -180,-72 50,7 225,75 280,100 20,10 33,11 32,24 -10,-2 -14,-8 -25,-10 -7,11 -16,23 -26,31 -7,5 -27,20 -29,28 15,11 25,12 39,24 -2,4 1,1 -5,2z"/>
  <path class="fil1" d="M1053 999l0 -9c-17,-6 1,1 -13,1 0,-11 3,-1 -1,-8l-2 -5 -44 -20 -18 15c4,6 5,1 8,8 -15,9 -47,-12 -53,-10 -9,8 -19,27 -34,26 5,-12 17,-20 19,-30 -7,-4 -19,-8 -28,-9 0,36 -29,43 -57,54l6 3c15,4 31,3 50,16 13,9 25,32 12,50 -26,35 -113,7 -159,24 -13,6 -13,8 -19,19 -26,44 -77,93 -93,128 8,7 117,50 141,61 15,6 33,15 47,19 20,-27 38,-56 59,-83 41,-56 78,-110 120,-166 4,-5 57,-76 59,-84z"/>
  <path class="fil0" d="M553 138c30,-3 314,77 362,91 105,32 195,62 297,98 14,5 30,12 42,15l-88 292c-5,18 -24,89 -31,99 -28,-2 -183,-61 -225,-74 -39,-12 -78,-21 -118,-32l-235 -65c-5,-3 -5,-5 -6,-12 -8,-41 -2,-84 -2,-127 0,-86 -16,-206 4,-285zm-31 128c0,48 6,102 5,144 -2,41 -11,120 5,159 5,13 8,13 23,15 29,4 59,15 87,24 19,7 39,12 59,17 81,20 159,38 237,63 52,17 105,41 164,61 57,18 47,26 70,-54 6,-20 12,-39 17,-59 11,-40 19,-79 32,-119 17,-57 38,-112 55,-168 9,-26 -4,-25 -36,-35 -75,-25 -147,-53 -222,-78 -153,-51 -317,-85 -476,-124 -15,19 -15,41 -16,70 -1,28 -4,57 -4,84z"/>
  <path class="fil1" d="M144 1216c3,12 39,56 48,66 34,40 76,76 121,105 13,9 60,37 74,40 10,-21 -5,-63 7,-81 12,-1 28,11 34,18l11 -9 13 -124c-15,4 -10,4 -41,-11 -43,-20 -95,-43 -136,-66 -9,-5 -11,-8 -22,-3 -24,11 -52,27 -74,41 -9,6 -28,17 -35,24z"/>
  <path class="fil2" d="M612 1274l-5 11c23,13 188,89 217,94l44 -61c24,-32 102,-125 116,-148 49,-76 105,-136 153,-220 6,-11 32,-61 32,-73 -6,6 -9,11 -14,19 -7,9 -12,11 -18,18l-84 128c-20,28 -40,52 -59,82 -10,16 -20,27 -31,40 -42,50 -80,109 -116,166 -16,26 -18,36 -37,28 -17,-7 -29,-16 -47,-24l-151 -60z"/>
  <path class="fil1" d="M407 1437c20,14 128,58 157,60 6,-22 20,-60 22,-82 -44,-17 -88,-16 -131,-24 -15,-3 -29,-8 -41,-10l-7 56z"/>
  <path class="fil2" d="M468 36c38,9 80,14 118,23 39,8 77,17 115,27 74,20 145,45 217,67 73,23 148,40 221,63 36,12 70,25 106,38 19,6 92,36 109,33 -15,-18 -259,-90 -311,-107 -71,-23 -135,-49 -208,-71 -37,-11 -73,-20 -110,-30 -66,-20 -161,-58 -223,-58 -18,0 -25,6 -34,15z"/>
  <path class="fil1" d="M374 988c24,18 51,18 78,27 11,4 15,8 24,13 3,-5 25,-78 33,-100 4,-10 11,-24 14,-34 -28,4 -69,20 -90,32 -14,7 -26,14 -37,24 -9,8 -24,17 -22,38z"/>
  <path class="fil2" d="M1186 845c34,-4 51,-84 62,-121 34,-118 64,-237 100,-355 4,-12 21,-63 21,-70 -21,10 -15,-1 -32,56 -36,117 -68,236 -104,353l-47 137z"/>
  <path class="fil2" d="M737 945c9,0 35,-6 47,-8 18,-2 35,-3 53,-3 17,0 33,3 49,6 12,3 35,13 43,14 4,-5 10,-12 13,-19 -5,-6 -18,-9 -27,-12 -14,-5 -12,5 -27,7 2,-8 6,-6 9,-14 -10,-7 -27,-3 -32,-15 15,-7 27,2 42,5 5,-7 13,-13 16,-21 -5,-5 -67,-29 -74,-29 -6,61 -60,58 -112,89z"/>
  <path class="fil1" d="M335 1114c3,5 50,21 59,25 10,4 20,8 30,12 9,4 21,11 30,13 6,-10 10,-49 9,-63 -17,-11 -101,-12 -128,13z"/>
  <path class="fil2" d="M290 1136c7,6 119,61 143,68 13,5 12,6 19,12 3,-27 6,-25 -24,-39 -30,-13 -63,-23 -93,-36 -18,-8 -28,-21 -45,-5z"/>
  <path class="fil0" d="M635 729c-22,-8 -112,-35 -126,-35 0,17 13,22 29,25 15,4 30,6 45,9 25,7 62,19 90,17 -6,-5 -31,-13 -38,-16z"/>
  <path class="fil2" d="M966 931l23 11c8,-5 24,-19 29,-26 -15,-18 -50,-4 -52,15z"/>
  <path class="fil2" d="M919 909c5,5 26,14 35,15 4,-9 12,-13 17,-23 -5,-5 -26,-10 -34,-13l-14 15c-4,4 -2,2 -4,6z"/>
  <path class="fil2" d="M994 896c10,4 23,10 35,12 5,-5 15,-14 18,-18 0,-1 -1,-2 -1,-1 0,0 -1,-1 -1,-1l-15 -8c-7,-2 -14,-6 -21,-7 -3,4 -14,19 -15,23z"/>
  <path class="fil2" d="M948 878c9,3 24,11 34,12 4,-8 10,-13 14,-22 -5,-4 -23,-11 -31,-12 -5,4 -15,15 -17,22z"/>
  <path class="fil2" d="M941 960c6,4 15,7 22,7 6,-3 14,-11 16,-17 -15,-9 -33,-11 -38,10z"/>
 </g>
</svg>
